<svg id="svg" version="1.1" width="400" height="556.6666666666666" viewBox="0 0 400 556.6666666666666" xmlns="http://www.w3.org/2000/svg" xmlns:xlink="http://www.w3.org/1999/xlink" ><g id="svgg"><path id="path0" d="M224.000 0.800 C 224.000 1.020,223.471 1.200,222.824 1.200 C 222.177 1.200,221.536 1.380,221.400 1.600 C 221.264 1.820,220.803 2.000,220.376 2.000 C 219.949 2.000,219.600 2.193,219.600 2.429 C 219.600 2.992,218.578 4.000,218.006 4.000 C 217.562 4.000,213.682 7.840,212.282 9.664 C 211.587 10.571,210.248 13.230,209.143 15.900 C 208.847 16.615,208.469 17.200,208.302 17.200 C 208.136 17.200,208.000 17.560,208.000 18.000 C 208.000 18.440,207.820 18.800,207.600 18.800 C 207.380 18.800,207.200 19.329,207.200 19.976 C 207.200 20.623,207.020 21.264,206.800 21.400 C 206.580 21.536,206.400 22.177,206.400 22.824 C 206.400 23.471,206.220 24.000,206.000 24.000 C 205.780 24.000,205.600 24.540,205.600 25.200 C 205.600 25.860,205.420 26.400,205.200 26.400 C 204.980 26.400,204.800 26.768,204.800 27.218 C 204.800 27.994,204.748 27.985,203.800 27.036 C 203.250 26.486,202.800 25.758,202.800 25.418 C 202.800 25.078,202.620 24.800,202.400 24.800 C 202.180 24.800,202.000 24.468,202.000 24.062 C 202.000 23.259,200.820 22.000,200.069 22.000 C 199.811 22.000,199.600 22.450,199.600 23.000 C 199.600 23.550,199.420 24.000,199.200 24.000 C 198.980 24.000,198.800 24.540,198.800 25.200 C 198.800 25.860,198.620 26.400,198.400 26.400 C 198.174 26.400,198.000 27.540,198.000 29.019 L 198.000 31.637 197.019 30.919 C 196.480 30.523,195.828 29.705,195.571 29.100 C 195.313 28.495,194.945 28.000,194.751 28.000 C 194.558 28.000,194.400 26.110,194.400 23.800 C 194.400 21.299,194.240 19.600,194.005 19.600 C 193.429 19.600,192.000 20.902,192.000 21.427 C 192.000 21.674,191.640 22.202,191.200 22.600 C 190.664 23.085,190.400 23.832,190.400 24.862 C 190.400 25.708,190.220 26.400,190.000 26.400 C 189.749 26.400,189.600 28.867,189.600 33.000 L 189.600 39.600 187.800 39.600 C 186.810 39.600,186.000 39.420,186.000 39.200 C 186.000 38.980,185.680 38.800,185.288 38.800 C 184.897 38.800,184.317 38.440,184.000 38.000 C 183.683 37.560,183.118 37.200,182.745 37.200 C 182.372 37.200,181.992 36.977,181.901 36.704 C 181.784 36.352,181.520 36.422,180.998 36.945 C 180.397 37.546,180.347 37.823,180.730 38.436 C 180.988 38.850,181.200 39.418,181.200 39.698 C 181.200 39.978,181.560 40.432,182.000 40.707 C 182.440 40.982,182.800 41.390,182.800 41.615 C 182.800 42.071,187.717 47.200,188.155 47.200 C 188.308 47.200,188.820 47.560,189.292 48.000 C 189.764 48.440,190.387 48.800,190.675 48.800 C 190.964 48.800,191.200 48.980,191.200 49.200 C 191.200 49.420,191.650 49.600,192.200 49.600 C 192.750 49.600,193.200 49.780,193.200 50.000 C 193.200 50.220,193.740 50.400,194.400 50.400 C 195.060 50.400,195.600 50.580,195.600 50.800 C 195.600 51.020,196.140 51.200,196.800 51.200 C 197.460 51.200,198.000 51.380,198.000 51.600 C 198.000 51.853,200.867 52.000,205.800 52.000 C 210.733 52.000,213.600 51.853,213.600 51.600 C 213.600 51.380,214.140 51.200,214.800 51.200 C 215.460 51.200,216.000 51.020,216.000 50.800 C 216.000 50.580,216.529 50.400,217.176 50.400 C 217.823 50.400,218.464 50.220,218.600 50.000 C 218.736 49.780,219.197 49.600,219.624 49.600 C 220.051 49.600,220.401 49.465,220.403 49.300 C 220.407 48.963,222.325 48.000,222.991 48.000 C 223.229 48.000,223.683 47.640,224.000 47.200 C 224.317 46.760,224.766 46.400,224.998 46.400 C 225.594 46.400,229.600 42.451,229.600 41.863 C 229.600 41.596,229.960 41.117,230.400 40.800 C 230.840 40.483,231.200 39.914,231.200 39.535 C 231.200 39.157,231.380 38.736,231.600 38.600 C 231.820 38.464,232.000 37.993,232.000 37.553 C 232.000 37.113,232.180 36.864,232.400 37.000 C 232.638 37.147,232.800 36.671,232.800 35.824 C 232.800 35.041,232.980 34.400,233.200 34.400 C 233.420 34.400,233.600 33.860,233.600 33.200 C 233.600 32.540,233.780 32.000,234.000 32.000 C 234.220 32.000,234.400 31.299,234.400 30.443 C 234.400 29.380,234.605 28.807,235.045 28.638 C 235.498 28.464,235.638 28.041,235.516 27.211 C 235.407 26.468,235.539 25.956,235.872 25.828 C 236.162 25.716,236.400 25.252,236.400 24.796 C 236.400 24.340,236.760 23.580,237.200 23.108 C 237.640 22.636,238.000 22.013,238.000 21.725 C 238.000 21.436,238.360 21.200,238.800 21.200 C 239.240 21.200,239.600 21.020,239.600 20.800 C 239.600 19.893,241.118 20.532,242.900 22.188 C 245.195 24.321,245.487 26.150,243.800 27.836 C 243.250 28.386,242.800 29.008,242.800 29.218 C 242.800 29.428,242.548 29.600,242.240 29.600 C 241.454 29.600,238.800 32.340,238.800 33.152 C 238.800 33.521,238.440 34.083,238.000 34.400 C 237.560 34.717,237.200 35.297,237.200 35.688 C 237.200 36.080,237.020 36.400,236.800 36.400 C 236.580 36.400,236.400 36.760,236.400 37.200 C 236.400 37.640,236.220 38.000,236.000 38.000 C 235.780 38.000,235.600 38.360,235.600 38.800 C 235.600 39.240,235.420 39.600,235.200 39.600 C 234.980 39.600,234.800 40.140,234.800 40.800 C 234.800 41.460,234.620 42.000,234.400 42.000 C 234.180 42.000,234.000 42.630,234.000 43.400 C 234.000 44.329,233.813 44.800,233.444 44.800 C 233.121 44.800,232.785 45.388,232.644 46.200 C 232.510 46.970,232.290 48.232,232.156 49.004 C 232.021 49.776,231.751 50.506,231.556 50.627 C 231.360 50.748,231.200 52.086,231.200 53.600 C 231.200 55.114,231.020 56.464,230.800 56.600 C 230.580 56.736,230.400 58.086,230.400 59.600 C 230.400 61.114,230.580 62.464,230.800 62.600 C 231.020 62.736,231.200 64.061,231.200 65.544 C 231.200 67.027,231.370 68.411,231.577 68.620 C 231.784 68.829,231.995 70.035,232.045 71.300 C 232.096 72.565,232.286 73.600,232.468 73.600 C 232.651 73.600,232.800 74.050,232.800 74.600 C 232.800 75.150,232.620 75.600,232.400 75.600 C 232.180 75.600,232.000 76.104,232.000 76.720 C 232.000 77.924,231.369 78.800,230.502 78.800 C 229.765 78.800,228.000 80.622,228.000 81.382 C 228.000 81.802,228.384 82.000,229.200 82.000 C 230.648 82.000,230.821 82.997,229.600 84.308 C 229.160 84.780,228.800 85.404,228.800 85.695 C 228.800 85.986,228.440 86.483,228.000 86.800 C 227.560 87.117,227.200 87.625,227.200 87.928 C 227.200 88.666,224.635 91.200,223.889 91.200 C 223.564 91.200,223.085 91.457,222.824 91.771 C 222.137 92.599,218.555 94.400,217.595 94.400 C 217.144 94.400,216.671 94.670,216.545 95.000 C 216.413 95.342,215.817 95.600,215.157 95.600 C 214.521 95.600,214.000 95.780,214.000 96.000 C 214.000 96.220,213.550 96.400,213.000 96.400 C 212.450 96.400,212.000 96.580,212.000 96.800 C 212.000 97.020,211.460 97.200,210.800 97.200 C 210.140 97.200,209.600 97.380,209.600 97.600 C 209.600 97.820,209.280 98.000,208.888 98.000 C 208.497 98.000,207.917 98.360,207.600 98.800 C 207.283 99.240,206.779 99.600,206.480 99.600 C 205.889 99.600,201.200 104.302,201.200 104.894 C 201.200 105.381,200.157 106.400,199.659 106.400 C 199.440 106.400,197.986 107.660,196.428 109.200 C 194.869 110.740,193.392 112.000,193.146 112.000 C 192.712 112.000,190.776 113.541,188.111 116.007 C 187.403 116.663,186.620 117.200,186.372 117.200 C 186.124 117.200,185.417 117.740,184.800 118.400 C 184.183 119.060,183.406 119.600,183.073 119.600 C 182.740 119.600,181.785 120.320,180.951 121.200 C 180.117 122.080,179.224 122.800,178.965 122.800 C 178.707 122.800,177.770 123.610,176.884 124.600 C 175.998 125.590,175.053 126.400,174.783 126.400 C 174.514 126.400,173.407 127.300,172.324 128.400 C 171.242 129.500,170.263 130.400,170.149 130.400 C 169.885 130.400,168.800 131.479,168.800 131.743 C 168.800 131.852,167.315 133.495,165.500 135.392 C 159.673 141.483,157.555 143.865,156.977 144.979 C 156.667 145.578,155.870 146.574,155.206 147.194 C 154.543 147.814,154.000 148.532,154.000 148.789 C 154.000 149.300,153.027 150.400,152.575 150.400 C 152.130 150.400,150.401 152.546,150.400 153.100 C 150.400 153.375,150.220 153.600,150.000 153.600 C 149.780 153.600,149.600 153.798,149.600 154.040 C 149.600 154.281,149.060 154.983,148.400 155.600 C 147.740 156.217,147.200 156.917,147.200 157.157 C 147.200 157.697,137.658 167.200,137.115 167.200 C 136.898 167.200,136.217 167.740,135.600 168.400 C 134.983 169.060,134.283 169.600,134.044 169.600 C 133.638 169.600,132.618 170.328,131.384 171.500 C 131.094 171.775,130.692 172.000,130.491 172.000 C 130.289 172.000,129.798 172.360,129.400 172.800 C 129.002 173.240,128.505 173.600,128.296 173.600 C 128.087 173.600,127.379 174.051,126.724 174.603 C 126.068 175.154,125.368 175.504,125.166 175.379 C 124.965 175.255,124.800 175.433,124.800 175.776 C 124.800 176.146,124.453 176.400,123.947 176.400 C 123.478 176.400,122.803 176.716,122.447 177.103 C 122.091 177.489,121.305 178.060,120.700 178.370 C 120.095 178.681,119.600 179.085,119.600 179.268 C 119.600 179.450,119.306 179.600,118.947 179.600 C 118.588 179.600,118.003 179.916,117.647 180.303 C 117.291 180.689,116.505 181.260,115.900 181.570 C 115.295 181.881,114.800 182.285,114.800 182.468 C 114.800 182.650,114.440 182.800,114.000 182.800 C 113.560 182.800,113.200 182.989,113.200 183.220 C 113.200 183.452,112.597 183.893,111.861 184.200 C 111.125 184.508,110.090 185.307,109.561 185.976 C 109.032 186.645,108.365 187.194,108.078 187.196 C 107.791 187.198,106.496 188.280,105.200 189.600 C 103.904 190.920,102.580 192.000,102.256 192.000 C 101.702 192.000,98.800 194.528,98.800 195.011 C 98.800 195.414,96.848 197.200,96.408 197.200 C 95.999 197.200,95.352 197.785,90.031 202.964 C 88.767 204.194,87.610 205.200,87.460 205.200 C 87.008 205.200,81.200 211.001,81.200 211.453 C 81.200 211.683,80.615 212.425,79.900 213.103 C 77.554 215.325,75.600 217.545,75.600 217.990 C 75.600 218.230,75.015 219.041,74.300 219.792 C 72.299 221.893,72.027 222.267,70.773 224.652 C 70.129 225.876,69.062 227.382,68.401 227.999 C 67.741 228.616,67.200 229.327,67.200 229.579 C 67.200 230.154,65.381 232.000,64.815 232.000 C 64.583 232.000,63.865 232.470,63.220 233.045 C 61.737 234.366,60.769 234.860,57.900 235.756 C 56.635 236.151,55.600 236.638,55.600 236.837 C 55.600 237.512,41.629 237.286,40.943 236.600 C 40.589 236.246,39.611 236.000,38.559 236.000 C 37.342 236.000,36.702 236.191,36.545 236.600 C 36.373 237.047,35.661 237.200,33.757 237.200 C 32.319 237.200,31.200 237.375,31.200 237.600 C 31.200 237.820,30.779 238.000,30.264 238.000 C 29.228 238.000,25.600 241.168,25.600 242.072 C 25.600 242.375,25.240 242.883,24.800 243.200 C 24.327 243.541,24.000 244.235,24.000 244.901 C 24.000 245.531,23.736 246.126,23.400 246.255 C 23.070 246.382,22.800 246.787,22.800 247.154 C 22.800 247.522,22.450 248.076,22.021 248.385 C 21.593 248.693,21.322 249.074,21.419 249.231 C 21.516 249.388,21.326 249.619,20.998 249.746 C 20.669 249.872,20.400 250.251,20.400 250.587 C 20.400 250.924,20.220 251.200,20.000 251.200 C 19.780 251.200,19.600 251.729,19.600 252.376 C 19.600 253.023,19.420 253.664,19.200 253.800 C 18.980 253.936,18.800 254.577,18.800 255.224 C 18.800 255.871,18.620 256.400,18.400 256.400 C 18.180 256.400,18.000 257.300,18.000 258.400 C 18.000 259.500,17.820 260.400,17.600 260.400 C 17.380 260.400,17.200 261.120,17.200 262.000 C 17.200 262.880,17.380 263.600,17.600 263.600 C 17.820 263.600,18.000 264.075,18.000 264.656 C 18.000 266.451,20.198 267.459,21.429 266.229 C 21.743 265.914,22.000 265.374,22.000 265.029 C 22.000 264.683,22.180 264.400,22.400 264.400 C 22.620 264.400,22.800 263.847,22.800 263.171 C 22.800 262.079,22.867 262.010,23.400 262.543 C 23.730 262.873,24.000 263.344,24.000 263.590 C 24.000 264.212,25.850 266.000,26.494 266.000 C 26.785 266.000,27.283 266.360,27.600 266.800 C 28.038 267.408,28.635 267.600,30.088 267.600 C 32.440 267.600,32.668 266.669,30.802 264.678 C 29.222 262.993,29.268 262.865,31.500 262.722 C 33.263 262.609,34.905 260.400,33.227 260.400 C 32.992 260.400,32.800 260.040,32.800 259.600 C 32.800 259.160,32.620 258.800,32.400 258.800 C 32.157 258.800,32.000 257.059,32.000 254.376 C 32.000 251.529,32.143 250.041,32.400 250.200 C 32.620 250.336,32.800 250.257,32.800 250.024 C 32.800 249.791,33.160 249.600,33.600 249.600 C 34.040 249.600,34.400 249.420,34.400 249.200 C 34.400 248.963,35.867 248.800,38.000 248.800 C 40.133 248.800,41.600 248.963,41.600 249.200 C 41.600 249.420,42.229 249.600,42.997 249.600 C 44.756 249.600,46.400 250.949,46.400 252.392 C 46.400 254.129,45.754 254.400,41.609 254.400 C 36.685 254.400,34.646 256.743,37.089 259.595 C 37.939 260.588,55.437 260.852,57.273 259.900 C 58.645 259.188,60.400 257.346,60.400 256.618 C 60.400 256.278,60.580 256.000,60.800 256.000 C 61.020 256.000,61.200 255.736,61.200 255.413 C 61.200 254.680,63.622 252.000,64.285 252.000 C 64.555 252.000,65.417 251.640,66.200 251.200 C 66.983 250.760,68.069 250.400,68.612 250.400 C 69.155 250.400,69.600 250.264,69.600 250.098 C 69.600 249.790,71.069 249.085,72.700 248.609 C 73.195 248.464,73.600 248.178,73.600 247.973 C 73.600 247.768,74.050 247.600,74.600 247.600 C 75.150 247.600,75.600 247.420,75.600 247.200 C 75.600 246.980,76.140 246.800,76.800 246.800 C 77.460 246.800,78.000 246.620,78.000 246.400 C 78.000 246.180,78.540 246.000,79.200 246.000 C 79.860 246.000,80.400 245.820,80.400 245.600 C 80.400 245.380,80.940 245.200,81.600 245.200 C 82.260 245.200,82.800 245.020,82.800 244.800 C 82.800 244.580,83.160 244.400,83.600 244.400 C 84.040 244.400,84.400 244.220,84.400 244.000 C 84.400 243.780,84.760 243.600,85.200 243.600 C 85.640 243.600,86.000 243.420,86.000 243.200 C 86.000 242.980,86.349 242.800,86.776 242.800 C 87.203 242.800,87.664 242.620,87.800 242.400 C 87.936 242.180,88.397 242.000,88.824 242.000 C 89.251 242.000,89.600 241.842,89.600 241.649 C 89.600 241.296,91.748 240.258,92.213 240.385 C 92.349 240.422,92.783 240.081,93.177 239.626 C 93.571 239.172,94.188 238.800,94.547 238.800 C 94.906 238.800,95.200 238.530,95.200 238.200 C 95.200 237.870,95.470 237.600,95.800 237.600 C 96.130 237.600,96.400 237.420,96.400 237.200 C 96.400 236.980,96.663 236.800,96.985 236.800 C 97.306 236.800,98.282 236.080,99.153 235.200 C 100.024 234.320,100.940 233.600,101.188 233.600 C 101.718 233.600,103.569 231.585,103.587 230.988 C 103.594 230.762,103.960 230.317,104.400 230.000 C 104.840 229.683,105.200 229.270,105.200 229.083 C 105.200 228.524,106.173 227.724,106.657 227.886 C 106.904 227.968,108.291 226.858,109.738 225.418 C 111.184 223.978,112.570 222.800,112.816 222.800 C 113.061 222.800,113.976 222.080,114.847 221.200 C 115.718 220.320,116.671 219.600,116.965 219.600 C 117.258 219.600,118.036 218.970,118.694 218.200 C 119.352 217.430,120.112 216.800,120.384 216.800 C 120.656 216.800,121.383 216.260,122.000 215.600 C 122.617 214.940,123.337 214.400,123.600 214.400 C 123.863 214.400,124.583 213.860,125.200 213.200 C 125.817 212.540,126.572 212.000,126.879 212.000 C 127.186 212.000,128.141 211.280,129.000 210.400 C 129.859 209.520,130.737 208.800,130.950 208.800 C 131.163 208.800,132.305 207.810,133.486 206.600 C 134.667 205.390,135.803 204.400,136.010 204.400 C 136.410 204.400,138.328 202.794,139.711 201.300 C 140.169 200.805,140.773 200.400,141.052 200.400 C 141.332 200.400,141.744 200.085,141.968 199.700 C 142.192 199.315,142.381 199.143,142.388 199.318 C 142.406 199.789,144.400 197.708,144.400 197.218 C 144.400 196.988,144.670 196.800,145.000 196.800 C 145.330 196.800,145.600 196.620,145.600 196.400 C 145.600 196.180,145.882 196.000,146.226 196.000 C 146.570 196.000,147.306 195.460,147.861 194.800 C 148.417 194.140,149.143 193.600,149.475 193.600 C 149.807 193.600,150.583 193.060,151.200 192.400 C 151.817 191.740,152.492 191.200,152.701 191.200 C 152.910 191.200,153.646 190.660,154.337 190.000 C 155.028 189.340,155.778 188.800,156.003 188.800 C 156.229 188.800,157.026 188.170,157.774 187.400 C 158.521 186.630,159.379 186.000,159.678 186.000 C 159.978 186.000,160.483 185.640,160.800 185.200 C 161.117 184.760,161.657 184.400,162.000 184.400 C 162.343 184.400,162.883 184.040,163.200 183.600 C 163.517 183.160,164.057 182.800,164.400 182.800 C 164.743 182.800,165.283 182.440,165.600 182.000 C 165.917 181.560,166.379 181.200,166.627 181.200 C 167.287 181.200,169.446 180.067,169.956 179.453 C 170.197 179.162,171.116 178.598,171.998 178.201 C 172.879 177.804,173.600 177.326,173.600 177.139 C 173.600 176.953,174.050 176.800,174.600 176.800 C 175.150 176.800,175.600 176.620,175.600 176.400 C 175.600 176.180,175.960 176.000,176.400 176.000 C 176.840 176.000,177.201 175.865,177.203 175.700 C 177.207 175.341,179.144 174.400,179.880 174.400 C 180.166 174.400,180.400 174.220,180.400 174.000 C 180.400 173.780,180.760 173.600,181.200 173.600 C 181.640 173.600,182.000 173.420,182.000 173.200 C 182.000 172.980,182.540 172.800,183.200 172.800 C 183.860 172.800,184.400 172.620,184.400 172.400 C 184.400 172.180,184.760 172.000,185.200 172.000 C 185.640 172.000,186.000 171.820,186.000 171.600 C 186.000 171.380,186.810 171.200,187.800 171.200 C 188.790 171.200,189.600 171.039,189.600 170.842 C 189.600 170.449,192.698 170.026,193.500 170.309 C 193.775 170.406,194.000 170.826,194.000 171.243 C 194.000 171.659,194.180 172.000,194.400 172.000 C 194.620 172.000,194.800 172.360,194.800 172.800 C 194.800 173.240,194.980 173.600,195.200 173.600 C 195.420 173.600,195.600 173.960,195.600 174.400 C 195.600 174.840,195.780 175.200,196.000 175.200 C 196.220 175.200,196.400 175.645,196.400 176.188 C 196.400 176.731,196.760 177.817,197.200 178.600 C 197.640 179.383,198.000 180.289,198.000 180.612 C 198.000 180.935,198.180 181.200,198.400 181.200 C 198.620 181.200,198.800 181.740,198.800 182.400 C 198.800 183.060,198.980 183.600,199.200 183.600 C 199.420 183.600,199.600 183.962,199.600 184.405 C 199.600 184.848,199.780 185.568,200.000 186.005 C 200.220 186.442,200.580 187.158,200.800 187.595 C 201.020 188.032,201.200 188.741,201.200 189.171 C 201.200 189.601,201.380 190.064,201.600 190.200 C 201.820 190.336,202.000 191.056,202.000 191.800 C 202.000 192.544,202.180 193.264,202.400 193.400 C 202.620 193.536,202.800 193.984,202.800 194.395 C 202.800 194.806,203.070 195.413,203.400 195.743 C 203.776 196.118,204.000 197.102,204.000 198.371 C 204.000 199.487,204.180 200.400,204.400 200.400 C 204.639 200.400,204.800 201.941,204.800 204.224 C 204.800 206.671,204.944 207.958,205.200 207.800 C 205.457 207.641,205.600 209.004,205.600 211.600 C 205.600 214.196,205.457 215.559,205.200 215.400 C 204.953 215.248,204.800 215.934,204.800 217.191 C 204.800 219.352,204.873 219.228,201.415 222.958 C 200.417 224.035,199.600 225.070,199.600 225.258 C 199.600 225.446,199.420 225.600,199.200 225.600 C 198.980 225.600,198.800 225.888,198.800 226.240 C 198.800 226.591,198.260 227.383,197.600 228.000 C 196.940 228.617,196.400 229.409,196.400 229.760 C 196.400 230.112,196.220 230.400,196.000 230.400 C 195.780 230.400,195.600 230.760,195.600 231.200 C 195.600 231.640,195.420 232.000,195.200 232.000 C 194.959 232.000,194.800 233.667,194.800 236.200 C 194.800 238.733,194.959 240.400,195.200 240.400 C 195.420 240.400,195.600 240.636,195.600 240.925 C 195.600 241.213,195.992 241.870,196.471 242.384 L 197.341 243.318 196.471 244.023 C 195.992 244.411,195.600 245.115,195.600 245.588 C 195.600 246.060,195.420 246.336,195.200 246.200 C 194.980 246.064,194.800 246.152,194.800 246.395 C 194.800 246.968,192.968 248.800,192.395 248.800 C 192.152 248.800,192.063 248.978,192.198 249.196 C 192.439 249.586,191.441 250.747,186.500 255.825 C 185.125 257.238,184.000 258.572,184.000 258.789 C 184.000 259.006,183.190 259.930,182.200 260.843 C 181.210 261.755,180.400 262.705,180.400 262.952 C 180.400 263.200,179.860 263.912,179.200 264.535 C 178.540 265.158,178.000 266.013,178.000 266.434 C 178.000 266.855,177.820 267.200,177.600 267.200 C 177.380 267.200,177.200 267.560,177.200 268.000 C 177.200 268.440,177.020 268.800,176.800 268.800 C 176.580 268.800,176.400 269.160,176.400 269.600 C 176.400 270.040,176.220 270.400,176.000 270.400 C 175.780 270.400,175.600 270.760,175.600 271.200 C 175.600 271.640,175.420 272.000,175.200 272.000 C 174.980 272.000,174.800 272.720,174.800 273.600 C 174.800 274.480,174.620 275.200,174.400 275.200 C 174.180 275.200,174.000 275.933,174.000 276.829 C 174.000 277.743,173.737 278.720,173.400 279.057 C 172.521 279.936,172.521 291.664,173.400 292.543 C 173.790 292.933,174.000 293.924,174.000 295.371 C 174.000 296.597,174.180 297.600,174.400 297.600 C 174.620 297.600,174.800 298.590,174.800 299.800 C 174.800 301.010,174.980 302.000,175.200 302.000 C 175.420 302.000,175.600 302.900,175.600 304.000 C 175.600 305.100,175.780 306.000,176.000 306.000 C 176.220 306.000,176.400 306.900,176.400 308.000 C 176.400 309.100,176.580 310.000,176.800 310.000 C 177.020 310.000,177.200 310.990,177.200 312.200 C 177.200 313.410,177.380 314.400,177.600 314.400 C 177.828 314.400,178.000 315.592,178.000 317.176 C 178.000 318.703,178.180 320.064,178.400 320.200 C 178.929 320.527,178.929 328.000,178.400 328.000 C 178.180 328.000,178.000 328.720,178.000 329.600 C 178.000 330.480,177.820 331.200,177.600 331.200 C 177.380 331.200,177.200 331.488,177.200 331.840 C 177.200 333.004,173.603 336.000,172.205 336.000 C 171.872 336.000,171.600 336.180,171.600 336.400 C 171.600 336.620,171.234 336.800,170.787 336.800 C 170.341 336.800,169.878 337.053,169.759 337.362 C 169.487 338.071,170.764 339.600,171.627 339.600 C 171.984 339.600,172.602 339.960,173.000 340.400 C 173.398 340.840,173.966 341.200,174.262 341.200 C 174.558 341.200,174.800 341.380,174.800 341.600 C 174.800 341.820,174.620 342.000,174.400 342.000 C 174.180 342.000,174.000 342.341,174.000 342.757 C 174.000 343.174,173.730 343.618,173.400 343.745 C 173.070 343.871,172.800 344.395,172.800 344.908 C 172.800 345.972,171.950 347.992,171.500 347.997 C 171.335 347.999,171.200 348.234,171.200 348.520 C 171.200 349.371,170.233 351.194,169.780 351.197 C 169.127 351.202,167.207 350.235,167.203 349.900 C 167.201 349.735,166.919 349.600,166.576 349.600 C 166.233 349.600,166.064 349.420,166.200 349.200 C 166.340 348.973,166.004 348.800,165.424 348.800 C 164.861 348.800,164.400 348.620,164.400 348.400 C 164.400 348.180,164.040 348.000,163.600 348.000 C 163.160 348.000,162.800 347.819,162.800 347.599 C 162.800 347.378,162.080 346.886,161.200 346.504 C 160.320 346.123,159.600 345.674,159.600 345.506 C 159.600 345.338,159.335 345.200,159.012 345.200 C 158.689 345.200,157.783 344.840,157.000 344.400 C 156.217 343.960,155.257 343.600,154.868 343.600 C 153.983 343.600,152.007 342.703,152.003 342.300 C 152.001 342.135,151.460 342.000,150.800 342.000 C 150.140 342.000,149.600 341.820,149.600 341.600 C 149.600 341.380,149.251 341.200,148.824 341.200 C 148.397 341.200,147.936 341.020,147.800 340.800 C 147.664 340.580,147.124 340.400,146.600 340.400 C 146.076 340.400,145.536 340.220,145.400 340.000 C 145.264 339.780,144.623 339.600,143.976 339.600 C 143.329 339.600,142.800 339.420,142.800 339.200 C 142.800 338.980,142.260 338.800,141.600 338.800 C 140.940 338.800,140.400 338.620,140.400 338.400 C 140.400 338.180,139.937 338.000,139.371 338.000 C 138.806 338.000,138.057 337.714,137.708 337.365 C 137.347 337.004,136.671 336.808,136.137 336.910 C 135.525 337.027,135.200 336.900,135.200 336.545 C 135.200 336.198,134.727 335.998,133.900 335.994 C 132.603 335.988,129.861 335.194,129.341 334.674 C 129.190 334.523,128.647 334.400,128.133 334.400 C 127.620 334.400,127.200 334.220,127.200 334.000 C 127.200 333.780,126.401 333.600,125.424 333.600 C 124.447 333.600,123.536 333.420,123.400 333.200 C 123.264 332.980,122.713 332.800,122.176 332.800 C 121.639 332.800,121.200 332.620,121.200 332.400 C 121.200 332.180,120.390 332.000,119.400 332.000 C 118.410 332.000,117.600 331.820,117.600 331.600 C 117.600 331.380,117.161 331.200,116.624 331.200 C 116.087 331.200,115.536 331.020,115.400 330.800 C 115.264 330.580,114.443 330.400,113.576 330.400 C 112.709 330.400,112.000 330.220,112.000 330.000 C 112.000 329.780,111.640 329.600,111.200 329.600 C 110.760 329.600,110.400 329.420,110.400 329.200 C 110.400 328.980,109.860 328.800,109.200 328.800 C 108.540 328.800,108.000 328.620,108.000 328.400 C 108.000 328.180,107.454 328.000,106.787 328.000 C 106.079 328.000,105.479 327.751,105.345 327.400 C 105.218 327.070,104.774 326.800,104.357 326.800 C 103.941 326.800,103.600 326.620,103.600 326.400 C 103.600 326.180,103.320 326.000,102.978 326.000 C 102.275 326.000,97.472 323.561,97.267 323.100 C 97.193 322.935,96.878 322.800,96.567 322.800 C 96.255 322.800,96.000 322.620,96.000 322.400 C 96.000 322.180,95.680 322.000,95.288 322.000 C 94.897 322.000,94.317 321.640,94.000 321.200 C 93.683 320.760,93.175 320.400,92.872 320.400 C 92.329 320.400,86.408 314.467,86.403 313.918 C 86.401 313.763,85.950 313.186,85.400 312.636 C 84.850 312.086,84.400 311.358,84.400 311.018 C 84.400 310.678,84.220 310.400,84.000 310.400 C 83.780 310.400,83.600 310.040,83.600 309.600 C 83.600 309.160,83.420 308.800,83.200 308.800 C 82.980 308.800,82.800 308.451,82.800 308.024 C 82.800 307.597,82.620 307.136,82.400 307.000 C 82.180 306.864,82.000 306.324,82.000 305.800 C 82.000 305.276,81.820 304.736,81.600 304.600 C 81.380 304.464,81.200 303.823,81.200 303.176 C 81.200 302.529,81.020 302.000,80.800 302.000 C 80.580 302.000,80.400 301.503,80.400 300.896 C 80.400 300.226,80.086 299.596,79.600 299.293 C 79.160 299.018,78.800 298.479,78.800 298.095 C 78.800 297.285,76.729 295.200,75.924 295.200 C 75.623 295.200,75.117 294.840,74.800 294.400 C 74.483 293.960,73.914 293.600,73.535 293.600 C 73.157 293.600,72.736 293.420,72.600 293.200 C 72.464 292.980,71.913 292.800,71.376 292.800 C 70.839 292.800,70.400 292.620,70.400 292.400 C 70.400 292.180,69.770 292.000,69.000 292.000 C 68.230 292.000,67.600 291.820,67.600 291.600 C 67.600 291.345,64.200 291.200,58.200 291.200 C 52.200 291.200,48.800 291.345,48.800 291.600 C 48.800 291.845,46.867 292.000,43.800 292.000 C 40.733 292.000,38.800 292.155,38.800 292.400 C 38.800 292.639,37.267 292.800,35.000 292.800 C 32.733 292.800,31.200 292.961,31.200 293.200 C 31.200 293.420,30.221 293.600,29.024 293.600 C 27.827 293.600,26.736 293.780,26.600 294.000 C 26.464 294.220,25.643 294.400,24.776 294.400 C 23.909 294.400,23.200 294.580,23.200 294.800 C 23.200 295.020,22.696 295.200,22.080 295.200 C 21.464 295.200,20.789 295.352,20.580 295.537 C 20.371 295.723,19.165 296.190,17.900 296.574 C 16.635 296.959,15.600 297.438,15.600 297.637 C 15.600 297.837,15.240 298.000,14.800 298.000 C 14.360 298.000,14.000 298.180,14.000 298.400 C 14.000 298.620,13.370 298.800,12.600 298.800 C 11.830 298.800,11.200 298.980,11.200 299.200 C 11.200 299.420,10.840 299.600,10.400 299.600 C 9.960 299.600,9.600 299.780,9.600 300.000 C 9.600 300.220,9.240 300.400,8.800 300.400 C 8.360 300.400,8.000 300.580,8.000 300.800 C 8.000 301.020,7.723 301.200,7.385 301.200 C 6.606 301.200,2.000 305.832,2.000 306.615 C 2.000 306.937,1.820 307.200,1.600 307.200 C 1.380 307.200,1.200 307.549,1.200 307.976 C 1.200 308.403,1.020 308.864,0.800 309.000 C -0.921 310.064,1.157 317.600,3.171 317.600 C 3.627 317.600,4.000 317.780,4.000 318.000 C 4.000 318.220,4.283 318.400,4.629 318.400 C 4.974 318.400,5.527 318.670,5.857 319.000 C 6.732 319.875,14.400 319.875,14.400 319.000 C 14.400 318.539,14.911 318.400,16.600 318.400 C 17.810 318.400,18.800 318.220,18.800 318.000 C 18.800 317.753,20.867 317.600,24.200 317.600 C 27.533 317.600,29.600 317.753,29.600 318.000 C 29.600 318.220,29.938 318.400,30.351 318.400 C 30.764 318.400,31.333 318.678,31.615 319.018 C 31.897 319.358,32.369 319.544,32.664 319.431 C 32.959 319.318,33.200 319.386,33.200 319.582 C 33.200 319.778,33.920 320.644,34.800 321.507 C 35.680 322.369,36.400 323.301,36.400 323.577 C 36.400 324.331,38.759 326.385,40.481 327.131 C 41.317 327.493,42.000 327.926,42.000 328.094 C 42.000 328.262,44.790 328.400,48.200 328.400 C 52.067 328.400,54.400 328.249,54.400 328.000 C 54.400 327.780,54.670 327.600,55.000 327.600 C 55.330 327.600,55.600 327.780,55.600 328.000 C 55.600 328.220,55.883 328.400,56.229 328.400 C 56.574 328.400,57.127 328.670,57.457 329.000 C 57.787 329.330,58.404 329.600,58.829 329.600 C 59.253 329.600,59.600 329.780,59.600 330.000 C 59.600 330.220,59.949 330.400,60.376 330.400 C 60.803 330.400,61.264 330.580,61.400 330.800 C 61.536 331.020,62.177 331.200,62.824 331.200 C 63.471 331.200,64.000 331.380,64.000 331.600 C 64.000 331.820,64.349 332.000,64.776 332.000 C 65.203 332.000,65.664 332.180,65.800 332.400 C 65.936 332.620,66.487 332.800,67.024 332.800 C 67.561 332.800,68.000 332.980,68.000 333.200 C 68.000 333.420,68.360 333.600,68.800 333.600 C 69.240 333.600,69.600 333.780,69.600 334.000 C 69.600 334.220,69.926 334.400,70.325 334.400 C 70.723 334.400,71.436 334.760,71.908 335.200 C 72.380 335.640,73.044 336.000,73.383 336.000 C 73.722 336.000,74.000 336.180,74.000 336.400 C 74.000 336.620,74.360 336.800,74.800 336.800 C 75.240 336.800,75.600 336.980,75.600 337.200 C 75.600 337.420,75.878 337.600,76.218 337.600 C 76.558 337.600,77.270 338.005,77.799 338.500 C 79.475 340.067,79.952 340.400,80.521 340.400 C 80.826 340.400,81.402 340.760,81.800 341.200 C 82.198 341.640,82.816 342.000,83.174 342.000 C 83.531 342.000,84.083 342.360,84.400 342.800 C 84.717 343.240,85.257 343.600,85.600 343.600 C 85.943 343.600,86.483 343.960,86.800 344.400 C 87.117 344.840,87.697 345.200,88.088 345.200 C 88.480 345.200,88.800 345.350,88.800 345.532 C 88.800 345.715,89.295 346.119,89.900 346.430 C 90.505 346.740,91.291 347.311,91.647 347.697 C 92.003 348.084,92.678 348.400,93.147 348.400 C 93.616 348.400,94.000 348.593,94.000 348.829 C 94.000 349.064,94.270 349.527,94.600 349.857 C 94.930 350.187,95.200 350.348,95.200 350.214 C 95.200 349.867,96.777 350.759,97.762 351.665 C 99.490 353.254,101.013 354.399,101.400 354.401 C 101.620 354.403,102.375 354.943,103.078 355.602 C 103.781 356.261,104.597 356.800,104.890 356.800 C 105.183 356.800,105.683 357.160,106.000 357.600 C 106.317 358.040,106.815 358.400,107.106 358.400 C 107.735 358.400,109.600 360.182,109.600 360.782 C 109.600 361.012,109.932 361.200,110.338 361.200 C 110.744 361.200,111.402 361.560,111.800 362.000 C 112.198 362.440,112.784 362.800,113.102 362.800 C 113.419 362.800,114.183 363.340,114.800 364.000 C 115.417 364.660,116.120 365.200,116.364 365.200 C 116.608 365.200,117.372 365.740,118.063 366.400 C 118.754 367.060,119.480 367.600,119.678 367.600 C 119.875 367.600,120.498 368.062,121.062 368.626 C 121.626 369.190,122.338 369.556,122.644 369.438 C 122.950 369.321,123.200 369.354,123.200 369.513 C 123.201 370.098,125.114 372.000,125.702 372.000 C 126.036 372.000,126.735 372.538,127.255 373.196 C 127.775 373.854,128.515 374.394,128.900 374.396 C 129.285 374.398,129.600 374.580,129.600 374.800 C 129.600 375.020,129.870 375.200,130.200 375.200 C 130.530 375.200,130.800 375.380,130.800 375.600 C 130.800 375.820,131.088 376.000,131.440 376.000 C 131.791 376.000,132.583 376.540,133.200 377.200 C 133.817 377.860,134.566 378.400,134.866 378.400 C 135.165 378.400,135.748 378.850,136.161 379.400 C 136.574 379.950,137.155 380.400,137.453 380.400 C 137.750 380.400,138.218 380.760,138.493 381.200 C 138.768 381.640,139.289 382.000,139.651 382.000 C 140.014 382.000,140.735 382.538,141.255 383.196 C 141.775 383.854,142.565 384.394,143.012 384.396 C 143.458 384.398,144.083 384.760,144.400 385.200 C 144.717 385.640,145.257 386.000,145.600 386.000 C 145.943 386.000,146.483 386.360,146.800 386.800 C 147.117 387.240,147.695 387.600,148.085 387.600 C 148.474 387.600,149.018 387.960,149.293 388.400 C 149.568 388.840,150.078 389.200,150.426 389.200 C 150.775 389.200,151.483 389.650,152.000 390.200 C 152.517 390.750,153.138 391.200,153.381 391.200 C 153.625 391.200,154.083 391.560,154.400 392.000 C 154.717 392.440,155.257 392.800,155.600 392.800 C 155.943 392.800,156.483 393.160,156.800 393.600 C 157.117 394.040,157.657 394.400,158.000 394.400 C 158.343 394.400,158.883 394.760,159.200 395.200 C 159.517 395.640,160.187 396.000,160.688 396.000 C 161.190 396.000,161.600 396.180,161.600 396.400 C 161.600 396.620,161.836 396.800,162.125 396.800 C 162.413 396.800,163.036 397.160,163.508 397.600 C 163.980 398.040,164.601 398.400,164.888 398.400 C 165.175 398.400,165.723 398.816,166.105 399.325 C 166.487 399.834,167.430 400.498,168.200 400.800 C 168.970 401.102,169.600 401.496,169.600 401.675 C 169.600 401.854,169.853 402.000,170.162 402.000 C 170.919 402.000,174.000 403.665,174.000 404.074 C 174.000 404.253,174.360 404.400,174.800 404.400 C 175.240 404.400,175.600 404.580,175.600 404.800 C 175.600 405.020,175.960 405.200,176.400 405.200 C 176.840 405.200,177.200 405.380,177.200 405.600 C 177.200 405.820,177.560 406.000,178.000 406.000 C 178.440 406.000,178.800 406.180,178.800 406.400 C 178.800 406.620,179.441 406.800,180.224 406.800 C 181.071 406.800,181.547 406.962,181.400 407.200 C 181.260 407.427,181.596 407.600,182.176 407.600 C 182.739 407.600,183.200 407.780,183.200 408.000 C 183.200 408.220,183.740 408.400,184.400 408.400 C 185.060 408.400,185.600 408.580,185.600 408.800 C 185.600 409.020,186.063 409.200,186.629 409.200 C 187.194 409.200,187.927 409.470,188.257 409.800 C 188.587 410.130,189.474 410.400,190.229 410.400 C 190.983 410.400,191.600 410.580,191.600 410.800 C 191.600 411.035,192.992 411.200,194.976 411.200 C 196.833 411.200,198.464 411.020,198.600 410.800 C 198.736 410.580,199.185 410.400,199.597 410.400 C 200.403 410.400,204.400 406.744,204.400 406.008 C 204.400 405.445,206.225 403.600,206.782 403.600 C 207.012 403.600,207.200 403.347,207.200 403.038 C 207.200 402.281,208.865 399.200,209.274 399.200 C 209.453 399.200,209.600 398.840,209.600 398.400 C 209.600 397.960,209.780 397.600,210.000 397.600 C 210.220 397.600,210.400 397.240,210.400 396.800 C 210.400 396.360,210.580 396.000,210.800 396.000 C 211.020 396.000,211.200 395.640,211.200 395.200 C 211.200 394.760,211.380 394.400,211.600 394.400 C 211.820 394.400,212.000 394.166,212.000 393.880 C 212.000 393.144,212.941 391.207,213.300 391.203 C 213.465 391.201,213.600 390.750,213.600 390.200 C 213.600 389.650,213.780 389.200,214.000 389.200 C 214.220 389.200,214.400 388.840,214.400 388.400 C 214.400 387.960,214.553 387.600,214.739 387.600 C 214.926 387.600,215.403 386.880,215.800 386.000 C 216.197 385.120,216.674 384.400,216.861 384.400 C 217.047 384.400,217.200 384.135,217.200 383.812 C 217.200 383.489,217.560 382.583,218.000 381.800 C 218.440 381.017,218.800 380.111,218.800 379.788 C 218.800 379.465,218.980 379.200,219.200 379.200 C 219.420 379.200,219.600 378.660,219.600 378.000 C 219.600 377.340,219.780 376.800,220.000 376.800 C 220.220 376.800,220.400 376.440,220.400 376.000 C 220.400 375.152,221.739 374.854,222.200 375.600 C 222.635 376.304,223.600 376.028,223.600 375.200 C 223.600 374.760,223.780 374.400,224.000 374.400 C 224.220 374.400,224.400 374.059,224.400 373.643 C 224.400 373.226,224.690 372.774,225.045 372.638 C 225.498 372.464,225.638 372.041,225.516 371.211 C 225.407 370.468,225.539 369.956,225.872 369.828 C 226.162 369.716,226.400 369.169,226.400 368.613 C 226.400 368.056,226.580 367.600,226.800 367.600 C 227.020 367.600,227.200 366.891,227.200 366.024 C 227.200 365.157,227.380 364.336,227.600 364.200 C 227.820 364.064,228.000 363.524,228.000 363.000 C 228.000 362.476,228.180 361.936,228.400 361.800 C 228.620 361.664,228.800 360.843,228.800 359.976 C 228.800 359.109,228.980 358.400,229.200 358.400 C 229.420 358.400,229.600 357.860,229.600 357.200 C 229.600 356.540,229.780 356.000,230.000 356.000 C 230.220 356.000,230.400 355.190,230.400 354.200 C 230.400 353.210,230.580 352.400,230.800 352.400 C 231.020 352.400,231.200 351.781,231.200 351.024 C 231.200 350.267,231.380 349.536,231.600 349.400 C 231.820 349.264,232.000 348.623,232.000 347.976 C 232.000 347.329,232.180 346.800,232.400 346.800 C 232.620 346.800,232.800 346.091,232.800 345.224 C 232.800 344.357,232.980 343.536,233.200 343.400 C 233.420 343.264,233.600 342.713,233.600 342.176 C 233.600 341.639,233.780 341.200,234.000 341.200 C 234.220 341.200,234.400 340.570,234.400 339.800 C 234.400 338.822,234.581 338.400,235.000 338.400 C 235.371 338.400,235.600 338.024,235.600 337.412 C 235.600 336.869,235.960 335.783,236.400 335.000 C 236.840 334.217,237.200 333.347,237.200 333.068 C 237.200 332.015,238.227 330.406,238.900 330.403 C 239.285 330.401,239.600 330.580,239.600 330.800 C 239.600 331.020,240.129 331.200,240.776 331.200 C 241.423 331.200,242.064 331.380,242.200 331.600 C 242.336 331.820,242.797 332.000,243.224 332.000 C 243.651 332.000,244.000 332.180,244.000 332.400 C 244.000 332.620,244.358 332.800,244.797 332.800 C 245.235 332.800,245.818 333.160,246.093 333.600 C 246.368 334.040,246.843 334.400,247.149 334.400 C 247.456 334.400,247.997 334.735,248.353 335.144 C 248.709 335.552,249.444 335.867,249.988 335.844 C 250.652 335.814,251.024 336.044,251.126 336.546 C 251.209 336.957,252.609 338.575,254.238 340.141 C 255.867 341.708,257.200 343.241,257.200 343.548 C 257.200 343.855,257.515 344.399,257.900 344.757 C 258.801 345.596,259.600 347.023,259.600 347.795 C 259.600 348.128,259.752 348.400,259.937 348.400 C 260.123 348.400,260.700 349.255,261.221 350.300 C 261.742 351.345,262.760 352.764,263.484 353.454 C 264.208 354.144,264.800 354.926,264.800 355.193 C 264.800 355.461,265.340 356.183,266.000 356.800 C 266.660 357.417,267.200 358.169,267.200 358.472 C 267.200 358.775,267.560 359.283,268.000 359.600 C 268.440 359.917,268.800 360.407,268.800 360.688 C 268.800 360.970,269.132 361.200,269.538 361.200 C 269.944 361.200,270.602 361.560,271.000 362.000 C 271.512 362.566,272.232 362.800,273.459 362.800 C 274.760 362.800,275.318 362.600,275.693 362.000 C 276.065 361.403,276.626 361.200,277.896 361.200 C 278.833 361.200,279.600 361.020,279.600 360.800 C 279.600 360.574,280.733 360.400,282.200 360.400 C 283.630 360.400,284.800 360.567,284.800 360.771 C 284.800 360.975,285.520 361.460,286.400 361.848 C 287.280 362.236,288.000 362.707,288.000 362.895 C 288.000 363.455,289.918 365.200,290.534 365.200 C 290.847 365.200,291.845 365.920,292.752 366.800 C 293.659 367.680,294.628 368.400,294.906 368.400 C 295.183 368.400,295.748 368.850,296.161 369.400 C 296.574 369.950,297.123 370.400,297.381 370.400 C 297.639 370.400,298.368 370.940,299.000 371.600 C 299.632 372.260,300.346 372.800,300.587 372.800 C 300.827 372.800,301.283 373.160,301.600 373.600 C 301.917 374.040,302.511 374.400,302.920 374.400 C 303.328 374.400,304.354 375.120,305.200 376.000 C 306.046 376.880,306.951 377.600,307.212 377.600 C 307.765 377.600,311.189 381.209,311.196 381.800 C 311.201 382.193,312.368 383.736,313.982 385.486 C 314.432 385.973,314.800 386.648,314.800 386.986 C 314.800 387.324,314.980 387.600,315.200 387.600 C 315.420 387.600,315.600 388.050,315.600 388.600 C 315.600 389.150,315.420 389.600,315.200 389.600 C 314.980 389.600,314.800 390.320,314.800 391.200 C 314.800 392.080,314.620 392.800,314.400 392.800 C 314.147 392.800,314.000 395.667,314.000 400.600 C 314.000 405.533,314.147 408.400,314.400 408.400 C 314.635 408.400,314.800 409.800,314.800 411.800 C 314.800 413.800,314.965 415.200,315.200 415.200 C 315.422 415.200,315.600 416.267,315.600 417.600 C 315.600 418.933,315.778 420.000,316.000 420.000 C 316.226 420.000,316.400 421.133,316.400 422.600 C 316.400 424.067,316.574 425.200,316.800 425.200 C 317.022 425.200,317.200 426.267,317.200 427.600 C 317.200 428.933,317.378 430.000,317.600 430.000 C 317.831 430.000,318.000 431.267,318.000 433.000 C 318.000 434.733,318.169 436.000,318.400 436.000 C 318.641 436.000,318.800 437.667,318.800 440.200 C 318.800 442.733,318.959 444.400,319.200 444.400 C 319.737 444.400,319.737 455.068,319.200 455.400 C 318.980 455.536,318.800 456.897,318.800 458.424 C 318.800 460.008,318.628 461.200,318.400 461.200 C 318.180 461.200,318.000 462.190,318.000 463.400 C 318.000 464.610,317.820 465.600,317.600 465.600 C 317.380 465.600,317.200 466.500,317.200 467.600 C 317.200 468.700,317.020 469.600,316.800 469.600 C 316.580 469.600,316.400 470.320,316.400 471.200 C 316.400 472.080,316.220 472.800,316.000 472.800 C 315.780 472.800,315.600 473.340,315.600 474.000 C 315.600 474.660,315.420 475.200,315.200 475.200 C 314.980 475.200,314.800 475.920,314.800 476.800 C 314.800 477.680,314.620 478.400,314.400 478.400 C 314.180 478.400,314.000 479.191,314.000 480.157 C 314.000 481.350,313.807 481.988,313.400 482.145 C 313.070 482.271,312.800 482.831,312.800 483.387 C 312.800 483.944,312.620 484.400,312.400 484.400 C 312.180 484.400,312.000 484.929,312.000 485.576 C 312.000 486.223,311.820 486.864,311.600 487.000 C 311.380 487.136,311.200 487.894,311.200 488.683 C 311.200 489.885,310.873 490.434,309.200 492.037 C 307.444 493.721,307.200 494.153,307.200 495.577 C 307.200 496.470,307.020 497.200,306.800 497.200 C 306.578 497.200,306.400 498.267,306.400 499.600 C 306.400 500.933,306.222 502.000,306.000 502.000 C 305.752 502.000,305.600 504.122,305.600 507.566 L 305.600 513.131 306.993 514.566 C 307.759 515.355,308.659 516.000,308.993 516.000 C 309.327 516.000,309.600 516.180,309.600 516.400 C 309.600 516.620,310.129 516.800,310.776 516.800 C 311.423 516.800,312.064 516.980,312.200 517.200 C 312.527 517.728,319.600 517.728,319.600 517.200 C 319.600 516.980,320.500 516.800,321.600 516.800 C 322.700 516.800,323.600 516.620,323.600 516.400 C 323.600 516.165,325.000 516.000,327.000 516.000 C 330.338 516.000,330.400 516.018,330.400 516.976 C 330.400 517.513,330.580 518.064,330.800 518.200 C 331.020 518.336,331.200 518.797,331.200 519.224 C 331.200 519.651,331.380 520.000,331.600 520.000 C 331.820 520.000,332.000 520.276,332.000 520.613 C 332.000 520.949,332.259 521.324,332.575 521.446 C 332.891 521.567,333.063 521.892,332.957 522.169 C 332.850 522.446,333.042 522.903,333.382 523.185 C 333.722 523.467,334.000 523.996,334.000 524.361 C 334.000 524.725,334.360 525.283,334.800 525.600 C 335.240 525.917,335.600 526.399,335.600 526.671 C 335.600 527.353,341.549 533.317,342.900 533.988 C 343.505 534.289,344.000 534.685,344.000 534.868 C 344.000 535.050,344.358 535.200,344.797 535.200 C 345.235 535.200,345.818 535.560,346.093 536.000 C 346.368 536.440,346.909 536.800,347.296 536.800 C 347.683 536.800,348.000 536.980,348.000 537.200 C 348.000 537.420,348.529 537.600,349.176 537.600 C 349.823 537.600,350.464 537.780,350.600 538.000 C 350.736 538.220,351.207 538.400,351.647 538.400 C 352.087 538.400,352.336 538.580,352.200 538.800 C 352.049 539.044,352.663 539.200,353.776 539.200 C 354.779 539.200,355.600 539.380,355.600 539.600 C 355.600 539.822,356.667 540.000,358.000 540.000 C 359.333 540.000,360.400 540.178,360.400 540.400 C 360.400 540.635,361.800 540.800,363.800 540.800 C 365.800 540.800,367.200 540.635,367.200 540.400 C 367.200 540.171,368.400 540.000,370.000 540.000 C 371.600 540.000,372.800 539.829,372.800 539.600 C 372.800 539.380,373.329 539.200,373.976 539.200 C 374.623 539.200,375.264 539.020,375.400 538.800 C 375.536 538.580,376.076 538.400,376.600 538.400 C 377.124 538.400,377.664 538.220,377.800 538.000 C 377.936 537.780,378.397 537.600,378.824 537.600 C 379.251 537.600,379.600 537.420,379.600 537.200 C 379.600 536.980,379.960 536.800,380.400 536.800 C 380.840 536.800,381.200 536.620,381.200 536.400 C 381.200 536.180,381.442 536.000,381.738 536.000 C 382.034 536.000,382.602 535.640,383.000 535.200 C 383.398 534.760,383.984 534.400,384.302 534.400 C 384.619 534.400,385.644 533.590,386.580 532.600 C 387.515 531.610,388.577 530.800,388.940 530.800 C 389.303 530.800,389.600 530.531,389.600 530.202 C 389.600 529.873,390.500 528.685,391.600 527.561 C 392.700 526.438,393.600 525.267,393.600 524.959 C 393.600 524.652,393.780 524.400,394.000 524.400 C 394.220 524.400,394.400 524.117,394.400 523.771 C 394.400 523.426,394.680 522.863,395.023 522.520 C 395.366 522.177,395.551 521.650,395.436 521.348 C 395.316 521.037,395.479 520.800,395.813 520.800 C 396.136 520.800,396.400 520.440,396.400 520.000 C 396.400 519.560,396.547 519.200,396.728 519.200 C 396.908 519.200,397.304 518.289,397.607 517.175 C 397.910 516.061,398.303 515.060,398.479 514.951 C 398.656 514.842,398.800 513.863,398.800 512.776 C 398.800 511.689,398.980 510.800,399.200 510.800 C 399.448 510.800,399.600 508.667,399.600 505.200 C 399.600 501.733,399.448 499.600,399.200 499.600 C 398.980 499.600,398.800 498.730,398.800 497.667 C 398.800 496.603,398.677 495.610,398.526 495.459 C 398.082 495.015,397.213 492.276,397.206 491.300 C 397.203 490.805,397.020 490.400,396.800 490.400 C 396.580 490.400,396.400 490.124,396.400 489.787 C 396.400 489.451,396.141 489.076,395.825 488.954 C 395.509 488.833,395.341 488.499,395.451 488.211 C 395.561 487.923,395.190 487.226,394.626 486.662 C 394.062 486.098,393.600 485.475,393.600 485.278 C 393.600 485.080,393.060 484.354,392.400 483.663 C 391.740 482.972,391.200 482.230,391.200 482.013 C 391.200 481.373,387.420 477.600,386.779 477.600 C 386.456 477.600,385.745 477.060,385.200 476.400 C 384.655 475.740,383.979 475.200,383.699 475.200 C 383.012 475.200,381.556 474.358,380.757 473.500 C 380.399 473.115,379.728 472.800,379.265 472.800 C 378.803 472.800,377.783 472.440,377.000 472.000 C 376.217 471.560,375.131 471.200,374.588 471.200 C 374.045 471.200,373.600 471.020,373.600 470.800 C 373.600 470.580,372.700 470.400,371.600 470.400 C 370.500 470.400,369.600 470.220,369.600 470.000 C 369.600 469.753,367.533 469.600,364.200 469.600 C 360.867 469.600,358.800 469.753,358.800 470.000 C 358.800 470.220,357.900 470.400,356.800 470.400 C 355.700 470.400,354.800 470.580,354.800 470.800 C 354.800 471.020,354.159 471.200,353.376 471.200 C 352.529 471.200,352.053 471.362,352.200 471.600 C 352.347 471.838,351.871 472.000,351.024 472.000 C 350.241 472.000,349.600 472.180,349.600 472.400 C 349.600 472.620,349.240 472.800,348.800 472.800 C 348.360 472.800,348.000 472.980,348.000 473.200 C 348.000 473.420,347.640 473.600,347.200 473.600 C 346.760 473.600,346.400 473.780,346.400 474.000 C 346.400 474.220,346.106 474.400,345.747 474.400 C 345.388 474.400,344.803 474.730,344.447 475.133 C 344.091 475.536,343.395 475.969,342.900 476.096 L 342.000 476.325 342.000 468.939 C 342.000 464.117,342.139 461.639,342.400 461.800 C 342.656 461.958,342.800 460.679,342.800 458.247 C 342.800 456.145,342.979 454.337,343.200 454.200 C 343.420 454.064,343.600 452.703,343.600 451.176 C 343.600 449.592,343.772 448.400,344.000 448.400 C 344.220 448.400,344.400 447.519,344.400 446.443 C 344.400 445.020,344.574 444.419,345.038 444.241 C 345.533 444.051,345.646 443.546,345.538 441.998 C 345.441 440.592,345.548 440.000,345.900 440.000 C 346.233 440.000,346.400 439.338,346.400 438.024 C 346.400 436.937,346.580 435.936,346.800 435.800 C 347.020 435.664,347.200 434.764,347.200 433.800 C 347.200 432.836,347.380 431.936,347.600 431.800 C 347.820 431.664,348.000 430.854,348.000 430.000 C 348.000 429.146,348.180 428.336,348.400 428.200 C 348.620 428.064,348.800 427.153,348.800 426.176 C 348.800 425.199,348.980 424.400,349.200 424.400 C 349.420 424.400,349.600 423.590,349.600 422.600 C 349.600 421.610,349.780 420.800,350.000 420.800 C 350.220 420.800,350.400 420.080,350.400 419.200 C 350.400 418.320,350.580 417.600,350.800 417.600 C 351.020 417.600,351.200 416.880,351.200 416.000 C 351.200 415.120,351.380 414.400,351.600 414.400 C 351.820 414.400,352.000 413.511,352.000 412.424 C 352.000 411.337,352.180 410.336,352.400 410.200 C 352.620 410.064,352.800 409.243,352.800 408.376 C 352.800 407.509,352.980 406.800,353.200 406.800 C 353.420 406.800,353.600 405.900,353.600 404.800 C 353.600 403.700,353.780 402.800,354.000 402.800 C 354.220 402.800,354.400 401.887,354.400 400.771 C 354.400 399.502,354.624 398.518,355.000 398.143 C 355.394 397.749,355.600 396.755,355.600 395.251 C 355.600 393.991,355.786 392.774,356.014 392.546 C 357.002 391.558,356.008 368.132,354.961 367.730 C 354.653 367.611,354.400 366.994,354.400 366.357 C 354.400 365.721,354.220 365.200,354.000 365.200 C 353.780 365.200,353.600 364.761,353.600 364.224 C 353.600 363.687,353.420 363.136,353.200 363.000 C 352.980 362.864,352.800 362.403,352.800 361.976 C 352.800 361.549,352.620 361.200,352.400 361.200 C 352.180 361.200,352.000 360.880,352.000 360.488 C 352.000 360.097,351.640 359.517,351.200 359.200 C 350.760 358.883,350.400 358.303,350.400 357.912 C 350.400 357.520,350.220 357.200,350.000 357.200 C 349.780 357.200,349.600 356.930,349.600 356.600 C 349.600 356.270,349.420 356.000,349.200 356.000 C 348.980 356.000,348.800 355.758,348.800 355.462 C 348.800 355.166,348.440 354.598,348.000 354.200 C 347.560 353.802,347.200 353.228,347.200 352.925 C 347.200 352.623,346.937 352.274,346.615 352.150 C 346.294 352.027,345.919 351.574,345.782 351.143 C 345.645 350.712,344.918 349.745,344.167 348.993 C 343.415 348.242,342.800 347.231,342.800 346.747 C 342.800 346.263,342.689 345.978,342.552 346.114 C 342.171 346.495,341.200 345.348,341.200 344.517 C 341.200 344.110,340.840 343.517,340.400 343.200 C 339.960 342.883,339.600 342.382,339.600 342.086 C 339.600 341.790,339.060 341.094,338.400 340.539 C 337.740 339.983,337.200 339.215,337.200 338.832 C 337.200 338.449,336.750 337.894,336.200 337.600 C 335.650 337.306,335.200 336.825,335.200 336.532 C 335.200 336.240,335.020 336.000,334.800 336.000 C 334.580 336.000,334.400 335.683,334.400 335.296 C 334.400 334.909,334.040 334.368,333.600 334.093 C 333.160 333.818,332.800 333.307,332.800 332.957 C 332.800 332.607,332.260 331.817,331.600 331.200 C 330.940 330.583,330.400 329.880,330.400 329.636 C 330.400 329.392,329.860 328.628,329.200 327.937 C 328.540 327.246,328.000 326.505,328.000 326.289 C 328.000 326.073,327.361 325.155,326.580 324.248 C 325.799 323.342,324.982 322.375,324.764 322.100 C 324.484 321.747,324.667 321.277,325.384 320.504 C 326.377 319.433,326.754 318.000,326.043 318.000 C 325.847 318.000,325.574 317.550,325.436 317.000 C 325.298 316.450,325.008 316.000,324.792 316.000 C 324.577 316.000,324.400 315.640,324.400 315.200 C 324.400 314.760,324.220 314.400,324.000 314.400 C 323.780 314.400,323.600 314.164,323.600 313.875 C 323.600 313.587,323.240 312.964,322.800 312.492 C 322.360 312.020,322.000 311.432,322.000 311.186 C 322.000 310.638,293.340 282.000,292.792 282.000 C 292.577 282.000,291.659 281.280,290.752 280.400 C 289.845 279.520,288.895 278.800,288.640 278.800 C 288.385 278.800,287.914 278.435,287.592 277.989 C 287.152 277.379,286.735 277.239,285.904 277.421 C 284.979 277.624,284.800 277.531,284.800 276.845 C 284.800 276.354,283.479 274.702,281.496 272.713 C 278.058 269.265,277.611 268.587,276.807 265.600 C 276.540 264.610,276.145 263.464,275.928 263.053 C 275.662 262.548,275.675 262.165,275.967 261.873 C 276.224 261.616,276.400 259.685,276.400 257.120 C 276.400 254.507,276.558 252.800,276.800 252.800 C 277.046 252.800,277.200 250.827,277.200 247.680 C 277.200 241.609,278.376 238.497,279.800 240.800 C 279.936 241.020,280.656 241.200,281.400 241.200 C 282.144 241.200,282.864 241.380,283.000 241.600 C 283.136 241.820,283.957 242.000,284.824 242.000 C 285.691 242.000,286.400 242.180,286.400 242.400 C 286.400 242.620,286.940 242.800,287.600 242.800 C 288.260 242.800,288.800 242.980,288.800 243.200 C 288.800 243.420,289.509 243.600,290.376 243.600 C 291.243 243.600,292.064 243.780,292.200 244.000 C 292.336 244.220,292.977 244.400,293.624 244.400 C 294.271 244.400,294.800 244.580,294.800 244.800 C 294.800 245.020,295.340 245.200,296.000 245.200 C 296.660 245.200,297.200 245.380,297.200 245.600 C 297.200 245.820,297.740 246.000,298.400 246.000 C 299.060 246.000,299.600 246.180,299.600 246.400 C 299.600 246.620,300.140 246.800,300.800 246.800 C 301.460 246.800,302.000 246.980,302.000 247.200 C 302.000 247.420,302.630 247.600,303.400 247.600 C 304.300 247.600,304.800 247.790,304.800 248.133 C 304.800 248.427,305.025 248.687,305.300 248.712 C 306.275 248.800,308.800 249.800,308.800 250.098 C 308.800 250.264,309.149 250.400,309.576 250.400 C 310.003 250.400,310.464 250.580,310.600 250.800 C 310.736 251.020,311.276 251.200,311.800 251.200 C 312.324 251.200,312.864 251.380,313.000 251.600 C 313.136 251.820,313.597 252.000,314.024 252.000 C 314.451 252.000,314.800 252.180,314.800 252.400 C 314.800 252.620,315.340 252.800,316.000 252.800 C 316.660 252.800,317.200 252.980,317.200 253.200 C 317.200 253.420,317.479 253.600,317.819 253.600 C 318.736 253.600,322.000 256.982,322.000 257.932 C 322.000 258.384,322.180 258.864,322.400 259.000 C 322.620 259.136,322.800 259.782,322.800 260.436 C 322.800 261.124,323.053 261.722,323.400 261.855 C 323.730 261.982,324.000 262.426,324.000 262.843 C 324.000 263.259,324.180 263.600,324.400 263.600 C 324.620 263.600,324.800 263.960,324.800 264.400 C 324.800 264.840,324.980 265.200,325.200 265.200 C 325.420 265.200,325.600 265.560,325.600 266.000 C 325.600 266.440,325.780 266.800,326.000 266.800 C 326.220 266.800,326.400 267.340,326.400 268.000 C 326.400 268.660,326.580 269.200,326.800 269.200 C 327.020 269.200,327.200 269.560,327.200 270.000 C 327.200 270.440,327.380 270.800,327.600 270.800 C 327.820 270.800,328.000 271.430,328.000 272.200 C 328.000 272.970,328.180 273.600,328.400 273.600 C 328.620 273.600,328.800 273.960,328.800 274.400 C 328.800 274.840,328.980 275.200,329.200 275.200 C 329.420 275.200,329.600 275.740,329.600 276.400 C 329.600 277.060,329.750 277.600,329.932 277.600 C 330.115 277.600,330.512 278.095,330.815 278.700 C 331.662 280.392,332.452 281.200,333.262 281.200 C 333.668 281.200,334.000 281.380,334.000 281.600 C 334.000 281.820,334.266 282.000,334.591 282.000 C 335.297 282.000,336.567 280.194,336.237 279.660 C 336.109 279.453,336.274 279.181,336.602 279.054 C 337.083 278.870,337.202 277.941,337.209 274.313 L 337.219 269.800 338.596 268.271 L 339.973 266.742 341.086 267.775 C 341.699 268.344,342.402 268.731,342.649 268.636 C 342.897 268.541,343.332 268.899,343.617 269.432 C 343.902 269.964,344.425 270.400,344.779 270.400 C 345.438 270.400,349.298 274.237,349.705 275.296 C 350.041 276.172,348.579 277.200,346.995 277.200 C 346.228 277.200,345.600 277.380,345.600 277.600 C 345.600 277.820,345.240 278.000,344.800 278.000 C 344.360 278.000,344.000 278.180,344.000 278.400 C 344.000 278.620,343.550 278.800,343.000 278.800 C 342.277 278.800,342.000 279.015,342.000 279.576 C 342.000 280.003,341.820 280.464,341.600 280.600 C 340.366 281.363,341.750 284.400,343.331 284.400 C 343.699 284.400,344.000 284.580,344.000 284.800 C 344.000 285.020,344.900 285.200,346.000 285.200 C 347.511 285.200,348.000 285.347,348.000 285.800 C 348.000 286.130,347.820 286.400,347.600 286.400 C 347.380 286.400,347.200 287.120,347.200 288.000 C 347.200 288.880,347.020 289.600,346.800 289.600 C 346.177 289.600,346.322 293.180,346.971 293.829 C 347.632 294.490,348.400 294.582,348.400 294.000 C 348.400 293.780,348.748 293.600,349.174 293.600 C 350.180 293.600,354.400 289.380,354.400 288.374 C 354.400 287.940,354.674 287.600,355.024 287.600 C 355.367 287.600,355.536 287.420,355.400 287.200 C 355.264 286.980,355.316 286.800,355.516 286.800 C 355.715 286.800,356.201 286.085,356.595 285.212 C 357.823 282.487,358.800 281.913,358.800 283.914 C 358.800 284.816,358.980 285.664,359.200 285.800 C 359.420 285.936,359.600 286.397,359.600 286.824 C 359.600 287.251,359.767 287.600,359.972 287.600 C 360.177 287.600,360.402 288.005,360.472 288.500 C 360.566 289.159,360.868 289.400,361.600 289.400 L 362.600 289.400 362.707 279.500 C 362.773 273.357,362.963 269.600,363.207 269.600 C 363.424 269.600,363.600 268.436,363.600 267.000 C 363.600 265.533,363.426 264.400,363.200 264.400 C 362.980 264.400,362.800 263.961,362.800 263.424 C 362.800 262.887,362.620 262.336,362.400 262.200 C 362.180 262.064,362.000 261.689,362.000 261.366 C 362.000 260.747,355.736 254.400,355.124 254.400 C 354.927 254.400,354.380 254.040,353.908 253.600 C 353.436 253.160,352.813 252.800,352.525 252.800 C 352.236 252.800,352.000 252.620,352.000 252.400 C 352.000 252.180,351.680 252.000,351.288 252.000 C 350.897 252.000,350.317 251.640,350.000 251.200 C 349.683 250.760,349.199 250.400,348.924 250.400 C 348.649 250.400,347.783 250.040,347.000 249.600 C 346.217 249.160,345.131 248.800,344.588 248.800 C 344.045 248.800,343.600 248.620,343.600 248.400 C 343.600 248.180,343.240 248.000,342.800 248.000 C 342.360 248.000,342.000 247.820,342.000 247.600 C 342.000 247.380,341.537 247.200,340.971 247.200 C 340.406 247.200,339.657 246.914,339.307 246.564 C 338.899 246.156,338.195 245.983,337.347 246.082 C 336.511 246.180,335.950 246.046,335.824 245.718 C 335.715 245.433,335.169 245.200,334.613 245.200 C 334.056 245.200,333.600 245.033,333.600 244.829 C 333.600 244.625,332.880 244.140,332.000 243.752 C 331.120 243.364,330.400 242.888,330.400 242.694 C 330.400 242.325,329.395 241.200,329.065 241.200 C 328.633 241.200,325.271 237.662,325.493 237.440 C 325.625 237.308,325.293 237.200,324.755 237.200 C 324.217 237.200,323.512 236.827,323.188 236.370 C 322.865 235.914,321.864 235.203,320.965 234.790 C 320.066 234.377,319.099 233.761,318.816 233.420 C 318.534 233.079,318.054 232.800,317.751 232.800 C 317.448 232.800,317.200 232.620,317.200 232.400 C 317.200 232.180,316.930 232.000,316.600 232.000 C 316.270 232.000,316.000 231.820,316.000 231.600 C 316.000 231.380,315.716 231.200,315.369 231.200 C 315.021 231.200,314.046 230.480,313.200 229.600 C 312.354 228.720,311.445 228.000,311.178 228.000 C 310.912 228.000,310.403 227.667,310.047 227.259 C 309.222 226.315,306.884 225.101,306.430 225.381 C 306.240 225.499,305.981 225.326,305.854 224.998 C 305.728 224.669,305.349 224.400,305.013 224.400 C 304.676 224.400,304.400 224.220,304.400 224.000 C 304.400 223.780,304.166 223.600,303.880 223.600 C 303.144 223.600,301.207 222.659,301.203 222.300 C 301.201 222.135,300.840 222.000,300.400 222.000 C 299.960 222.000,299.600 221.820,299.600 221.600 C 299.600 221.380,299.330 221.200,299.000 221.200 C 298.670 221.200,298.400 221.020,298.400 220.800 C 298.400 220.580,298.158 220.400,297.862 220.400 C 297.566 220.400,296.998 220.040,296.600 219.600 C 296.202 219.160,295.584 218.800,295.226 218.800 C 294.869 218.800,294.317 218.440,294.000 218.000 C 293.683 217.560,293.201 217.200,292.930 217.200 C 292.658 217.200,292.001 216.795,291.469 216.300 C 289.769 214.718,287.498 213.017,286.332 212.450 C 285.709 212.148,285.200 211.743,285.200 211.550 C 285.200 211.358,284.916 211.200,284.569 211.200 C 284.221 211.200,283.246 210.480,282.400 209.600 C 281.554 208.720,280.615 208.000,280.311 208.000 C 279.367 208.000,278.800 207.099,278.800 205.600 C 278.800 204.808,278.629 203.989,278.420 203.780 C 278.210 203.570,277.965 200.429,277.874 196.800 C 277.783 193.170,277.574 189.615,277.409 188.900 C 277.209 188.032,277.257 187.600,277.555 187.600 C 277.800 187.600,278.000 187.071,278.000 186.424 C 278.000 185.777,278.180 185.136,278.400 185.000 C 278.620 184.864,278.800 184.313,278.800 183.776 C 278.800 183.239,278.980 182.800,279.200 182.800 C 279.420 182.800,279.600 182.091,279.600 181.224 C 279.600 180.357,279.780 179.536,280.000 179.400 C 280.220 179.264,280.400 178.443,280.400 177.576 C 280.400 176.709,280.580 176.000,280.800 176.000 C 281.035 176.000,281.200 174.600,281.200 172.600 C 281.200 170.600,281.365 169.200,281.600 169.200 C 281.831 169.200,282.000 167.941,282.000 166.224 C 282.000 164.587,281.820 163.136,281.600 163.000 C 281.380 162.864,281.200 161.683,281.200 160.376 C 281.200 159.059,281.022 158.000,280.800 158.000 C 280.580 158.000,280.400 157.280,280.400 156.400 C 280.400 155.520,280.220 154.800,280.000 154.800 C 279.780 154.800,279.600 154.536,279.600 154.214 C 279.600 153.247,276.271 147.609,275.498 147.266 C 275.331 147.192,275.297 146.967,275.421 146.766 C 275.545 146.565,275.367 146.400,275.024 146.400 C 274.681 146.400,274.400 146.142,274.400 145.827 C 274.400 145.512,274.040 145.140,273.600 145.000 C 273.160 144.860,272.800 144.458,272.800 144.106 C 272.800 143.755,272.691 143.576,272.558 143.709 C 272.314 143.953,270.400 142.250,270.400 141.790 C 270.400 141.462,269.328 140.400,268.997 140.400 C 268.402 140.400,265.600 137.074,265.600 136.367 C 265.600 135.945,265.330 135.600,265.000 135.600 C 264.670 135.600,264.400 135.412,264.400 135.182 C 264.400 134.952,263.950 134.314,263.400 133.764 C 262.850 133.214,262.400 132.896,262.400 133.058 C 262.400 133.591,261.226 131.813,261.213 131.260 C 261.206 130.964,260.660 130.217,260.000 129.600 C 259.340 128.983,258.799 128.326,258.798 128.140 C 258.797 127.953,258.257 127.225,257.598 126.522 C 256.939 125.819,256.400 125.097,256.400 124.918 C 256.400 124.738,255.950 124.107,255.400 123.513 C 254.850 122.920,254.400 122.157,254.400 121.817 C 254.400 121.478,254.220 121.200,254.000 121.200 C 253.757 121.200,253.600 119.400,253.600 116.600 C 253.600 113.800,253.757 112.000,254.000 112.000 C 254.220 112.000,254.400 111.732,254.400 111.405 C 254.400 110.505,257.273 108.023,258.329 108.011 C 259.360 107.999,259.935 108.486,260.744 110.056 C 261.043 110.637,261.718 111.342,262.244 111.624 C 262.770 111.905,263.200 112.285,263.200 112.468 C 263.200 112.650,263.520 112.800,263.912 112.800 C 264.303 112.800,264.883 113.160,265.200 113.600 C 265.517 114.040,266.097 114.400,266.488 114.400 C 266.880 114.400,267.200 114.580,267.200 114.800 C 267.200 115.020,267.560 115.200,268.000 115.200 C 268.440 115.200,268.800 115.380,268.800 115.600 C 268.800 115.829,270.000 116.000,271.600 116.000 C 273.200 116.000,274.400 115.829,274.400 115.600 C 274.400 115.380,274.760 115.200,275.200 115.200 C 275.640 115.200,276.000 115.020,276.000 114.800 C 276.000 114.580,276.300 114.400,276.667 114.400 C 277.033 114.400,277.221 114.287,277.083 114.149 C 276.945 114.011,277.095 113.390,277.416 112.769 C 277.737 112.148,278.000 111.181,278.000 110.620 C 278.000 109.697,278.152 109.600,279.600 109.600 C 280.480 109.600,281.200 109.780,281.200 110.000 C 281.200 110.686,282.153 110.416,283.300 109.407 C 284.048 108.749,284.400 108.048,284.400 107.219 C 284.400 106.092,284.506 106.000,285.800 106.000 C 286.570 106.000,287.200 105.820,287.200 105.600 C 287.200 105.380,287.560 105.200,288.000 105.200 C 288.693 105.200,288.800 104.933,288.800 103.200 L 288.800 101.200 291.000 101.200 C 292.210 101.200,293.200 101.380,293.200 101.600 C 293.200 101.820,293.650 102.000,294.200 102.000 C 294.750 102.000,295.200 101.820,295.200 101.600 C 295.200 101.380,295.650 101.200,296.200 101.200 C 297.040 101.200,297.200 101.012,297.200 100.024 C 297.200 99.377,297.380 98.736,297.600 98.600 C 297.843 98.450,298.000 95.527,298.000 91.171 C 298.000 86.146,298.150 83.733,298.500 83.137 C 299.356 81.679,302.949 78.000,303.517 78.000 C 304.162 78.000,305.200 77.031,305.200 76.429 C 305.200 76.193,305.470 76.000,305.800 76.000 C 306.133 76.000,306.400 75.644,306.400 75.200 C 306.400 74.760,306.580 74.400,306.800 74.400 C 307.020 74.400,307.200 73.867,307.200 73.216 C 307.200 72.564,307.528 71.709,307.929 71.316 C 308.330 70.922,308.960 69.943,309.329 69.140 C 309.697 68.338,310.629 67.051,311.400 66.280 C 312.170 65.510,312.800 64.632,312.800 64.328 C 312.800 64.025,313.160 63.517,313.600 63.200 C 314.040 62.883,314.400 62.200,314.400 61.683 C 314.400 61.166,314.670 60.473,315.000 60.143 C 315.453 59.690,315.600 58.567,315.600 55.559 C 315.600 52.387,315.478 51.528,315.000 51.345 C 314.658 51.213,314.400 50.617,314.400 49.957 C 314.400 49.321,314.220 48.800,314.000 48.800 C 313.780 48.800,313.600 48.440,313.600 48.000 C 313.600 47.560,313.420 47.200,313.200 47.200 C 312.980 47.200,312.800 46.840,312.800 46.400 C 312.800 45.960,312.620 45.600,312.400 45.600 C 312.180 45.600,312.000 45.242,312.000 44.803 C 312.000 44.365,311.640 43.782,311.200 43.507 C 310.760 43.232,310.400 42.729,310.400 42.389 C 310.400 41.698,306.815 38.000,306.146 38.000 C 305.911 38.000,305.154 37.460,304.463 36.800 C 303.772 36.140,303.002 35.600,302.751 35.600 C 302.499 35.600,302.003 35.266,301.647 34.857 C 301.291 34.449,300.261 33.739,299.358 33.279 C 298.455 32.819,297.195 31.801,296.558 31.016 C 293.382 27.102,287.768 22.000,286.637 22.000 C 286.287 22.000,286.000 21.820,286.000 21.600 C 286.000 21.380,285.640 21.200,285.200 21.200 C 284.760 21.200,284.400 21.020,284.400 20.800 C 284.400 20.580,284.051 20.400,283.624 20.400 C 283.197 20.400,282.736 20.220,282.600 20.000 C 282.464 19.780,281.913 19.600,281.376 19.600 C 280.839 19.600,280.400 19.420,280.400 19.200 C 280.400 18.980,279.410 18.800,278.200 18.800 C 276.990 18.800,276.000 18.620,276.000 18.400 C 276.000 18.148,273.341 18.000,268.824 18.000 C 264.471 18.000,261.550 18.157,261.400 18.400 C 261.070 18.934,252.000 18.934,252.000 18.400 C 252.000 18.180,251.640 18.000,251.200 18.000 C 250.760 18.000,250.400 17.820,250.400 17.600 C 250.400 17.380,250.062 17.200,249.648 17.200 C 249.235 17.200,248.265 16.480,247.494 15.600 C 246.722 14.720,245.891 14.000,245.646 14.000 C 245.401 14.000,245.200 13.730,245.200 13.400 C 245.200 13.070,245.020 12.800,244.800 12.800 C 244.580 12.800,244.400 12.459,244.400 12.043 C 244.400 11.626,244.144 11.187,243.830 11.067 C 243.517 10.947,242.956 10.207,242.585 9.424 C 242.213 8.641,241.749 8.000,241.554 8.000 C 241.359 8.000,241.200 7.722,241.200 7.382 C 241.200 6.688,239.461 4.800,238.823 4.800 C 238.368 4.800,237.040 3.793,236.054 2.700 C 235.706 2.315,235.192 2.000,234.911 2.000 C 234.630 2.000,234.400 1.820,234.400 1.600 C 234.400 1.380,233.871 1.200,233.224 1.200 C 232.577 1.200,231.936 1.020,231.800 0.800 C 231.663 0.579,229.863 0.400,227.776 0.400 C 225.525 0.400,224.000 0.562,224.000 0.800 " stroke="none" fill="#646464" fill-rule="evenodd"></path><path id="path1" d="M179.600 36.429 C 179.600 37.002,179.815 37.217,180.295 37.125 C 181.338 36.924,181.454 35.600,180.429 35.600 C 179.857 35.600,179.600 35.857,179.600 36.429 M285.044 276.571 C 285.328 277.310,286.545 277.435,286.300 276.700 C 286.209 276.425,285.834 276.142,285.468 276.071 C 285.004 275.981,284.876 276.132,285.044 276.571 M249.600 336.400 C 249.600 336.620,249.870 336.800,250.200 336.800 C 250.530 336.800,250.800 336.620,250.800 336.400 C 250.800 336.180,250.530 336.000,250.200 336.000 C 249.870 336.000,249.600 336.180,249.600 336.400 " stroke="none" fill="#444444" fill-rule="evenodd"></path><path id="path2" d="" stroke="none" fill="#5c6854" fill-rule="evenodd"></path><path id="path3" d="" stroke="none" fill="#5c6854" fill-rule="evenodd"></path><path id="path4" d="" stroke="none" fill="#5c6854" fill-rule="evenodd"></path></g></svg>