<svg width="353" height="253" viewBox="0 0 353 253" fill="#616161" xmlns="http://www.w3.org/2000/svg">
<rect width="353" height="253" fill="transparent"/>
<path d="M30.2236 0C22.1327 0 15.1324 2.80234 9.22282 8.40702C3.37608 14.3317 0.302597 21.4127 0.00235353 29.6502C-0.0917656 38.0174 2.63703 45.2824 8.18873 51.4453C13.8821 57.4019 20.8223 60.5565 29.0093 60.9089C29.1214 60.91 29.2333 60.9105 29.345 60.9105C37.3986 60.9105 44.377 58.1243 50.2804 52.5519C56.1404 46.6787 59.2305 39.5638 59.5509 31.2073C59.6309 22.8397 56.8888 15.5788 51.3246 9.42477C45.6184 3.47764 38.6712 0.336427 30.4829 0.00113762L30.4705 0.000853212C30.3881 0.000287148 30.3058 0 30.2236 0ZM54.2084 62.5327C53.0789 62.5609 52.0872 62.73 51.5638 63.0117C51.123 63.2653 50.5996 63.6598 50.4067 63.9133C49.9384 64.5332 49.9935 67.2381 50.4894 68.5906C50.7373 69.2105 50.9852 70.1403 51.0679 70.6193C51.1505 71.1265 51.3158 71.5491 51.4536 71.5491C51.5913 71.5491 51.7015 71.8028 51.7015 72.1127C51.7015 72.4226 51.8392 72.6762 51.977 72.6762C52.1423 72.6762 52.2525 72.9298 52.2525 73.2398C52.2525 73.5497 52.3902 73.8033 52.5279 73.8033C52.6932 73.8033 52.8034 74.0568 52.8034 74.3668C52.8034 74.6767 52.9412 74.9303 53.0789 74.9303C53.2442 74.9303 53.3544 75.1276 53.3544 75.3529C53.3544 75.5784 53.4921 75.7756 53.6299 75.7756C53.7952 75.7756 53.9054 75.9447 53.9054 76.1701C53.9054 76.3955 54.0155 76.6209 54.1257 76.6772C54.2359 76.7054 55.0899 77.8325 55.9715 79.1567C58.6436 83.0733 59.8558 84.1158 64.6216 86.7081C66.3296 87.6661 68.0651 88.7931 68.4508 89.2157C69.3048 90.1456 70.1588 91.7517 70.1588 92.4561C70.1588 92.7378 70.2965 92.9632 70.4343 92.9632C70.5996 92.9632 70.7098 93.2168 70.7098 93.5267C70.7098 93.8367 70.8475 94.0903 70.9852 94.0903C71.1505 94.0903 71.2607 94.3439 71.2607 94.6538C71.2607 94.9638 71.3985 95.2174 71.5362 95.2174C71.7015 95.2174 71.8117 95.4709 71.8117 95.7809C71.8117 96.0908 71.9494 96.3444 72.0872 96.3444C72.2525 96.3444 72.3627 96.598 72.3627 96.9079C72.3627 97.246 72.6657 97.8377 73.0514 98.2604C73.437 98.6831 73.7401 99.1057 73.7401 99.2466C73.7401 99.5283 76.55 103.783 76.8255 103.896C76.9632 103.952 77.0459 104.149 77.0459 104.346C77.0459 104.516 77.3213 104.854 77.6244 105.079C77.9549 105.304 78.3957 105.671 78.5886 105.868C78.7814 106.065 79.5252 106.488 80.2415 106.798C80.8721 107.088 81.4346 107.235 81.9565 107.235C82.8023 107.235 83.5414 106.849 84.291 106.065C84.8695 105.445 85.5031 105.079 85.9164 105.079C86.7428 105.079 88.2029 104.628 89.2222 104.065C89.5763 103.864 89.9867 103.763 90.4032 103.763C90.5697 103.763 90.7373 103.779 90.9026 103.811C91.1007 103.852 91.2655 103.876 91.4153 103.876C91.8906 103.876 92.2147 103.631 92.9687 102.881C93.7401 102.121 94.1257 101.501 94.1257 101.022C94.1257 100.388 94.401 100.125 95.2982 100.125C95.6382 100.125 96.0676 100.163 96.6051 100.233C96.9501 100.28 97.3478 100.302 97.7323 100.302C98.2689 100.302 98.7795 100.258 99.0844 100.176C99.3116 100.118 99.5531 100.087 99.8448 100.087C100.544 100.087 101.531 100.266 103.299 100.684C106.467 101.444 113.134 103.558 116.164 104.797C116.991 105.135 118.809 105.84 120.214 106.347C123.52 107.615 126.55 109.108 127.597 109.982C128.065 110.376 128.561 110.827 128.726 110.968C129.36 111.503 131.894 112.715 133.85 113.363C138.451 114.941 142.721 115.533 153.63 116.096C157.872 116.293 160.049 116.519 160.572 116.8C160.985 117.026 161.454 117.195 161.619 117.195C161.757 117.195 162.473 117.477 163.134 117.787C163.807 118.108 164.389 118.261 164.88 118.261C164.991 118.261 165.098 118.253 165.2 118.237C165.362 118.196 165.524 118.178 165.668 118.178C165.916 118.178 166.112 118.233 166.164 118.322C166.247 118.491 166.578 118.604 166.881 118.604C167.156 118.604 167.404 118.688 167.404 118.829C167.404 119.055 170.93 120.914 173.685 122.126C174.622 122.548 175.393 122.999 175.393 123.14C175.393 123.253 175.751 123.422 176.192 123.535C176.633 123.619 177.156 123.901 177.349 124.126C177.514 124.352 177.817 124.521 178.01 124.521C178.175 124.521 178.616 124.774 178.974 125.084C179.332 125.394 179.828 125.648 180.104 125.648C180.352 125.648 180.627 125.761 180.682 125.901C180.737 126.042 181.233 126.38 181.784 126.662C185.255 128.466 186.412 129.198 186.412 129.593C186.412 130.043 185.779 130.438 182.969 131.706C182.06 132.1 181.261 132.523 181.178 132.636C181.095 132.777 180.434 133.227 179.69 133.65C178.974 134.073 177.707 135.059 176.881 135.82C176.054 136.58 175.255 137.2 175.117 137.2C174.952 137.2 174.842 137.397 174.842 137.623C174.842 137.848 174.732 138.046 174.567 138.046C174.429 138.046 174.291 138.299 174.291 138.609C174.291 138.919 174.181 139.173 174.016 139.173C173.878 139.173 173.74 139.426 173.74 139.764C173.74 140.02 173.665 140.18 173.545 140.18C173.52 140.18 173.493 140.173 173.465 140.159C173.438 140.14 173.413 140.132 173.389 140.132C173.266 140.132 173.189 140.364 173.189 140.694C173.189 141.089 173.079 141.427 172.914 141.427C172.776 141.427 172.638 141.737 172.638 142.103C172.638 142.497 172.528 142.892 172.363 142.976C172.225 143.061 172.087 143.343 172.087 143.568C172.087 143.822 171.922 144.188 171.701 144.413C171.481 144.639 171.206 145.428 171.123 146.16C170.903 147.625 170.076 149.654 169.443 150.161C169.25 150.359 169.057 150.697 169.057 150.894C169.057 151.119 168.947 151.288 168.781 151.288C168.644 151.288 168.506 151.486 168.506 151.711C168.506 151.936 168.396 152.134 168.23 152.134C168.093 152.134 167.955 152.387 167.955 152.697C167.955 153.007 167.845 153.261 167.679 153.261C167.542 153.261 167.404 153.458 167.404 153.683C167.404 153.909 167.294 154.106 167.128 154.106C166.991 154.106 166.853 154.303 166.853 154.529C166.853 154.754 166.743 154.951 166.578 154.951C166.44 154.951 166.302 155.177 166.302 155.43C166.302 155.712 166.054 156.247 165.751 156.642C165.448 157.036 165.2 157.459 165.2 157.628C165.2 157.769 164.925 158.22 164.622 158.586C164.293 159.015 164.122 159.16 163.492 159.16C163.171 159.16 162.73 159.122 162.087 159.065C161.013 158.952 158.423 158.699 156.385 158.502C154.126 158.276 151.757 157.854 150.324 157.403C149.029 157.008 147.542 156.614 147.018 156.501C146.803 156.459 146.452 156.44 146.011 156.44C143.797 156.44 139.315 156.914 138.396 157.29C137.9 157.515 137.073 157.769 136.55 157.882C135.393 158.107 134.374 158.981 133.409 160.558C131.701 163.292 133.299 167.603 136.66 169.378C137.239 169.688 138.478 170.477 139.415 171.125C141.949 172.956 143.134 173.491 145.971 174.083C148.368 174.59 152.528 175.041 154.732 175.041C155.255 175.013 160.049 174.957 165.338 174.9C174.677 174.759 175.035 174.731 176.192 174.111C176.881 173.773 177.597 173.294 177.817 173.097C178.01 172.872 178.313 172.703 178.451 172.703C178.589 172.703 178.699 172.533 178.699 172.308C178.699 172.111 178.892 171.547 179.112 171.125C179.332 170.674 179.525 170.11 179.525 169.885C179.525 169.575 180.352 169.293 182.776 168.814C188.368 167.687 189.911 166.955 192.611 164.137C193.685 163.038 194.787 161.657 195.035 161.066C195.358 160.389 195.621 160.073 196.102 160.073C196.483 160.073 196.999 160.27 197.79 160.643L199.084 161.291V163.602C199.084 164.982 199.195 165.94 199.36 165.94C199.525 165.94 199.635 166.25 199.635 166.645C199.635 167.039 199.773 167.349 199.911 167.349C200.076 167.349 200.186 167.603 200.186 167.913C200.186 168.222 200.324 168.476 200.462 168.476C200.627 168.476 200.737 168.645 200.765 168.814C200.792 169.406 203.162 171.266 204.263 171.519C205.954 171.941 209.234 172.252 211.343 172.252C212.052 172.252 212.629 172.217 212.969 172.139C213.435 172.032 213.768 171.975 214.052 171.975C214.438 171.975 214.732 172.081 215.145 172.308C216.328 172.913 219.235 173.345 221.478 173.345C222.368 173.345 223.153 173.277 223.685 173.125C223.871 173.073 224.029 173.045 224.172 173.045C224.495 173.045 224.746 173.188 225.09 173.52C225.42 173.83 226.302 174.224 227.073 174.365C228.864 174.731 229.938 175.069 230.93 175.577C231.371 175.83 232.445 176.084 233.354 176.196C234.484 176.337 235.2 176.591 235.779 177.07C236.357 177.577 236.908 177.774 237.762 177.774C238.506 177.774 239.443 178.056 240.241 178.479C241.288 179.042 241.922 179.183 243.602 179.183C244.87 179.183 245.889 179.324 246.275 179.578C246.605 179.775 248.038 180.028 249.443 180.141C250.82 180.226 252.418 180.507 252.969 180.733C253.403 180.914 253.762 180.999 254.156 180.999C254.437 180.999 254.735 180.956 255.09 180.874C255.42 180.801 255.746 180.765 256.073 180.765C256.509 180.765 256.947 180.829 257.404 180.958C257.8 181.066 258.137 181.122 258.518 181.122C259.036 181.122 259.634 181.017 260.572 180.789C261.757 180.507 263.685 180.31 265.283 180.31C270.847 180.31 275.035 179.296 290.958 173.97C292.473 173.463 295.586 172.449 297.845 171.716C300.131 171.012 303.217 169.885 304.732 169.265C314.071 165.405 323.024 162.813 327.321 162.728C327.423 162.725 327.516 162.723 327.601 162.723C328.412 162.723 328.519 162.898 329.167 164.25C329.801 165.574 329.911 166.166 329.911 168.363C329.938 170.758 329.994 171.012 330.71 171.942C331.371 172.759 331.591 173.548 332.115 176.675C332.445 178.76 332.886 181.325 333.106 182.423C334.622 190.425 334.704 191.045 334.511 194.68C334.043 203.274 334.016 207.021 334.429 208.543C334.677 209.36 334.925 210.741 335.035 211.586C335.145 212.431 335.338 213.277 335.476 213.446C335.613 213.615 335.889 214.939 336.137 216.404C336.357 217.869 336.715 219.673 336.908 220.462C337.128 221.222 337.376 222.8 337.487 223.899L337.652 225.956H336.33C335.586 225.956 334.374 225.787 333.63 225.562C332.886 225.336 331.922 225.083 331.454 225.026C331.013 224.942 330.131 224.66 329.553 224.406C329.07 224.196 328.641 224.092 328.261 224.092C327.622 224.092 327.123 224.387 326.743 224.97C326.33 225.618 326.33 225.731 326.77 226.463C327.652 227.844 328.451 228.464 330.104 229.084C332.831 230.07 333.52 230.492 334.016 231.563C334.677 233 337.266 235.48 338.947 236.297L340.407 236.973L339.966 237.875C339.332 239.114 339.332 240.72 339.966 241.425C340.288 241.781 340.557 241.964 340.936 241.964C341.336 241.964 341.858 241.76 342.693 241.34C343.373 240.993 343.929 240.746 343.984 240.746C343.987 240.746 343.988 240.747 343.988 240.749C343.988 240.805 343.492 241.453 342.886 242.186C341.206 244.271 341.426 246.243 343.437 247.088C343.878 247.286 344.264 247.595 344.264 247.793C344.264 248.3 345.2 249.061 345.806 249.061C346.067 249.061 346.773 248.783 347.362 248.442H347.366C347.208 248.947 347.082 249.524 346.987 250.171C346.965 250.362 346.965 250.594 346.985 250.869C347.036 251.562 347.082 251.959 347.124 252.059C347.217 252.448 347.382 252.656 347.617 252.683C347.647 252.686 347.676 252.687 347.704 252.687C347.784 252.687 347.855 252.677 347.918 252.656L348.255 252.512L348.627 252.433L349.525 252.1L350.36 251.619C350.36 251.619 350.36 251.62 350.361 251.62C350.374 251.62 350.5 251.501 350.737 251.263L350.925 251.122L351.153 250.799L351.848 249.616C351.897 249.517 351.969 249.298 352.064 248.959L352.167 248.775C352.19 248.66 352.282 248.412 352.445 248.03C352.467 247.97 352.482 247.907 352.49 247.842C352.502 247.77 352.505 247.674 352.5 247.554H352.495C352.525 247.537 352.546 247.505 352.556 247.455C352.556 247.342 352.638 246.919 352.721 246.525C352.941 245.454 352.969 242.552 352.748 241.594C352.225 239.227 350.765 234.803 350.324 234.268C349.801 233.62 349.498 229.394 349.608 225.054C349.773 220.18 350.214 214.235 350.489 213.812C350.572 213.671 350.655 210.712 350.655 207.275C350.655 206.272 350.659 205.43 350.666 204.736H350.665L350.762 203.544L350.867 202.769L350.665 201.253L349.619 193.416L349.464 192.257L349.351 191.408L349.217 190.407L349.197 190.256L348.807 187.336L348.798 187.29C348.788 187.236 348.779 187.172 348.771 187.097H348.775L348.507 185.088H348.511C348.493 185.038 348.473 184.987 348.45 184.937H348.446C348.306 183.996 348.158 183.014 348.01 182.057C347.487 178.676 346.963 175.069 346.853 174.027C346.66 172.195 346.688 172.167 347.376 171.998C348.671 171.66 348.754 171.35 348.754 165.715C348.754 161.77 348.837 160.249 349.14 159.657C349.635 158.671 350.159 151.598 349.938 148.612C349.746 145.343 348.864 139.877 348.478 139.426C348.313 139.201 348.12 138.468 348.065 137.764C347.989 136.666 347.912 136.49 346.891 135.931H346.886C346.779 135.673 346.682 135.456 346.596 135.278L346.257 134.607L344.125 131.077C344.034 130.934 343.888 130.658 343.689 130.25C343.608 130.116 343.48 129.958 343.305 129.778L342.243 128.769C341.642 128.013 340.823 127.121 339.787 126.094C338.759 124.736 338.091 123.936 337.784 123.693C337.551 123.478 337.34 123.296 337.151 123.149H337.147C336.984 122.897 336.804 122.776 336.498 122.716H336.493C335.381 122.049 334.651 121.596 334.302 121.357H334.298C334.153 120.765 334.043 119.835 334.043 119.055C334.043 116.8 335.696 110.32 336.881 107.925C337.707 106.262 337.9 106.065 339.305 105.502C340.131 105.164 341.206 104.487 341.702 103.98C342.197 103.501 342.721 103.107 342.886 103.107C343.024 103.107 343.162 102.994 343.162 102.881C343.162 102.74 343.575 102.149 344.071 101.557C345.145 100.261 345.586 99.1339 345.613 97.5278C345.641 96.0908 345.062 95.0483 344.071 94.7947C343.465 94.6538 343.41 94.5129 343.547 93.724C344.181 90.0611 343.933 85.6937 342.941 83.4396C341.674 80.5656 340.324 79.354 335.668 76.7899C332.236 74.9394 329.373 74.0447 326.701 74.0447C325.427 74.0447 324.196 74.2482 322.969 74.6486C321.013 75.2966 318.947 76.9872 317.294 79.2695C315.724 81.439 313.685 85.9473 313.382 87.9478C313.217 88.9058 313.024 89.8075 312.941 89.9484C312.859 90.0892 312.776 94.682 312.776 100.176C312.776 105.954 312.749 108.542 312.626 109.567L310.698 107.577C310.697 107.577 310.697 107.577 310.696 107.577C310.666 107.577 310.409 107.196 309.924 106.434C309.814 106.281 309.713 106.158 309.623 106.067C308.841 105.347 308.137 104.791 307.512 104.397H307.508C306.676 103.52 305.092 103.272 301.977 103.219C300.021 103.163 297.597 103.022 296.605 102.853C295.46 102.664 293.654 102.571 291.689 102.571C289.259 102.571 286.587 102.714 284.622 102.994C282.969 103.219 280.407 103.473 278.974 103.586C277.542 103.67 276.247 103.839 276.082 103.952C276.041 103.986 275.945 104.002 275.812 104.002C275.498 104.002 274.97 103.913 274.429 103.755C273.685 103.529 272.445 103.191 271.674 102.966C270.93 102.74 269.002 102.233 267.404 101.839C262.996 100.74 262.115 100.402 257.266 97.9786C252.418 95.5555 251.701 95.3019 246.605 94.2594C240.462 92.9914 238.754 92.6815 237.707 92.6815C236.467 92.6815 232.473 91.6671 228.699 90.4274C227.184 89.9202 225.338 89.3284 224.566 89.1312C223.823 88.9058 222.941 88.6241 222.638 88.4832C221.536 87.9197 219.305 87.0744 218.533 86.9053C217.432 86.6517 214.208 85.1302 213.602 84.5385C213.327 84.2849 212.914 83.8623 212.638 83.5805C212.39 83.3269 212.087 83.1015 211.977 83.1015C211.839 83.1015 211.151 82.6788 210.434 82.1717C208.537 80.8137 206.865 80.3322 203.819 80.3322C203.326 80.3322 202.797 80.3448 202.225 80.3684C196.798 80.622 194.401 81.1855 194.401 82.1717C194.401 82.3689 194.153 82.5379 193.85 82.5379C193.409 82.5379 193.299 82.7352 193.299 83.4114C193.299 84.8765 194.842 86.0882 197.266 86.4826C199.553 86.8771 199.966 86.9898 199.222 87.018C198.919 87.0462 198.506 87.2997 198.313 87.6379C198.139 87.9054 198.085 88.0671 198.152 88.0671C198.17 88.0671 198.196 88.0559 198.23 88.0324C198.267 88.0161 198.302 88.0082 198.332 88.0082C198.462 88.0082 198.533 88.1483 198.533 88.3986C198.533 89.1594 200.682 89.8357 204.016 90.1737C204.054 90.1775 204.093 90.1816 204.132 90.1859H204.129C204.091 90.2999 204.087 90.4254 204.116 90.5624C204.179 91.0411 204.247 91.3415 204.32 91.4637C204.805 92.4548 205.107 92.9876 205.225 93.062C205.502 93.3762 205.871 93.6936 206.334 94.0141L206.509 94.1132H206.506C206.528 94.1495 206.555 94.183 206.588 94.2138L206.759 94.302H206.756C206.647 94.4945 206.795 94.5899 207.42 94.6888H207.417C207.526 94.7565 207.607 94.7976 207.66 94.8123C207.741 94.8442 207.816 94.8688 207.885 94.8862L208.198 94.9621L208.491 95.0494L209.411 95.4025C209.913 95.5361 210.404 95.677 210.883 95.8251C210.979 95.8494 211.081 95.8689 211.189 95.8838L212.512 96.0537L213.167 96.1702L215.135 96.3212L215.909 96.4199L218.109 96.351L219.726 96.4195H219.722C221.343 97.1476 223.401 98.0315 223.878 98.1759C224.263 98.2885 226.109 99.2466 228.01 100.289C229.911 101.332 232.087 102.515 232.831 102.881C233.602 103.276 235.338 104.206 236.688 104.938C238.065 105.671 239.856 106.488 240.682 106.77C243.134 107.615 246.275 108.742 246.881 109.024C247.184 109.136 247.679 109.334 247.982 109.418C248.286 109.475 249.635 109.954 250.958 110.404C252.418 110.94 253.933 111.278 254.787 111.278C255.806 111.278 256.881 111.588 258.836 112.433C261.316 113.532 265.779 115.11 271.261 116.829C272.886 117.336 273.823 117.787 274.319 118.35C274.732 118.801 275.338 119.167 275.668 119.167C275.999 119.167 276.495 119.308 276.798 119.477C277.294 119.731 278.644 120.069 281.095 120.492L281.415 120.543H281.411C280.469 120.886 279.314 121.29 277.948 121.755H277.944L275.494 122.325L273.645 122.686C271.443 123.285 270.215 123.584 269.96 123.584C269.943 123.584 269.931 123.583 269.922 123.58C269.643 123.618 269.327 123.647 268.974 123.667C267.067 123.729 266.063 123.775 265.963 123.804C265.457 123.833 264.73 123.936 263.782 124.112C263.515 124.145 263.248 124.169 262.982 124.182L261.918 124.194L259.359 124.093C259.363 124.089 259.357 124.087 259.341 124.087C259.234 124.087 258.685 124.181 257.694 124.367C257.543 124.389 257.384 124.401 257.215 124.403C256.061 124.368 255.142 124.306 254.458 124.218C254.05 124.257 253.684 124.29 253.36 124.315C252.72 124.007 252.045 123.711 251.564 123.535C250.82 123.253 249.994 122.858 249.746 122.633C249.525 122.436 249.167 122.267 248.974 122.267C248.781 122.267 248.286 122.041 247.9 121.731C247.487 121.45 246.44 120.999 245.531 120.717C244.649 120.435 243.713 119.984 243.465 119.731C242.851 119.076 242.03 118.659 241.404 118.659C241.383 118.659 241.363 118.659 241.343 118.66C241.34 118.66 241.336 118.661 241.333 118.661C240.979 118.661 238.196 117.403 235.117 115.842C229.277 112.884 224.236 110.433 224.043 110.433C223.96 110.433 222.583 109.785 220.93 108.996C217.982 107.587 211.343 105.135 206.798 103.811C205.503 103.445 203.52 102.825 202.39 102.43C201.316 102.05 200.582 101.86 200.085 101.86C199.919 101.86 199.78 101.881 199.663 101.923C199.552 101.964 199.335 101.983 199.033 101.983C198.281 101.983 197.004 101.863 195.531 101.642C193.63 101.36 190.958 100.994 189.58 100.853C186.605 100.486 182.693 99.4438 180.462 98.4295C179.58 98.0068 177.597 97.3305 176.082 96.9079C174.567 96.4571 172.969 95.9781 172.5 95.8372C170.517 95.161 168.699 94.8792 165.338 94.7665C158.699 94.5693 157.514 94.3439 152.941 92.3997C151.729 91.8925 146.605 90.4274 145.007 90.1456C144.071 89.9765 142.721 89.6948 142.032 89.5539C141.343 89.3848 139.663 89.1594 138.313 89.0185C133.657 88.5677 130.076 88.1451 128.423 87.8633C127.487 87.6943 125.696 87.4688 124.429 87.3279C114.539 86.2291 109.387 85.4965 104.594 84.4821C102.996 84.144 101.206 83.7777 100.6 83.665C96.4398 82.8197 93.437 81.9744 91.5913 81.1291C90.6547 80.7065 90.5445 80.5656 91.0679 80.5656C91.426 80.5656 92.2525 80.2275 92.9136 79.7766C93.9054 79.1567 94.1257 78.8468 94.1257 78.1987C94.1257 77.8017 94.0616 77.5357 93.971 77.5357C93.9588 77.5357 93.946 77.5406 93.9329 77.5507C93.9045 77.5894 93.8567 77.6082 93.7972 77.6082C93.6833 77.6082 93.5267 77.5394 93.3819 77.4099C93.2739 77.3214 93.1531 77.2763 92.9962 77.2763C92.7533 77.2763 92.4241 77.3845 91.9219 77.6071C91.3158 77.8888 90.82 78.2269 90.82 78.396C90.82 78.4895 90.7676 78.5446 90.5718 78.5446C90.2364 78.5446 89.48 78.3826 87.8447 77.9734C86.4398 77.6352 86.3571 77.5789 85.6684 76.0574C84.2635 72.8734 84.0431 72.5353 83.2718 72.169C82.9491 72.008 82.6399 71.9321 82.3628 71.9321C81.67 71.9321 81.1781 72.4065 81.1781 73.2116C81.1781 73.6906 81.3985 74.2259 81.674 74.4231C82.1698 74.8176 84.0431 77.1844 83.8503 77.1844C83.7952 77.1844 82.9136 76.7336 81.8943 76.1982C80.8751 75.6629 79.8282 75.2121 79.5803 75.2121C79.3324 75.2121 78.6161 74.9021 78.01 74.5077C77.404 74.1414 76.6877 73.8033 76.4398 73.8033C76.1919 73.8033 75.1726 73.4087 74.2084 72.958C73.2167 72.4789 72.2249 72.1127 71.977 72.1127C71.729 72.1127 71.1505 71.7182 70.6547 71.2674C70.1863 70.7884 69.6078 70.4221 69.3599 70.4221C68.9191 70.4221 66.6877 69.0978 65.2001 67.9708C64.8145 67.6889 64.0431 67.21 63.4921 66.9001C62.9136 66.5901 62.4453 66.2801 62.4453 66.1674C62.4453 66.0548 62.0321 65.8293 61.5638 65.6039C61.0679 65.4067 60.3516 65.0122 59.9935 64.7304C59.6354 64.4487 59.1671 64.2233 58.9742 64.2233C58.7814 64.2233 58.01 63.8288 57.2938 63.378C56.1919 62.6454 55.7511 62.5327 54.2084 62.5327Z" fill="#616161"/>
</svg>
