<svg id="svg" version="1.1" width="400" height="400" viewBox="0 0 400 400" xmlns="http://www.w3.org/2000/svg" xmlns:xlink="http://www.w3.org/1999/xlink" ><g id="svgg"><path id="path0" d="M253.000 235.200 C 253.136 235.420,254.036 235.600,255.000 235.600 C 255.964 235.600,256.864 235.420,257.000 235.200 C 257.154 234.951,256.396 234.800,255.000 234.800 C 253.604 234.800,252.846 234.951,253.000 235.200 M263.705 237.476 C 264.077 237.848,264.515 238.018,264.679 237.854 C 264.843 237.691,264.712 237.389,264.388 237.184 C 263.415 236.569,262.982 236.753,263.705 237.476 M298.243 237.833 C 297.867 238.811,297.949 238.908,298.600 238.257 C 299.280 237.577,299.367 237.200,298.843 237.200 C 298.646 237.200,298.376 237.485,298.243 237.833 M152.100 239.023 C 151.511 239.663,151.462 240.000,151.957 240.000 C 152.298 240.000,152.937 238.796,152.709 238.583 C 152.649 238.527,152.375 238.725,152.100 239.023 M313.200 239.400 C 313.200 239.950,313.380 240.400,313.600 240.400 C 313.820 240.400,314.000 239.950,314.000 239.400 C 314.000 238.850,313.820 238.400,313.600 238.400 C 313.380 238.400,313.200 238.850,313.200 239.400 M275.200 240.200 C 275.200 240.970,275.380 241.600,275.600 241.600 C 275.820 241.600,276.000 240.970,276.000 240.200 C 276.000 239.430,275.820 238.800,275.600 238.800 C 275.380 238.800,275.200 239.430,275.200 240.200 M123.345 239.878 C 123.777 240.311,124.800 240.371,124.800 239.965 C 124.800 239.764,124.410 239.600,123.933 239.600 C 123.457 239.600,123.192 239.725,123.345 239.878 M265.200 240.400 C 265.200 240.840,265.380 241.200,265.600 241.200 C 265.820 241.200,266.000 240.840,266.000 240.400 C 266.000 239.960,265.820 239.600,265.600 239.600 C 265.380 239.600,265.200 239.960,265.200 240.400 M268.400 241.400 C 268.400 242.390,268.580 243.200,268.800 243.200 C 269.020 243.200,269.200 242.390,269.200 241.400 C 269.200 240.410,269.020 239.600,268.800 239.600 C 268.580 239.600,268.400 240.410,268.400 241.400 M297.200 240.200 C 297.200 240.530,297.380 240.800,297.600 240.800 C 297.820 240.800,298.000 240.530,298.000 240.200 C 298.000 239.870,297.820 239.600,297.600 239.600 C 297.380 239.600,297.200 239.870,297.200 240.200 M306.400 240.000 C 306.400 240.220,307.300 240.400,308.400 240.400 C 309.500 240.400,310.400 240.220,310.400 240.000 C 310.400 239.780,309.500 239.600,308.400 239.600 C 307.300 239.600,306.400 239.780,306.400 240.000 M255.400 240.400 C 255.264 240.620,255.523 240.800,255.976 240.800 C 256.429 240.800,256.800 240.620,256.800 240.400 C 256.800 240.180,256.541 240.000,256.224 240.000 C 255.907 240.000,255.536 240.180,255.400 240.400 M293.467 241.867 C 293.048 242.285,293.155 244.000,293.600 244.000 C 293.820 244.000,294.000 243.460,294.000 242.800 C 294.000 241.557,293.919 241.415,293.467 241.867 M97.206 243.700 C 97.211 244.945,97.316 245.239,97.600 244.800 C 98.110 244.010,98.110 242.000,97.600 242.000 C 97.380 242.000,97.203 242.765,97.206 243.700 M157.166 242.724 C 155.980 243.987,155.804 244.533,156.743 244.031 C 157.597 243.573,158.686 241.981,158.114 242.024 C 157.941 242.037,157.515 242.352,157.166 242.724 M147.700 243.888 C 146.404 245.384,146.592 245.791,148.000 244.537 C 149.149 243.513,149.538 242.772,148.900 242.825 C 148.735 242.838,148.195 243.317,147.700 243.888 M265.200 243.400 C 265.200 243.730,265.380 244.000,265.600 244.000 C 265.820 244.000,266.000 243.730,266.000 243.400 C 266.000 243.070,265.820 242.800,265.600 242.800 C 265.380 242.800,265.200 243.070,265.200 243.400 M286.893 244.000 C 286.893 244.770,286.975 245.085,287.076 244.700 C 287.176 244.315,287.176 243.685,287.076 243.300 C 286.975 242.915,286.893 243.230,286.893 244.000 M297.200 243.400 C 297.200 243.730,297.380 244.000,297.600 244.000 C 297.820 244.000,298.000 243.730,298.000 243.400 C 298.000 243.070,297.820 242.800,297.600 242.800 C 297.380 242.800,297.200 243.070,297.200 243.400 M304.599 243.998 C 304.875 244.446,306.400 245.330,306.400 245.043 C 306.400 244.941,306.117 244.574,305.771 244.229 C 305.080 243.537,304.208 243.365,304.599 243.998 M132.000 244.600 C 132.000 244.930,132.180 245.200,132.400 245.200 C 132.620 245.200,132.800 244.930,132.800 244.600 C 132.800 244.270,132.620 244.000,132.400 244.000 C 132.180 244.000,132.000 244.270,132.000 244.600 M90.400 246.424 C 90.400 247.404,90.558 247.949,90.800 247.800 C 91.020 247.664,91.200 246.933,91.200 246.176 C 91.200 245.419,91.020 244.800,90.800 244.800 C 90.580 244.800,90.400 245.531,90.400 246.424 M126.000 245.400 C 126.000 245.730,126.180 246.000,126.400 246.000 C 126.620 246.000,126.800 245.730,126.800 245.400 C 126.800 245.070,126.620 244.800,126.400 244.800 C 126.180 244.800,126.000 245.070,126.000 245.400 M299.200 246.771 C 299.200 246.976,299.483 247.426,299.829 247.771 C 301.043 248.986,301.624 248.504,300.511 247.205 C 299.779 246.350,299.200 246.158,299.200 246.771 M153.000 247.600 C 152.860 248.040,152.578 248.400,152.373 248.400 C 152.168 248.400,152.000 248.584,152.000 248.809 C 152.000 249.034,152.450 248.924,153.000 248.563 C 153.550 248.203,154.000 247.659,154.000 247.354 C 154.000 246.516,153.289 246.691,153.000 247.600 M244.000 248.600 C 244.000 249.590,244.180 250.400,244.400 250.400 C 244.620 250.400,244.800 249.590,244.800 248.600 C 244.800 247.610,244.620 246.800,244.400 246.800 C 244.180 246.800,244.000 247.610,244.000 248.600 M263.200 247.400 C 263.200 247.730,263.380 248.000,263.600 248.000 C 263.820 248.000,264.000 247.730,264.000 247.400 C 264.000 247.070,263.820 246.800,263.600 246.800 C 263.380 246.800,263.200 247.070,263.200 247.400 M308.475 247.225 C 308.571 247.514,308.886 247.829,309.175 247.925 C 309.475 248.025,309.625 247.875,309.525 247.575 C 309.429 247.286,309.114 246.971,308.825 246.875 C 308.525 246.775,308.375 246.925,308.475 247.225 M250.800 247.800 C 250.800 248.130,250.980 248.400,251.200 248.400 C 251.420 248.400,251.600 248.130,251.600 247.800 C 251.600 247.470,251.420 247.200,251.200 247.200 C 250.980 247.200,250.800 247.470,250.800 247.800 M112.400 248.976 C 112.400 249.319,112.220 249.600,112.000 249.600 C 111.780 249.600,111.600 249.780,111.600 250.000 C 111.600 250.655,112.173 250.456,112.696 249.619 C 113.003 249.127,113.039 248.747,112.792 248.595 C 112.576 248.462,112.400 248.633,112.400 248.976 M142.900 249.441 C 141.665 250.850,141.757 251.579,143.000 250.238 C 143.550 249.644,144.000 248.988,144.000 248.779 C 144.000 248.238,143.905 248.295,142.900 249.441 M250.203 251.571 C 250.034 253.029,250.091 254.223,250.352 254.671 C 250.677 255.230,250.779 254.679,250.788 252.300 C 250.802 248.599,250.580 248.322,250.203 251.571 M274.674 250.439 C 274.553 250.900,274.611 251.665,274.802 252.139 C 275.082 252.833,275.154 252.670,275.175 251.300 C 275.202 249.446,275.017 249.127,274.674 250.439 M303.600 250.528 C 303.600 250.613,304.060 251.179,304.622 251.786 C 305.672 252.919,306.530 252.921,305.590 251.788 C 305.069 251.160,303.600 250.230,303.600 250.528 M268.025 252.767 C 268.011 253.958,268.104 254.829,268.231 254.702 C 268.631 254.302,268.724 252.260,268.380 251.412 C 268.145 250.834,268.043 251.223,268.025 252.767 M286.000 252.200 C 286.000 252.530,286.180 252.800,286.400 252.800 C 286.620 252.800,286.800 252.530,286.800 252.200 C 286.800 251.870,286.620 251.600,286.400 251.600 C 286.180 251.600,286.000 251.870,286.000 252.200 M147.900 253.287 C 147.515 253.768,147.200 254.315,147.200 254.500 C 147.200 255.041,149.174 253.452,149.187 252.900 C 149.206 252.149,148.684 252.306,147.900 253.287 M292.800 253.400 C 292.800 253.730,292.980 254.000,293.200 254.000 C 293.420 254.000,293.600 253.730,293.600 253.400 C 293.600 253.070,293.420 252.800,293.200 252.800 C 292.980 252.800,292.800 253.070,292.800 253.400 M106.800 254.400 C 106.800 254.620,107.340 254.800,108.000 254.800 C 108.660 254.800,109.200 254.620,109.200 254.400 C 109.200 254.180,108.660 254.000,108.000 254.000 C 107.340 254.000,106.800 254.180,106.800 254.400 M275.200 254.600 C 275.200 254.930,275.380 255.200,275.600 255.200 C 275.820 255.200,276.000 254.930,276.000 254.600 C 276.000 254.270,275.820 254.000,275.600 254.000 C 275.380 254.000,275.200 254.270,275.200 254.600 M89.600 255.800 C 89.600 256.350,89.780 256.800,90.000 256.800 C 90.220 256.800,90.400 256.350,90.400 255.800 C 90.400 255.250,90.220 254.800,90.000 254.800 C 89.780 254.800,89.600 255.250,89.600 255.800 M296.000 255.800 C 296.000 256.130,296.180 256.400,296.400 256.400 C 296.620 256.400,296.800 256.130,296.800 255.800 C 296.800 255.470,296.620 255.200,296.400 255.200 C 296.180 255.200,296.000 255.470,296.000 255.800 M306.500 255.823 C 305.911 256.463,305.862 256.800,306.357 256.800 C 306.698 256.800,307.337 255.596,307.109 255.383 C 307.049 255.327,306.775 255.525,306.500 255.823 M276.800 256.400 C 276.800 256.620,277.070 256.800,277.400 256.800 C 277.730 256.800,278.000 256.620,278.000 256.400 C 278.000 256.180,277.730 256.000,277.400 256.000 C 277.070 256.000,276.800 256.180,276.800 256.400 M292.000 256.600 C 292.000 256.930,292.180 257.200,292.400 257.200 C 292.620 257.200,292.800 256.930,292.800 256.600 C 292.800 256.270,292.620 256.000,292.400 256.000 C 292.180 256.000,292.000 256.270,292.000 256.600 M299.200 256.400 C 299.200 256.620,299.470 256.800,299.800 256.800 C 300.130 256.800,300.400 256.620,300.400 256.400 C 300.400 256.180,300.130 256.000,299.800 256.000 C 299.470 256.000,299.200 256.180,299.200 256.400 M114.947 257.783 C 114.328 259.118,114.788 259.445,115.461 258.148 C 116.083 256.948,116.110 256.799,115.700 256.803 C 115.535 256.805,115.196 257.246,114.947 257.783 M129.600 257.400 C 129.600 257.730,129.780 258.000,130.000 258.000 C 130.220 258.000,130.400 257.730,130.400 257.400 C 130.400 257.070,130.220 256.800,130.000 256.800 C 129.780 256.800,129.600 257.070,129.600 257.400 M302.505 257.087 C 303.114 257.179,304.014 257.177,304.505 257.082 C 304.997 256.987,304.500 256.911,303.400 256.914 C 302.300 256.917,301.897 256.995,302.505 257.087 M291.200 258.000 C 291.200 258.220,290.825 258.775,290.367 259.233 C 289.908 259.692,289.628 260.162,289.745 260.278 C 289.992 260.525,292.000 258.445,292.000 257.942 C 292.000 257.754,291.820 257.600,291.600 257.600 C 291.380 257.600,291.200 257.780,291.200 258.000 M243.606 259.100 C 243.611 259.957,243.698 260.068,244.000 259.600 C 244.506 258.817,244.506 258.000,244.000 258.000 C 243.780 258.000,243.603 258.495,243.606 259.100 M264.400 261.000 C 264.400 261.330,264.580 261.600,264.800 261.600 C 265.020 261.600,265.200 261.330,265.200 261.000 C 265.200 260.670,265.020 260.400,264.800 260.400 C 264.580 260.400,264.400 260.670,264.400 261.000 M272.800 261.200 C 272.800 261.420,273.070 261.600,273.400 261.600 C 273.730 261.600,274.000 261.420,274.000 261.200 C 274.000 260.980,273.730 260.800,273.400 260.800 C 273.070 260.800,272.800 260.980,272.800 261.200 M232.400 268.800 C 232.400 269.020,232.760 269.200,233.200 269.200 C 233.640 269.200,234.000 269.020,234.000 268.800 C 234.000 268.580,233.640 268.400,233.200 268.400 C 232.760 268.400,232.400 268.580,232.400 268.800 M244.000 268.800 C 244.000 269.020,244.450 269.200,245.000 269.200 C 245.550 269.200,246.000 269.020,246.000 268.800 C 246.000 268.580,245.550 268.400,245.000 268.400 C 244.450 268.400,244.000 268.580,244.000 268.800 M227.200 270.400 C 227.200 271.060,227.380 271.600,227.600 271.600 C 227.820 271.600,228.000 271.060,228.000 270.400 C 228.000 269.740,227.820 269.200,227.600 269.200 C 227.380 269.200,227.200 269.740,227.200 270.400 M275.907 270.174 C 275.805 270.710,275.871 271.385,276.054 271.674 C 276.267 272.009,276.390 271.656,276.394 270.700 C 276.401 268.985,276.180 268.747,275.907 270.174 M278.109 270.800 C 278.109 271.790,278.187 272.195,278.282 271.700 C 278.378 271.205,278.378 270.395,278.282 269.900 C 278.187 269.405,278.109 269.810,278.109 270.800 M236.800 270.000 C 236.800 270.220,237.070 270.400,237.400 270.400 C 237.730 270.400,238.000 270.220,238.000 270.000 C 238.000 269.780,237.730 269.600,237.400 269.600 C 237.070 269.600,236.800 269.780,236.800 270.000 M264.800 270.649 C 264.800 270.854,265.160 271.330,265.600 271.707 C 266.040 272.084,266.400 272.242,266.400 272.058 C 266.400 271.874,266.040 271.398,265.600 271.000 C 265.160 270.602,264.800 270.444,264.800 270.649 M288.400 271.000 C 288.400 271.330,288.190 271.600,287.933 271.600 C 287.677 271.600,287.561 271.694,287.676 271.809 C 287.791 271.925,288.181 271.905,288.543 271.767 C 289.252 271.494,289.458 270.400,288.800 270.400 C 288.580 270.400,288.400 270.670,288.400 271.000 M237.778 271.235 C 237.631 271.474,237.710 271.870,237.955 272.115 C 238.282 272.442,238.400 272.326,238.400 271.680 C 238.400 270.714,238.192 270.565,237.778 271.235 M250.422 270.800 C 249.998 271.602,250.210 273.995,250.722 274.192 C 251.459 274.474,251.941 274.058,251.321 273.675 C 251.070 273.520,250.789 272.765,250.697 271.997 C 250.604 271.228,250.480 270.690,250.422 270.800 M258.800 271.600 C 257.860 271.901,257.879 271.923,259.124 271.960 C 259.913 271.984,260.347 271.838,260.200 271.600 C 260.064 271.380,259.918 271.218,259.876 271.240 C 259.834 271.262,259.350 271.424,258.800 271.600 M297.126 271.654 C 296.791 271.867,297.144 271.990,298.100 271.994 C 298.925 271.997,299.600 271.931,299.600 271.847 C 299.600 271.500,297.613 271.346,297.126 271.654 M242.800 272.624 C 242.800 273.204,242.973 273.540,243.200 273.400 C 243.420 273.264,243.600 272.803,243.600 272.376 C 243.600 271.949,243.420 271.600,243.200 271.600 C 242.980 271.600,242.800 272.061,242.800 272.624 M256.200 272.531 C 255.395 273.538,255.539 274.203,256.371 273.317 C 256.827 272.831,257.200 272.336,257.200 272.217 C 257.200 271.832,256.611 272.016,256.200 272.531 M249.443 275.033 C 249.067 276.011,249.149 276.108,249.800 275.457 C 250.480 274.777,250.567 274.400,250.043 274.400 C 249.846 274.400,249.576 274.685,249.443 275.033 M254.534 275.827 C 254.402 276.172,254.498 276.658,254.747 276.907 C 255.084 277.244,255.200 277.084,255.200 276.280 C 255.200 275.077,254.901 274.873,254.534 275.827 M262.800 275.800 C 262.800 276.130,262.980 276.400,263.200 276.400 C 263.420 276.400,263.600 276.130,263.600 275.800 C 263.600 275.470,263.420 275.200,263.200 275.200 C 262.980 275.200,262.800 275.470,262.800 275.800 M293.200 276.200 C 293.200 276.750,293.380 277.200,293.600 277.200 C 293.820 277.200,294.000 276.750,294.000 276.200 C 294.000 275.650,293.820 275.200,293.600 275.200 C 293.380 275.200,293.200 275.650,293.200 276.200 M306.000 278.200 C 306.000 278.970,306.180 279.600,306.400 279.600 C 306.620 279.600,306.800 278.970,306.800 278.200 C 306.800 277.430,306.620 276.800,306.400 276.800 C 306.180 276.800,306.000 277.430,306.000 278.200 M266.400 277.800 C 266.400 278.130,266.580 278.400,266.800 278.400 C 267.020 278.400,267.200 278.130,267.200 277.800 C 267.200 277.470,267.020 277.200,266.800 277.200 C 266.580 277.200,266.400 277.470,266.400 277.800 M271.600 278.000 C 271.600 278.440,271.780 278.800,272.000 278.800 C 272.220 278.800,272.400 278.440,272.400 278.000 C 272.400 277.560,272.220 277.200,272.000 277.200 C 271.780 277.200,271.600 277.560,271.600 278.000 M250.800 278.600 C 250.800 278.930,250.980 279.200,251.200 279.200 C 251.420 279.200,251.600 278.930,251.600 278.600 C 251.600 278.270,251.420 278.000,251.200 278.000 C 250.980 278.000,250.800 278.270,250.800 278.600 M261.641 278.764 C 261.157 279.184,260.929 279.632,261.135 279.760 C 261.493 279.981,261.941 279.585,262.561 278.500 C 262.966 277.792,262.662 277.879,261.641 278.764 M257.600 280.040 C 257.600 280.238,258.230 280.400,259.000 280.400 C 259.770 280.400,260.400 280.238,260.400 280.040 C 260.400 279.842,259.770 279.680,259.000 279.680 C 258.230 279.680,257.600 279.842,257.600 280.040 M269.200 280.085 C 269.200 280.258,269.560 280.400,270.000 280.400 C 270.440 280.400,270.800 280.231,270.800 280.025 C 270.800 279.819,270.440 279.677,270.000 279.710 C 269.560 279.743,269.200 279.912,269.200 280.085 M296.400 280.000 C 296.400 280.220,297.030 280.400,297.800 280.400 C 298.570 280.400,299.200 280.220,299.200 280.000 C 299.200 279.780,298.570 279.600,297.800 279.600 C 297.030 279.600,296.400 279.780,296.400 280.000 M238.667 281.067 C 238.252 281.482,238.353 282.800,238.800 282.800 C 239.020 282.800,239.200 282.350,239.200 281.800 C 239.200 280.753,239.108 280.626,238.667 281.067 M277.200 281.800 C 277.200 282.350,277.380 282.800,277.600 282.800 C 277.820 282.800,278.000 282.350,278.000 281.800 C 278.000 281.250,277.820 280.800,277.600 280.800 C 277.380 280.800,277.200 281.250,277.200 281.800 M300.400 282.400 C 300.400 282.620,300.670 282.800,301.000 282.800 C 301.330 282.800,301.600 282.620,301.600 282.400 C 301.600 282.180,301.330 282.000,301.000 282.000 C 300.670 282.000,300.400 282.180,300.400 282.400 " stroke="none" fill="#acacac" fill-rule="evenodd"></path><path id="path1" d="M160.800 236.224 C 160.800 236.804,160.973 237.140,161.200 237.000 C 161.420 236.864,161.600 236.403,161.600 235.976 C 161.600 235.549,161.420 235.200,161.200 235.200 C 160.980 235.200,160.800 235.661,160.800 236.224 M275.200 237.000 C 275.200 237.330,275.380 237.600,275.600 237.600 C 275.820 237.600,276.000 237.330,276.000 237.000 C 276.000 236.670,275.820 236.400,275.600 236.400 C 275.380 236.400,275.200 236.670,275.200 237.000 M250.178 246.578 C 250.027 247.381,249.994 248.127,250.104 248.237 C 250.214 248.347,250.427 247.781,250.578 246.978 C 250.728 246.175,250.762 245.428,250.652 245.318 C 250.542 245.208,250.328 245.775,250.178 246.578 M268.400 245.800 C 268.400 246.130,268.580 246.400,268.800 246.400 C 269.020 246.400,269.200 246.130,269.200 245.800 C 269.200 245.470,269.020 245.200,268.800 245.200 C 268.580 245.200,268.400 245.470,268.400 245.800 M90.692 249.042 C 90.531 249.202,90.400 249.609,90.400 249.947 C 90.400 250.397,90.518 250.442,90.845 250.115 C 91.090 249.870,91.221 249.463,91.137 249.210 C 91.052 248.957,90.852 248.881,90.692 249.042 M96.667 251.867 C 96.252 252.282,96.353 253.600,96.800 253.600 C 97.020 253.600,97.200 253.150,97.200 252.600 C 97.200 251.553,97.108 251.426,96.667 251.867 M138.400 257.400 C 138.400 257.730,138.580 258.000,138.800 258.000 C 139.020 258.000,139.200 257.730,139.200 257.400 C 139.200 257.070,139.020 256.800,138.800 256.800 C 138.580 256.800,138.400 257.070,138.400 257.400 M239.453 274.541 C 239.286 275.388,239.241 276.175,239.355 276.288 C 239.658 276.591,240.097 274.585,239.914 273.732 C 239.820 273.290,239.637 273.611,239.453 274.541 M227.200 275.200 C 227.200 275.640,227.380 276.000,227.600 276.000 C 227.820 276.000,228.000 275.640,228.000 275.200 C 228.000 274.760,227.820 274.400,227.600 274.400 C 227.380 274.400,227.200 274.760,227.200 275.200 M309.600 278.400 C 309.600 279.147,309.707 279.253,310.080 278.880 C 310.453 278.507,310.453 278.293,310.080 277.920 C 309.707 277.547,309.600 277.653,309.600 278.400 M230.501 281.400 C 230.505 282.280,230.587 282.593,230.683 282.095 C 230.779 281.598,230.775 280.878,230.675 280.495 C 230.575 280.113,230.496 280.520,230.501 281.400 M287.812 281.717 C 287.641 282.112,287.613 282.547,287.751 282.684 C 288.157 283.090,288.484 282.520,288.297 281.731 C 288.132 281.033,288.110 281.032,287.812 281.717 " stroke="none" fill="#8c8c8c" fill-rule="evenodd"></path><path id="path2" d="M161.012 237.317 C 160.841 237.712,160.813 238.147,160.951 238.284 C 161.357 238.690,161.684 238.120,161.497 237.331 C 161.332 236.633,161.310 236.632,161.012 237.317 M263.200 237.319 C 263.200 237.394,263.650 237.847,264.200 238.325 C 264.750 238.803,265.200 239.037,265.200 238.843 C 265.200 238.650,264.750 238.197,264.200 237.837 C 263.650 237.476,263.200 237.243,263.200 237.319 M275.200 238.200 C 275.200 238.530,275.380 238.800,275.600 238.800 C 275.820 238.800,276.000 238.530,276.000 238.200 C 276.000 237.870,275.820 237.600,275.600 237.600 C 275.380 237.600,275.200 237.870,275.200 238.200 M160.100 239.423 C 159.511 240.063,159.462 240.400,159.957 240.400 C 160.298 240.400,160.937 239.196,160.709 238.983 C 160.649 238.927,160.375 239.125,160.100 239.423 M97.467 240.267 C 97.052 240.682,97.153 242.000,97.600 242.000 C 97.820 242.000,98.000 241.550,98.000 241.000 C 98.000 239.953,97.908 239.826,97.467 240.267 M293.200 241.224 C 293.200 241.677,293.380 241.936,293.600 241.800 C 293.820 241.664,294.000 241.293,294.000 240.976 C 294.000 240.659,293.820 240.400,293.600 240.400 C 293.380 240.400,293.200 240.771,293.200 241.224 M297.200 241.800 C 297.200 242.350,297.358 242.800,297.550 242.800 C 297.743 242.800,297.900 242.350,297.900 241.800 C 297.900 241.250,297.743 240.800,297.550 240.800 C 297.358 240.800,297.200 241.250,297.200 241.800 M265.200 242.000 C 265.200 242.440,265.380 242.800,265.600 242.800 C 265.820 242.800,266.000 242.440,266.000 242.000 C 266.000 241.560,265.820 241.200,265.600 241.200 C 265.380 241.200,265.200 241.560,265.200 242.000 M268.400 244.200 C 268.400 244.750,268.580 245.200,268.800 245.200 C 269.020 245.200,269.200 244.750,269.200 244.200 C 269.200 243.650,269.020 243.200,268.800 243.200 C 268.580 243.200,268.400 243.650,268.400 244.200 M250.290 247.950 C 250.131 248.693,250.020 249.863,250.044 250.550 C 250.081 251.617,250.141 251.536,250.449 250.000 C 250.648 249.010,250.759 247.840,250.696 247.400 C 250.618 246.859,250.486 247.037,250.290 247.950 M90.692 247.842 C 90.531 248.002,90.400 248.409,90.400 248.747 C 90.400 249.197,90.518 249.242,90.845 248.915 C 91.090 248.670,91.221 248.263,91.137 248.010 C 91.052 247.757,90.852 247.681,90.692 247.842 M144.571 247.906 C 144.153 248.192,143.484 249.600,143.767 249.600 C 143.844 249.600,144.203 249.150,144.563 248.600 C 145.258 247.540,145.259 247.435,144.571 247.906 M274.600 249.200 C 274.448 249.891,274.414 250.547,274.524 250.657 C 274.634 250.767,274.848 250.291,275.000 249.600 C 275.152 248.909,275.186 248.253,275.076 248.143 C 274.966 248.033,274.752 248.509,274.600 249.200 M302.800 249.953 C 302.800 250.148,303.170 250.404,303.623 250.522 C 304.298 250.698,304.361 250.635,303.974 250.169 C 303.446 249.532,302.800 249.414,302.800 249.953 M244.000 251.400 C 244.000 251.950,244.180 252.400,244.400 252.400 C 244.620 252.400,244.800 251.950,244.800 251.400 C 244.800 250.850,244.620 250.400,244.400 250.400 C 244.180 250.400,244.000 250.850,244.000 251.400 M312.000 250.751 C 312.000 251.272,313.179 252.155,313.476 251.857 C 313.618 251.716,313.523 251.600,313.267 251.600 C 313.010 251.600,312.800 251.330,312.800 251.000 C 312.800 250.670,312.620 250.400,312.400 250.400 C 312.180 250.400,312.000 250.558,312.000 250.751 M292.800 252.000 C 292.800 252.440,292.980 252.800,293.200 252.800 C 293.420 252.800,293.600 252.440,293.600 252.000 C 293.600 251.560,293.420 251.200,293.200 251.200 C 292.980 251.200,292.800 251.560,292.800 252.000 M139.600 253.400 C 139.317 253.741,139.176 254.109,139.286 254.219 C 139.396 254.329,139.717 254.141,140.000 253.800 C 140.283 253.459,140.424 253.091,140.314 252.981 C 140.204 252.871,139.883 253.059,139.600 253.400 M96.400 254.200 C 96.400 254.530,96.580 254.800,96.800 254.800 C 97.020 254.800,97.200 254.530,97.200 254.200 C 97.200 253.870,97.020 253.600,96.800 253.600 C 96.580 253.600,96.400 253.870,96.400 254.200 M138.400 256.000 C 138.400 256.440,138.580 256.800,138.800 256.800 C 139.020 256.800,139.200 256.440,139.200 256.000 C 139.200 255.560,139.020 255.200,138.800 255.200 C 138.580 255.200,138.400 255.560,138.400 256.000 M89.600 257.400 C 89.600 257.730,89.780 258.000,90.000 258.000 C 90.220 258.000,90.400 257.730,90.400 257.400 C 90.400 257.070,90.220 256.800,90.000 256.800 C 89.780 256.800,89.600 257.070,89.600 257.400 M312.144 259.021 C 311.466 259.779,311.080 260.400,311.285 260.400 C 311.777 260.400,312.800 259.362,312.800 258.862 C 312.800 258.645,313.025 258.386,313.300 258.288 C 313.575 258.190,313.704 258.004,313.588 257.876 C 313.471 257.747,312.821 258.262,312.144 259.021 M289.592 259.410 C 288.844 260.311,289.278 260.415,290.170 259.548 C 290.593 259.137,290.751 258.800,290.519 258.800 C 290.287 258.800,289.870 259.074,289.592 259.410 M239.504 270.600 C 239.342 271.480,239.223 272.830,239.240 273.600 L 239.272 275.000 239.657 273.662 C 239.869 272.927,239.988 271.577,239.921 270.662 L 239.800 269.000 239.504 270.600 M278.240 271.840 C 278.090 273.303,278.049 274.582,278.148 274.682 C 278.248 274.781,278.457 273.671,278.613 272.213 C 278.769 270.756,278.811 269.477,278.705 269.372 C 278.599 269.266,278.390 270.377,278.240 271.840 M288.400 269.800 C 288.400 270.130,288.580 270.400,288.800 270.400 C 289.020 270.400,289.200 270.130,289.200 269.800 C 289.200 269.470,289.020 269.200,288.800 269.200 C 288.580 269.200,288.400 269.470,288.400 269.800 M302.649 269.815 C 302.512 270.173,302.415 270.766,302.434 271.133 C 302.453 271.500,302.627 271.269,302.821 270.620 C 303.198 269.358,303.065 268.733,302.649 269.815 M227.200 273.000 C 227.200 273.770,227.380 274.400,227.600 274.400 C 227.820 274.400,228.000 273.770,228.000 273.000 C 228.000 272.230,227.820 271.600,227.600 271.600 C 227.380 271.600,227.200 272.230,227.200 273.000 M237.612 273.020 C 237.623 274.054,237.677 274.109,238.054 273.461 C 238.361 272.932,238.358 272.598,238.041 272.281 C 237.720 271.960,237.603 272.159,237.612 273.020 M294.188 273.220 C 293.807 273.835,294.328 274.232,294.842 273.718 C 295.129 273.431,295.136 273.207,294.862 273.039 C 294.639 272.900,294.335 272.982,294.188 273.220 M233.660 273.842 C 233.362 274.178,233.199 274.532,233.295 274.629 C 233.392 274.726,233.798 274.444,234.198 274.002 C 234.597 273.561,234.761 273.207,234.562 273.215 C 234.363 273.224,233.957 273.505,233.660 273.842 M309.867 279.067 C 309.441 279.493,309.559 282.800,310.000 282.800 C 310.220 282.800,310.400 281.900,310.400 280.800 C 310.400 278.772,310.344 278.589,309.867 279.067 M306.000 280.200 C 306.000 280.530,306.180 280.800,306.400 280.800 C 306.620 280.800,306.800 280.530,306.800 280.200 C 306.800 279.870,306.620 279.600,306.400 279.600 C 306.180 279.600,306.000 279.870,306.000 280.200 M252.400 280.302 C 252.400 280.522,252.670 280.926,253.000 281.200 C 253.335 281.478,253.600 281.521,253.600 281.298 C 253.600 281.078,253.330 280.674,253.000 280.400 C 252.665 280.122,252.400 280.079,252.400 280.302 M291.067 280.267 C 290.941 280.392,291.108 280.765,291.438 281.095 C 291.768 281.425,292.141 281.592,292.267 281.467 C 292.392 281.341,292.225 280.968,291.895 280.638 C 291.565 280.308,291.192 280.141,291.067 280.267 " stroke="none" fill="#949494" fill-rule="evenodd"></path><path id="path3" d="M194.800 80.200 C 194.800 80.530,194.620 80.800,194.400 80.800 C 194.180 80.800,194.000 81.166,194.000 81.613 C 194.000 82.059,193.746 82.522,193.436 82.641 C 193.126 82.761,192.754 83.329,192.609 83.905 C 192.465 84.481,192.011 85.244,191.600 85.600 C 191.189 85.956,190.732 86.732,190.583 87.324 C 190.435 87.916,190.167 88.400,189.988 88.400 C 189.810 88.400,189.545 88.940,189.400 89.600 C 189.255 90.260,188.996 90.800,188.824 90.800 C 188.652 90.800,188.401 91.731,188.266 92.870 C 188.131 94.008,187.812 95.069,187.556 95.227 C 186.791 95.700,186.881 100.134,187.671 100.927 C 188.370 101.627,190.400 101.864,190.400 101.246 C 190.400 101.051,191.390 100.768,192.600 100.617 C 193.810 100.466,194.800 100.175,194.800 99.971 C 194.800 99.767,195.025 99.595,195.300 99.589 C 197.523 99.539,199.563 86.173,198.185 80.682 C 197.869 79.422,194.800 78.985,194.800 80.200 M209.317 83.100 C 209.175 83.485,208.865 83.928,208.629 84.085 C 208.031 84.483,208.040 98.723,208.638 99.114 C 208.880 99.271,209.197 99.892,209.345 100.494 C 209.519 101.208,209.957 101.674,210.606 101.837 C 211.711 102.114,211.970 103.372,211.000 103.745 C 210.670 103.871,210.400 104.251,210.400 104.587 C 210.400 104.924,210.240 105.200,210.045 105.200 C 209.850 105.200,209.563 106.055,209.406 107.100 C 209.250 108.145,208.923 109.123,208.680 109.273 C 208.430 109.429,208.167 111.197,208.072 113.373 C 207.980 115.478,207.746 117.200,207.552 117.200 C 207.354 117.200,207.200 126.363,207.200 138.200 C 207.200 149.750,207.354 159.200,207.542 159.200 C 207.730 159.200,207.997 160.402,208.134 161.871 C 208.271 163.340,208.544 164.645,208.741 164.771 C 208.938 164.897,209.232 165.612,209.395 166.361 C 209.654 167.555,210.190 168.228,212.304 170.013 C 212.581 170.247,213.706 170.545,214.804 170.675 C 215.902 170.805,216.800 171.066,216.800 171.256 C 216.800 171.445,217.430 171.600,218.200 171.600 C 218.970 171.600,219.600 171.446,219.600 171.257 C 219.600 171.068,220.715 170.797,222.078 170.655 C 223.440 170.513,224.657 170.231,224.782 170.030 C 224.906 169.828,225.501 169.540,226.104 169.388 C 226.707 169.237,227.200 168.972,227.200 168.800 C 227.200 168.628,227.650 168.374,228.200 168.236 C 228.750 168.098,229.200 167.808,229.200 167.592 C 229.200 167.377,229.389 167.200,229.619 167.200 C 229.850 167.200,230.455 166.750,230.965 166.200 C 231.475 165.650,232.082 165.200,232.315 165.200 C 232.688 165.200,233.217 164.709,235.803 161.966 C 236.131 161.618,236.400 161.166,236.400 160.961 C 236.400 160.757,236.850 160.252,237.400 159.839 C 237.972 159.409,238.400 158.684,238.400 158.144 C 238.400 157.625,238.567 157.200,238.771 157.200 C 238.975 157.200,239.266 156.210,239.417 155.000 C 239.568 153.790,239.851 152.800,240.046 152.800 C 240.241 152.800,240.400 150.460,240.400 147.600 C 240.400 144.740,240.243 142.400,240.052 142.400 C 239.860 142.400,239.579 141.140,239.427 139.600 C 239.276 138.060,239.008 136.800,238.831 136.800 C 238.655 136.800,238.400 135.856,238.263 134.702 C 238.126 133.549,237.831 132.544,237.607 132.469 C 237.383 132.394,237.200 131.898,237.200 131.367 C 237.200 130.835,237.040 130.400,236.845 130.400 C 236.650 130.400,236.369 129.590,236.221 128.600 C 236.072 127.610,235.802 126.800,235.620 126.800 C 235.438 126.800,235.171 126.170,235.026 125.400 C 234.882 124.630,234.592 124.000,234.382 124.000 C 234.172 124.000,234.000 123.731,234.000 123.403 C 234.000 122.608,232.685 119.600,232.337 119.600 C 232.187 119.600,231.948 119.075,231.807 118.433 C 231.666 117.792,231.292 117.167,230.976 117.046 C 230.659 116.924,230.400 116.459,230.400 116.013 C 230.400 115.566,230.220 115.200,230.000 115.200 C 229.780 115.200,229.600 114.924,229.600 114.587 C 229.600 114.251,229.330 113.871,229.000 113.745 C 228.670 113.618,228.400 113.265,228.400 112.961 C 228.400 112.656,227.860 111.891,227.200 111.260 C 226.540 110.629,226.000 110.000,226.000 109.861 C 226.000 109.457,224.655 108.000,224.283 108.000 C 224.096 108.000,223.692 107.775,223.385 107.500 C 222.062 106.313,221.609 106.000,221.217 106.000 C 220.988 106.000,220.800 105.834,220.800 105.632 C 220.800 105.429,220.260 105.145,219.600 105.000 C 218.940 104.855,218.400 104.591,218.400 104.414 C 218.400 104.236,217.590 103.969,216.600 103.821 C 214.937 103.571,214.030 102.800,215.400 102.800 C 215.730 102.800,216.000 102.620,216.000 102.400 C 216.000 102.180,216.527 102.000,217.171 102.000 C 219.257 102.000,220.604 97.966,218.752 97.266 C 218.558 97.193,218.286 96.428,218.148 95.566 C 218.010 94.705,217.741 94.000,217.549 94.000 C 217.357 94.000,217.200 93.640,217.200 93.200 C 217.200 92.760,217.043 92.400,216.851 92.400 C 216.659 92.400,216.387 91.680,216.246 90.800 C 216.106 89.920,215.836 89.200,215.646 89.200 C 215.457 89.200,215.187 88.480,215.046 87.600 C 214.906 86.720,214.632 86.000,214.439 86.000 C 214.245 86.000,213.974 85.550,213.836 85.000 C 213.698 84.450,213.408 84.000,213.192 84.000 C 212.977 84.000,212.800 83.749,212.800 83.443 C 212.800 82.273,209.733 81.971,209.317 83.100 M186.347 107.162 C 184.447 109.095,182.773 111.055,182.626 111.518 C 182.479 111.980,182.026 112.465,181.619 112.594 C 181.212 112.723,180.768 113.272,180.632 113.814 C 180.496 114.356,180.208 114.800,179.992 114.800 C 179.777 114.800,179.600 115.072,179.600 115.404 C 179.600 115.736,179.240 116.316,178.800 116.693 C 178.360 117.070,178.000 117.608,178.000 117.889 C 178.000 118.170,177.823 118.400,177.608 118.400 C 177.392 118.400,177.104 118.844,176.968 119.386 C 176.832 119.928,176.388 120.477,175.981 120.606 C 175.574 120.735,175.118 121.228,174.968 121.702 C 174.817 122.175,174.448 122.809,174.147 123.110 C 173.846 123.411,173.600 123.914,173.600 124.229 C 173.600 124.543,173.440 124.800,173.243 124.800 C 173.047 124.800,172.774 125.250,172.636 125.800 C 172.498 126.350,172.208 126.800,171.992 126.800 C 171.777 126.800,171.600 127.070,171.600 127.400 C 171.600 127.730,171.434 128.000,171.232 128.000 C 171.029 128.000,170.745 128.540,170.600 129.200 C 170.455 129.860,170.194 130.400,170.020 130.400 C 169.846 130.400,169.578 131.342,169.425 132.492 C 169.273 133.643,168.935 134.717,168.674 134.878 C 168.014 135.286,168.001 150.305,168.661 150.714 C 168.914 150.871,169.250 151.855,169.406 152.900 C 169.563 153.945,169.836 154.800,170.014 154.800 C 170.191 154.800,170.455 155.340,170.600 156.000 C 170.745 156.660,171.029 157.200,171.232 157.200 C 171.434 157.200,171.600 157.470,171.600 157.800 C 171.600 158.130,171.760 158.400,171.957 158.400 C 172.153 158.400,172.426 158.850,172.564 159.400 C 172.702 159.950,172.992 160.400,173.208 160.400 C 173.423 160.400,173.600 160.676,173.600 161.013 C 173.600 161.349,173.863 161.726,174.185 161.850 C 174.506 161.973,174.876 162.408,175.005 162.816 C 175.135 163.225,175.592 163.670,176.020 163.806 C 176.449 163.943,176.800 164.285,176.800 164.569 C 176.800 165.099,178.566 167.200,179.012 167.200 C 179.149 167.200,179.802 167.740,180.462 168.400 C 181.122 169.060,181.918 169.600,182.231 169.600 C 182.544 169.600,182.800 169.759,182.800 169.954 C 182.800 170.149,183.790 170.432,185.000 170.583 C 186.210 170.734,187.200 171.025,187.200 171.229 C 187.200 171.433,188.190 171.600,189.400 171.600 C 190.610 171.600,191.600 171.434,191.600 171.232 C 191.600 171.029,192.140 170.745,192.800 170.600 C 193.460 170.455,194.000 170.171,194.000 169.968 C 194.000 169.766,194.245 169.600,194.544 169.600 C 195.300 169.600,197.840 167.135,198.176 166.075 C 198.329 165.594,198.607 165.200,198.795 165.200 C 198.983 165.200,199.255 164.660,199.400 164.000 C 199.545 163.340,199.811 162.800,199.990 162.800 C 200.170 162.800,200.444 161.360,200.600 159.600 C 200.756 157.840,201.045 156.400,201.242 156.400 C 201.447 156.400,201.600 148.821,201.600 138.600 C 201.600 128.562,201.446 120.800,201.247 120.800 C 201.052 120.800,200.820 118.989,200.731 116.776 C 200.637 114.422,200.385 112.638,200.124 112.476 C 199.879 112.324,199.550 111.345,199.394 110.300 C 199.237 109.255,198.950 108.400,198.755 108.400 C 198.560 108.400,198.400 108.205,198.400 107.967 C 198.400 106.335,194.461 103.600,192.143 103.623 L 189.800 103.647 186.347 107.162 M150.600 136.000 C 150.460 136.440,150.193 136.800,150.005 136.800 C 149.817 136.800,149.545 137.340,149.400 138.000 C 149.255 138.660,148.973 139.200,148.773 139.200 C 148.573 139.200,148.294 139.920,148.154 140.800 C 148.013 141.680,147.755 142.400,147.581 142.400 C 147.406 142.400,147.145 142.940,147.000 143.600 C 146.855 144.260,146.571 144.800,146.368 144.800 C 146.166 144.800,146.000 145.250,146.000 145.800 C 146.000 146.350,145.828 146.800,145.618 146.800 C 145.408 146.800,145.118 147.430,144.974 148.200 C 144.829 148.970,144.569 149.600,144.396 149.600 C 144.223 149.600,143.955 150.860,143.800 152.400 C 143.645 153.940,143.357 155.200,143.159 155.200 C 142.550 155.200,142.762 156.747,143.489 157.595 C 143.868 158.038,144.408 158.400,144.689 158.400 C 144.970 158.400,145.200 158.580,145.200 158.800 C 145.200 159.020,146.100 159.200,147.200 159.200 C 148.300 159.200,149.200 159.036,149.200 158.835 C 149.200 158.634,149.945 158.344,150.855 158.191 C 152.862 157.852,156.400 154.507,156.400 152.949 C 156.400 152.427,156.580 152.000,156.800 152.000 C 157.035 152.000,157.200 150.600,157.200 148.600 C 157.200 146.730,157.045 145.200,156.856 145.200 C 156.666 145.200,156.401 144.269,156.266 143.130 C 156.131 141.992,155.859 140.957,155.661 140.830 C 155.463 140.704,155.174 140.015,155.018 139.300 C 154.863 138.585,154.579 138.000,154.386 138.000 C 154.194 138.000,153.918 137.370,153.774 136.600 C 153.456 134.909,151.088 134.462,150.600 136.000 M257.429 138.629 C 257.070 138.987,256.800 139.933,256.800 140.829 C 256.800 141.693,256.620 142.400,256.400 142.400 C 256.180 142.400,256.000 142.940,256.000 143.600 C 256.000 144.260,255.838 144.800,255.639 144.800 C 255.441 144.800,255.150 146.870,254.992 149.400 C 254.833 151.930,254.546 154.000,254.352 154.000 C 254.158 154.000,254.000 155.170,254.000 156.600 C 254.000 158.067,254.174 159.200,254.400 159.200 C 254.620 159.200,254.800 159.419,254.800 159.687 C 254.800 160.389,256.793 162.000,257.662 162.000 C 258.068 162.000,258.400 162.180,258.400 162.400 C 258.400 162.620,258.670 162.800,259.000 162.800 C 259.330 162.800,259.600 162.980,259.600 163.200 C 259.600 163.429,260.800 163.600,262.400 163.600 C 264.000 163.600,265.200 163.429,265.200 163.200 C 265.200 162.980,265.650 162.800,266.200 162.800 C 266.750 162.800,267.200 162.640,267.200 162.443 C 267.200 162.247,267.650 161.974,268.200 161.836 C 269.219 161.580,269.825 156.800,268.838 156.800 C 268.638 156.800,268.351 155.900,268.200 154.800 C 268.049 153.700,267.762 152.800,267.562 152.800 C 267.363 152.800,267.200 152.530,267.200 152.200 C 267.200 151.870,267.043 151.600,266.851 151.600 C 266.659 151.600,266.387 150.880,266.246 150.000 C 266.106 149.120,265.827 148.400,265.627 148.400 C 265.427 148.400,265.145 147.860,265.000 147.200 C 264.855 146.540,264.573 146.000,264.373 146.000 C 264.173 146.000,263.894 145.280,263.754 144.400 C 263.613 143.520,263.341 142.800,263.149 142.800 C 262.957 142.800,262.800 142.530,262.800 142.200 C 262.800 141.870,262.632 141.600,262.427 141.600 C 262.222 141.600,261.931 141.212,261.780 140.738 C 261.099 138.590,258.653 137.405,257.429 138.629 M148.813 163.868 C 147.732 164.341,142.911 169.420,142.596 170.416 C 142.425 170.957,141.963 171.681,141.570 172.024 C 141.176 172.367,140.732 173.132,140.583 173.724 C 140.435 174.316,140.176 174.800,140.008 174.800 C 139.840 174.800,139.587 175.520,139.446 176.400 C 139.306 177.280,139.033 178.000,138.841 178.000 C 138.649 178.000,138.368 178.990,138.217 180.200 C 138.066 181.410,137.793 182.400,137.610 182.400 C 137.428 182.400,137.153 183.480,137.000 184.800 C 136.847 186.120,136.559 187.200,136.361 187.200 C 136.162 187.200,136.000 188.190,136.000 189.400 C 136.000 190.610,135.820 191.600,135.600 191.600 C 135.355 191.600,135.200 193.533,135.200 196.600 C 135.200 199.667,135.355 201.600,135.600 201.600 C 135.820 201.600,136.000 202.590,136.000 203.800 C 136.000 205.010,136.159 206.000,136.354 206.000 C 136.549 206.000,136.832 206.990,136.983 208.200 C 137.134 209.410,137.414 210.400,137.604 210.400 C 137.795 210.400,138.072 211.210,138.221 212.200 C 138.369 213.190,138.636 214.000,138.814 214.000 C 138.991 214.000,139.255 214.540,139.400 215.200 C 139.545 215.860,139.817 216.400,140.005 216.400 C 140.193 216.400,140.474 216.805,140.630 217.300 C 140.954 218.324,142.279 219.600,143.018 219.600 C 143.291 219.600,143.618 219.870,143.745 220.200 C 143.871 220.530,144.251 220.800,144.587 220.800 C 144.924 220.800,145.200 220.964,145.200 221.165 C 145.200 221.366,145.920 221.651,146.800 221.800 C 147.680 221.949,148.400 222.234,148.400 222.435 C 148.400 222.636,149.120 222.800,150.000 222.800 C 150.880 222.800,151.600 222.980,151.600 223.200 C 151.600 223.422,152.667 223.600,154.000 223.600 C 155.333 223.600,156.400 223.422,156.400 223.200 C 156.400 222.980,157.120 222.800,158.000 222.800 C 158.880 222.800,159.600 222.643,159.600 222.452 C 159.600 222.260,160.500 221.984,161.600 221.838 C 162.700 221.692,163.600 221.399,163.600 221.186 C 163.600 220.974,163.803 220.800,164.052 220.800 C 164.945 220.800,169.199 216.107,169.451 214.843 C 169.588 214.159,169.858 213.600,170.050 213.600 C 170.243 213.600,170.400 213.255,170.400 212.833 C 170.400 212.411,170.509 211.781,170.643 211.433 C 171.090 210.268,171.600 210.784,171.600 212.400 C 171.600 213.280,171.759 214.000,171.954 214.000 C 172.149 214.000,172.432 214.990,172.583 216.200 C 172.734 217.410,173.002 218.400,173.178 218.400 C 173.354 218.400,173.613 219.120,173.754 220.000 C 173.894 220.880,174.185 221.600,174.400 221.600 C 174.615 221.600,174.906 222.320,175.046 223.200 C 175.187 224.080,175.459 224.800,175.651 224.800 C 175.843 224.800,176.000 225.070,176.000 225.400 C 176.000 225.730,176.166 226.000,176.368 226.000 C 176.571 226.000,176.855 226.540,177.000 227.200 C 177.145 227.860,177.415 228.400,177.600 228.400 C 177.785 228.400,178.055 228.940,178.200 229.600 C 178.345 230.260,178.621 230.800,178.814 230.800 C 179.006 230.800,179.282 231.430,179.426 232.200 C 179.571 232.970,179.849 233.600,180.045 233.600 C 180.240 233.600,180.400 233.876,180.400 234.213 C 180.400 234.549,180.670 234.929,181.000 235.055 C 181.330 235.182,181.600 235.536,181.600 235.843 C 181.600 236.149,181.777 236.400,181.992 236.400 C 182.208 236.400,182.498 236.850,182.636 237.400 C 182.774 237.950,183.033 238.400,183.212 238.400 C 183.390 238.400,183.655 238.940,183.800 239.600 C 183.945 240.260,184.217 240.800,184.405 240.800 C 184.593 240.800,184.874 241.205,185.030 241.700 C 185.187 242.195,185.623 242.870,186.000 243.200 C 186.377 243.530,186.822 244.233,186.990 244.762 C 187.157 245.292,187.697 246.102,188.191 246.562 C 188.685 247.023,189.216 247.805,189.371 248.300 C 189.527 248.795,189.822 249.200,190.027 249.200 C 190.232 249.200,190.400 249.445,190.400 249.744 C 190.400 250.043,190.839 250.618,191.376 251.021 C 191.913 251.424,192.456 252.169,192.584 252.677 C 192.711 253.185,192.992 253.600,193.208 253.600 C 193.423 253.600,193.600 253.830,193.600 254.111 C 193.600 254.392,193.960 254.930,194.400 255.307 C 194.840 255.684,195.200 256.224,195.200 256.508 C 195.200 256.791,195.560 257.283,196.000 257.600 C 196.440 257.917,196.800 258.344,196.800 258.548 C 196.800 260.284,200.904 262.213,202.230 261.100 C 204.014 259.603,205.200 258.273,205.200 257.769 C 205.200 257.456,205.360 257.200,205.557 257.200 C 205.753 257.200,206.023 256.762,206.158 256.227 C 206.292 255.691,206.752 255.142,207.180 255.006 C 207.609 254.870,208.082 254.372,208.232 253.898 C 208.383 253.425,208.752 252.791,209.053 252.490 C 209.354 252.189,209.600 251.686,209.600 251.371 C 209.600 251.057,209.780 250.800,210.000 250.800 C 210.220 250.800,210.400 250.570,210.400 250.289 C 210.400 250.008,210.760 249.470,211.200 249.093 C 211.640 248.716,212.000 248.179,212.000 247.899 C 212.000 247.619,212.450 247.052,213.000 246.639 C 213.550 246.226,214.000 245.643,214.000 245.344 C 214.000 245.045,214.160 244.800,214.357 244.800 C 214.553 244.800,214.826 244.350,214.964 243.800 C 215.102 243.250,215.378 242.800,215.576 242.800 C 215.774 242.800,216.047 242.295,216.183 241.678 C 216.319 241.060,216.783 240.301,217.215 239.989 C 217.647 239.678,218.000 239.187,218.000 238.899 C 218.000 238.611,218.252 238.278,218.561 238.160 C 218.869 238.041,219.237 237.327,219.379 236.572 C 219.520 235.818,219.808 235.200,220.018 235.200 C 220.228 235.200,220.400 234.924,220.400 234.587 C 220.400 234.251,220.652 233.878,220.961 233.760 C 221.269 233.641,221.637 232.927,221.779 232.172 C 221.920 231.418,222.208 230.800,222.418 230.800 C 222.628 230.800,222.800 230.530,222.800 230.200 C 222.800 229.870,222.966 229.600,223.168 229.600 C 223.371 229.600,223.655 229.060,223.800 228.400 C 223.945 227.740,224.215 227.200,224.400 227.200 C 224.585 227.200,224.855 226.660,225.000 226.000 C 225.145 225.340,225.406 224.800,225.581 224.800 C 225.755 224.800,226.013 224.080,226.154 223.200 C 226.294 222.320,226.587 221.600,226.805 221.600 C 227.022 221.600,227.200 221.150,227.200 220.600 C 227.200 220.050,227.369 219.600,227.575 219.600 C 227.782 219.600,228.074 218.782,228.224 217.783 C 228.519 215.814,229.314 215.538,229.527 217.331 C 229.596 217.919,229.798 218.400,229.975 218.400 C 230.153 218.400,230.413 219.120,230.554 220.000 C 230.694 220.880,230.987 221.600,231.205 221.600 C 231.422 221.600,231.600 221.794,231.600 222.032 C 231.600 222.595,236.205 227.200,236.768 227.200 C 237.006 227.200,237.200 227.377,237.200 227.592 C 237.200 227.808,237.650 228.098,238.200 228.236 C 238.750 228.374,239.200 228.639,239.200 228.825 C 239.200 229.011,239.875 229.288,240.700 229.440 C 241.525 229.591,242.328 229.914,242.485 230.158 C 242.908 230.812,251.681 230.758,251.900 230.100 C 251.992 229.825,252.334 229.600,252.660 229.600 C 253.429 229.600,260.221 222.794,260.580 221.664 C 260.731 221.189,261.022 220.800,261.227 220.800 C 261.432 220.800,261.600 220.539,261.600 220.220 C 261.600 219.901,261.825 219.496,262.100 219.320 C 262.685 218.945,263.524 217.696,263.858 216.700 C 263.988 216.315,264.250 216.000,264.442 216.000 C 264.634 216.000,264.906 215.280,265.046 214.400 C 265.187 213.520,265.457 212.800,265.646 212.800 C 265.836 212.800,266.106 212.080,266.246 211.200 C 266.387 210.320,266.659 209.600,266.851 209.600 C 267.043 209.600,267.200 209.251,267.200 208.824 C 267.200 208.397,267.359 207.949,267.553 207.829 C 267.748 207.709,268.036 206.573,268.194 205.305 C 268.352 204.037,268.688 202.871,268.941 202.714 C 269.545 202.338,269.538 184.463,268.933 184.068 C 268.707 183.921,268.403 182.630,268.257 181.200 C 268.111 179.770,267.814 178.540,267.596 178.467 C 267.378 178.393,267.200 177.988,267.200 177.567 C 267.200 177.145,267.037 176.800,266.838 176.800 C 266.638 176.800,266.351 175.900,266.200 174.800 C 266.049 173.700,265.781 172.800,265.606 172.800 C 265.430 172.800,265.167 172.324,265.021 171.743 C 264.876 171.162,263.911 169.857,262.878 168.843 L 261.000 167.000 258.025 167.026 C 256.109 167.043,254.993 167.222,254.891 167.526 C 254.804 167.787,254.500 168.000,254.215 168.000 C 253.468 168.000,249.768 171.635,249.431 172.700 C 249.274 173.195,248.978 173.600,248.773 173.600 C 248.568 173.600,248.400 173.876,248.400 174.213 C 248.400 174.549,248.130 174.929,247.800 175.055 C 247.470 175.182,247.200 175.632,247.200 176.055 C 247.200 176.479,246.930 176.929,246.600 177.055 C 246.270 177.182,246.000 177.536,246.000 177.843 C 246.000 178.149,245.834 178.400,245.632 178.400 C 245.429 178.400,245.145 178.940,245.000 179.600 C 244.855 180.260,244.574 180.800,244.376 180.800 C 244.178 180.800,243.902 181.250,243.764 181.800 C 243.626 182.350,243.367 182.800,243.188 182.800 C 243.010 182.800,242.745 183.340,242.600 184.000 C 242.455 184.660,242.171 185.200,241.968 185.200 C 241.766 185.200,241.600 185.560,241.600 186.000 C 241.600 186.440,241.434 186.800,241.232 186.800 C 241.029 186.800,240.745 187.340,240.600 188.000 C 240.455 188.660,240.185 189.200,240.000 189.200 C 239.815 189.200,239.545 189.740,239.400 190.400 C 239.255 191.060,238.985 191.600,238.800 191.600 C 238.615 191.600,238.345 192.140,238.200 192.800 C 238.055 193.460,237.783 194.000,237.595 194.000 C 237.407 194.000,237.126 194.405,236.970 194.900 C 236.813 195.395,236.384 196.070,236.015 196.400 C 235.646 196.730,235.228 197.315,235.085 197.700 C 234.942 198.085,234.654 198.400,234.444 198.400 C 234.235 198.400,233.945 198.940,233.800 199.600 C 233.655 200.260,233.374 200.800,233.176 200.800 C 232.978 200.800,232.702 201.250,232.564 201.800 C 232.426 202.350,232.153 202.800,231.957 202.800 C 231.760 202.800,231.600 203.250,231.600 203.800 C 231.600 204.350,231.432 204.800,231.227 204.800 C 231.021 204.800,230.778 205.295,230.687 205.900 L 230.520 207.000 230.460 205.900 C 230.427 205.295,230.246 204.800,230.059 204.800 C 229.871 204.800,229.600 203.415,229.457 201.723 C 229.314 200.030,229.026 198.540,228.817 198.411 C 228.608 198.282,228.316 197.416,228.168 196.488 C 228.019 195.560,227.741 194.800,227.549 194.800 C 227.357 194.800,227.200 194.530,227.200 194.200 C 227.200 193.870,227.028 193.600,226.818 193.600 C 226.608 193.600,226.318 192.970,226.174 192.200 C 226.029 191.430,225.751 190.800,225.555 190.800 C 225.360 190.800,225.200 190.524,225.200 190.187 C 225.200 189.851,224.946 189.478,224.636 189.359 C 224.326 189.239,223.966 188.717,223.835 188.198 C 223.705 187.678,223.239 187.139,222.799 187.000 C 222.360 186.860,222.000 186.594,222.000 186.409 C 222.000 185.822,216.388 180.400,215.781 180.400 C 215.461 180.400,215.200 180.234,215.200 180.032 C 215.200 179.829,214.660 179.545,214.000 179.400 C 213.340 179.255,212.800 178.979,212.800 178.786 C 212.800 178.594,212.125 178.312,211.300 178.160 C 210.475 178.009,209.696 177.726,209.570 177.532 C 209.443 177.338,208.408 177.069,207.270 176.934 C 206.131 176.799,205.200 176.534,205.200 176.344 C 205.200 176.155,202.950 176.000,200.200 176.000 C 197.351 176.000,195.200 176.162,195.200 176.375 C 195.200 176.582,194.390 176.872,193.400 177.021 C 192.410 177.169,191.600 177.430,191.600 177.600 C 191.600 177.770,190.790 178.031,189.800 178.179 C 188.810 178.328,188.000 178.615,188.000 178.817 C 188.000 179.019,187.550 179.298,187.000 179.436 C 186.450 179.574,186.000 179.828,186.000 180.000 C 186.000 180.172,185.550 180.426,185.000 180.564 C 184.450 180.702,184.000 180.980,184.000 181.182 C 184.000 181.384,183.456 182.056,182.792 182.675 C 181.638 183.748,181.067 184.318,178.100 187.352 C 177.385 188.083,176.800 188.888,176.800 189.140 C 176.800 189.393,176.620 189.600,176.400 189.600 C 176.180 189.600,176.000 189.870,176.000 190.200 C 176.000 190.530,175.823 190.800,175.608 190.800 C 175.392 190.800,175.102 191.250,174.964 191.800 C 174.826 192.350,174.570 192.800,174.394 192.800 C 174.219 192.800,173.951 193.700,173.800 194.800 C 173.649 195.900,173.381 196.800,173.206 196.800 C 173.030 196.800,172.724 197.655,172.524 198.700 C 172.210 200.349,172.125 199.810,171.876 194.620 C 171.719 191.332,171.434 188.542,171.243 188.420 C 171.053 188.299,170.768 187.255,170.611 186.100 C 170.454 184.945,170.173 184.000,169.987 184.000 C 169.801 184.000,169.528 183.190,169.379 182.200 C 169.231 181.210,168.964 180.400,168.786 180.400 C 168.609 180.400,168.345 179.860,168.200 179.200 C 168.055 178.540,167.771 178.000,167.568 178.000 C 167.366 178.000,167.200 177.730,167.200 177.400 C 167.200 177.070,167.040 176.800,166.845 176.800 C 166.649 176.800,166.371 176.170,166.226 175.400 C 166.082 174.630,165.786 174.000,165.569 174.000 C 165.352 174.000,165.055 173.685,164.908 173.300 C 164.761 172.915,164.227 172.152,163.721 171.604 C 163.214 171.056,162.800 170.484,162.800 170.331 C 162.800 169.765,158.029 165.263,157.132 164.983 C 156.619 164.823,156.090 164.521,155.955 164.312 C 155.668 163.865,149.670 163.492,148.813 163.868 M203.600 186.800 C 203.600 187.020,204.140 187.200,204.800 187.200 C 205.460 187.200,206.000 187.366,206.000 187.568 C 206.000 187.771,206.540 188.055,207.200 188.200 C 207.860 188.345,208.400 188.610,208.400 188.788 C 208.400 188.967,208.850 189.226,209.400 189.364 C 209.950 189.502,210.400 189.792,210.400 190.008 C 210.400 190.223,210.656 190.400,210.969 190.400 C 211.756 190.400,214.800 193.575,214.800 194.396 C 214.800 194.632,215.070 194.929,215.400 195.055 C 215.730 195.182,216.000 195.536,216.000 195.843 C 216.000 196.149,216.160 196.400,216.355 196.400 C 216.551 196.400,216.827 197.017,216.968 197.771 C 217.110 198.525,217.411 199.204,217.638 199.279 C 217.866 199.355,218.154 200.178,218.278 201.109 C 218.403 202.039,218.662 202.800,218.853 202.800 C 219.044 202.800,219.200 204.780,219.200 207.200 C 219.200 209.620,219.044 211.600,218.853 211.600 C 218.662 211.600,218.405 212.346,218.283 213.258 C 218.161 214.169,217.890 215.024,217.681 215.158 C 217.472 215.291,217.174 215.985,217.018 216.700 C 216.863 217.415,216.571 218.000,216.368 218.000 C 216.166 218.000,216.000 218.270,216.000 218.600 C 216.000 218.930,215.820 219.200,215.600 219.200 C 215.380 219.200,215.200 219.410,215.200 219.666 C 215.200 219.923,214.931 220.418,214.603 220.766 C 214.274 221.115,213.450 221.985,212.772 222.700 C 212.094 223.415,211.282 224.000,210.969 224.000 C 210.656 224.000,210.400 224.177,210.400 224.392 C 210.400 224.608,209.950 224.898,209.400 225.036 C 208.850 225.174,208.400 225.447,208.400 225.643 C 208.400 225.840,208.145 226.000,207.833 226.000 C 207.522 226.000,207.203 226.192,207.125 226.426 C 207.047 226.660,206.222 226.954,205.291 227.078 C 204.361 227.203,203.600 227.462,203.600 227.653 C 203.600 227.844,202.340 228.000,200.800 228.000 C 199.260 228.000,198.000 227.843,198.000 227.652 C 198.000 227.461,197.151 227.208,196.113 227.091 C 195.075 226.974,194.160 226.681,194.080 226.439 C 193.999 226.198,193.678 226.000,193.367 226.000 C 193.055 226.000,192.800 225.840,192.800 225.643 C 192.800 225.447,192.331 225.169,191.757 225.025 C 190.658 224.749,186.000 220.392,186.000 219.639 C 186.000 219.398,185.834 219.200,185.632 219.200 C 185.429 219.200,185.145 218.660,185.000 218.000 C 184.855 217.340,184.587 216.800,184.403 216.800 C 184.220 216.800,183.949 216.080,183.800 215.200 C 183.651 214.320,183.366 213.600,183.165 213.600 C 182.964 213.600,182.800 212.970,182.800 212.200 C 182.800 211.430,182.620 210.800,182.400 210.800 C 182.160 210.800,182.000 209.200,182.000 206.800 C 182.000 204.400,182.160 202.800,182.400 202.800 C 182.620 202.800,182.800 202.260,182.800 201.600 C 182.800 200.940,182.966 200.400,183.168 200.400 C 183.371 200.400,183.655 199.860,183.800 199.200 C 183.945 198.540,184.209 198.000,184.387 198.000 C 184.565 198.000,184.826 197.387,184.966 196.639 C 185.107 195.890,185.487 195.176,185.811 195.051 C 186.135 194.927,186.400 194.632,186.400 194.395 C 186.400 193.641,190.647 189.654,191.744 189.378 C 192.325 189.233,192.800 188.967,192.800 188.788 C 192.800 188.610,193.340 188.345,194.000 188.200 C 194.660 188.055,195.200 187.771,195.200 187.568 C 195.200 187.366,195.830 187.200,196.600 187.200 C 197.370 187.200,198.000 187.020,198.000 186.800 C 198.000 186.571,199.200 186.400,200.800 186.400 C 202.400 186.400,203.600 186.571,203.600 186.800 M91.874 237.065 C 91.740 238.971,91.443 240.717,91.215 240.945 C 90.643 241.517,90.679 244.800,91.257 244.800 C 91.788 244.800,91.375 252.839,90.826 253.192 C 90.647 253.306,90.592 254.795,90.703 256.500 L 90.905 259.600 102.192 259.600 L 113.478 259.600 114.961 256.600 C 115.776 254.950,116.608 253.600,116.809 253.600 C 117.010 253.600,117.071 253.330,116.945 253.000 C 116.797 252.615,116.953 252.400,117.381 252.400 C 117.768 252.400,117.932 252.214,117.772 251.955 C 117.236 251.087,118.664 250.812,123.747 250.806 C 128.641 250.800,128.883 250.838,128.691 251.574 C 128.580 252.000,128.694 252.427,128.944 252.523 C 129.195 252.619,129.927 254.251,130.571 256.149 L 131.742 259.600 134.225 259.600 C 136.676 259.600,138.305 258.110,136.578 257.447 C 136.302 257.341,135.948 256.657,135.792 255.927 C 135.635 255.197,135.372 254.420,135.207 254.200 C 134.602 253.395,133.166 248.665,133.367 248.141 C 133.484 247.838,133.317 247.600,132.987 247.600 C 132.664 247.600,132.400 247.270,132.400 246.867 C 132.400 246.463,132.284 246.017,132.141 245.875 C 131.698 245.431,130.452 241.439,130.655 241.111 C 130.761 240.940,130.657 240.800,130.424 240.800 C 130.191 240.800,130.000 240.476,130.000 240.080 C 130.000 239.684,129.856 239.189,129.681 238.980 C 129.082 238.268,127.931 234.435,128.190 234.017 C 128.361 233.740,127.266 233.600,124.923 233.600 L 121.399 233.600 119.697 237.100 C 117.776 241.049,116.329 243.702,115.932 244.004 C 115.784 244.116,115.540 244.701,115.388 245.304 C 115.237 245.907,114.852 246.400,114.533 246.400 C 114.214 246.400,114.055 246.566,114.180 246.768 C 114.375 247.083,111.024 254.228,110.413 254.800 C 110.296 254.910,109.930 255.526,109.600 256.168 C 108.759 257.804,108.000 257.951,108.000 256.477 C 108.000 254.920,107.258 254.743,101.051 254.820 L 96.200 254.881 96.332 251.340 C 96.405 249.393,96.606 247.748,96.781 247.684 C 96.955 247.620,97.006 245.182,96.895 242.266 C 96.721 237.715,96.785 236.872,97.346 236.311 C 99.070 234.587,98.237 233.600,95.059 233.600 L 92.119 233.600 91.874 237.065 M141.200 235.200 C 141.200 236.080,141.020 236.800,140.800 236.800 C 140.580 236.800,140.400 237.175,140.400 237.634 C 140.400 238.451,140.532 238.465,147.200 238.334 C 150.941 238.260,154.001 238.270,154.000 238.356 C 154.000 238.584,149.362 243.898,144.566 249.166 C 139.286 254.966,139.600 254.461,139.600 257.148 L 139.600 259.600 149.354 259.600 L 159.108 259.600 159.387 257.366 C 159.540 256.138,159.600 255.066,159.519 254.986 C 159.251 254.717,147.660 254.716,147.226 254.984 C 145.892 255.808,146.173 254.495,147.679 252.860 C 148.626 251.833,150.480 249.745,151.800 248.220 C 153.120 246.695,155.590 243.907,157.289 242.024 C 160.203 238.795,160.379 238.494,160.389 236.733 C 160.395 235.706,160.509 234.581,160.643 234.233 C 160.860 233.666,159.854 233.600,151.043 233.600 L 141.200 233.600 141.200 235.200 M304.731 235.208 C 304.656 235.433,304.011 235.658,303.298 235.708 C 302.585 235.759,302.001 235.935,302.001 236.100 C 302.000 236.265,301.806 236.400,301.569 236.400 C 301.332 236.400,300.612 236.926,299.969 237.569 C 299.326 238.212,298.800 238.932,298.800 239.169 C 298.800 239.406,298.658 239.600,298.485 239.600 C 297.917 239.600,298.610 244.175,299.346 245.279 C 299.741 245.872,301.085 247.209,302.332 248.249 C 305.408 250.813,308.400 253.988,308.400 254.687 C 308.400 257.108,302.899 258.488,299.278 256.975 C 297.188 256.102,295.457 257.122,297.200 258.200 C 297.420 258.336,297.600 259.048,297.600 259.783 C 297.600 261.074,297.664 261.128,299.500 261.377 C 303.874 261.970,306.400 262.064,306.400 261.634 C 306.400 261.395,306.790 261.200,307.266 261.200 C 311.300 261.200,314.501 256.076,312.674 252.542 C 311.983 251.207,309.314 248.426,307.206 246.845 C 304.417 244.755,303.551 243.829,303.734 243.132 C 303.833 242.750,303.709 242.354,303.458 242.251 C 303.134 242.118,303.143 242.054,303.487 242.032 C 303.756 242.014,303.879 241.750,303.762 241.445 C 303.151 239.852,311.277 238.106,312.218 239.629 C 312.375 239.883,312.715 239.614,313.046 238.976 C 313.865 237.398,312.414 235.600,310.324 235.600 C 309.706 235.600,309.200 235.420,309.200 235.200 C 309.200 234.672,304.907 234.680,304.731 235.208 M245.423 238.700 C 245.280 240.625,245.127 245.170,245.082 248.800 C 245.019 253.873,244.862 255.608,244.404 256.300 C 243.957 256.974,243.916 257.375,244.239 257.900 C 244.477 258.285,244.590 259.275,244.492 260.100 L 244.312 261.600 246.812 261.600 C 250.469 261.600,250.376 261.894,250.147 251.000 C 249.915 239.997,249.657 240.633,254.498 240.242 C 257.876 239.968,258.029 239.993,258.998 240.961 C 261.829 243.792,258.848 247.879,254.300 247.402 C 253.035 247.269,252.000 247.235,252.000 247.327 C 252.000 247.419,252.814 249.089,253.808 251.038 C 254.802 252.987,255.528 254.810,255.421 255.091 C 255.313 255.371,255.509 255.600,255.855 255.600 C 256.235 255.600,256.399 255.826,256.268 256.167 C 256.148 256.479,256.309 256.833,256.625 256.954 C 256.941 257.076,257.201 257.406,257.202 257.687 C 257.204 257.969,257.466 258.701,257.785 259.312 C 258.104 259.924,258.264 260.689,258.140 261.012 C 257.954 261.498,258.450 261.600,261.000 261.600 C 263.658 261.600,264.052 261.512,263.841 260.963 C 263.707 260.612,263.488 259.892,263.355 259.363 C 263.222 258.833,262.969 258.400,262.792 258.400 C 262.423 258.400,260.568 254.752,260.708 254.300 C 260.758 254.135,260.620 254.000,260.400 254.000 C 260.180 254.000,260.000 253.730,260.000 253.400 C 260.000 253.070,259.865 252.798,259.700 252.795 C 259.204 252.788,257.886 249.708,258.177 249.237 C 258.326 248.997,258.977 248.800,259.624 248.800 C 260.271 248.800,260.800 248.640,260.800 248.443 C 260.800 248.247,261.205 247.983,261.700 247.856 C 266.227 246.696,265.267 236.400,260.632 236.400 C 260.118 236.400,259.474 236.130,259.200 235.800 C 258.633 235.117,257.369 235.002,257.000 235.600 C 256.864 235.820,255.964 236.000,255.000 236.000 C 254.036 236.000,253.136 235.820,253.000 235.600 C 252.864 235.380,251.162 235.200,249.217 235.200 L 245.682 235.200 245.423 238.700 M269.736 236.100 C 269.562 236.595,269.415 239.520,269.410 242.600 C 269.404 245.680,269.220 248.470,269.000 248.800 C 268.542 249.487,268.448 255.598,268.895 255.599 C 269.057 255.600,269.441 256.203,269.749 256.941 C 270.567 258.898,274.182 261.200,276.438 261.200 C 277.051 261.200,277.664 261.380,277.800 261.600 C 277.936 261.820,279.106 262.000,280.400 262.000 C 281.694 262.000,282.864 261.820,283.000 261.600 C 283.136 261.380,283.762 261.200,284.390 261.200 C 287.209 261.200,290.752 258.769,291.577 256.269 C 291.844 255.461,292.184 254.800,292.334 254.800 C 292.484 254.800,292.541 253.371,292.462 251.624 C 292.355 249.279,292.485 248.112,292.959 247.163 C 293.693 245.691,293.785 244.345,293.192 243.752 C 292.696 243.256,293.150 236.322,293.658 236.636 C 293.846 236.752,294.000 236.469,294.000 236.006 C 294.000 235.218,293.818 235.172,291.100 235.282 L 288.200 235.400 288.087 237.200 C 288.025 238.190,287.854 239.270,287.706 239.600 C 287.558 239.930,287.403 242.450,287.362 245.200 C 287.238 253.423,287.111 254.052,285.150 256.170 C 283.175 258.303,277.629 258.075,275.311 255.766 C 274.188 254.648,273.796 245.504,274.815 244.200 C 274.986 243.980,275.028 241.865,274.906 239.500 L 274.685 235.200 272.370 235.200 C 270.329 235.200,270.016 235.307,269.736 236.100 M124.673 238.500 C 125.254 239.406,125.960 241.741,125.755 242.074 C 125.644 242.253,125.700 242.400,125.879 242.400 C 126.195 242.400,127.353 245.588,127.117 245.808 C 126.776 246.127,120.000 246.146,120.000 245.828 C 120.000 245.223,123.751 238.000,124.065 238.000 C 124.223 238.000,124.497 238.225,124.673 238.500 M228.300 274.206 C 228.171 277.186,227.890 279.450,227.607 279.792 C 226.706 280.877,227.490 282.800,228.832 282.800 L 230.000 282.800 230.000 278.824 C 230.000 276.604,230.177 274.738,230.400 274.600 C 230.620 274.464,230.800 273.752,230.800 273.018 C 230.800 271.602,233.421 270.724,234.700 271.712 C 236.140 272.824,234.462 275.503,232.616 275.040 C 231.736 274.819,231.600 274.915,231.600 275.759 C 231.600 276.295,231.375 276.824,231.100 276.935 C 230.825 277.046,231.365 277.151,232.300 277.168 C 233.235 277.186,234.000 277.053,234.000 276.874 C 234.000 276.695,234.630 276.248,235.400 275.881 C 236.170 275.513,236.800 275.030,236.800 274.806 C 236.800 274.583,237.106 274.400,237.480 274.400 C 238.009 274.400,238.053 274.293,237.680 273.920 C 237.416 273.656,237.200 273.014,237.200 272.494 C 237.200 271.224,236.506 270.000,235.786 270.000 C 235.464 270.000,235.200 269.865,235.200 269.700 C 235.200 269.535,233.696 269.354,231.858 269.297 L 228.517 269.195 228.300 274.206 M240.263 269.470 C 240.118 269.615,240.000 271.917,240.000 274.587 C 240.000 277.329,239.824 279.616,239.595 279.845 C 238.724 280.716,239.608 282.800,240.850 282.800 L 242.000 282.800 242.000 280.024 C 242.000 278.390,242.186 277.132,242.452 276.968 C 242.757 276.780,242.824 275.824,242.659 274.044 L 242.413 271.400 244.507 271.400 C 246.968 271.400,247.600 271.719,247.600 272.962 C 247.600 274.367,246.296 275.329,244.827 275.006 C 243.340 274.679,243.343 274.626,244.680 277.488 C 245.273 278.760,245.723 279.935,245.680 280.100 C 245.636 280.265,245.758 280.400,245.950 280.400 C 246.143 280.400,246.408 280.940,246.540 281.600 C 246.745 282.627,246.961 282.800,248.033 282.800 C 249.522 282.800,249.459 281.797,247.813 279.268 C 246.465 277.197,246.409 276.342,247.581 275.745 C 250.440 274.289,250.592 270.000,247.784 270.000 C 247.463 270.000,247.200 269.854,247.200 269.675 C 247.200 269.286,240.641 269.092,240.263 269.470 M257.600 269.595 C 257.270 269.787,256.190 270.313,255.200 270.765 C 251.492 272.457,250.678 277.460,253.634 280.387 C 254.533 281.277,255.441 281.898,255.652 281.768 C 255.863 281.638,256.471 281.817,257.004 282.166 C 258.069 282.863,260.400 283.030,260.400 282.408 C 260.400 282.192,260.895 281.899,261.500 281.756 C 263.282 281.337,265.073 280.074,265.555 278.896 C 266.077 277.622,266.346 273.200,265.901 273.200 C 265.736 273.200,265.599 272.975,265.599 272.700 C 265.598 272.425,265.059 271.840,264.400 271.400 C 263.741 270.960,263.202 270.465,263.201 270.300 C 263.201 270.135,262.660 270.000,262.000 270.000 C 261.340 270.000,260.800 269.820,260.800 269.600 C 260.800 269.114,258.435 269.111,257.600 269.595 M273.020 271.900 C 272.884 273.385,272.734 275.590,272.686 276.800 C 272.561 280.004,271.756 280.967,269.424 280.704 C 267.398 280.476,266.747 281.371,268.600 281.836 C 269.150 281.974,269.600 282.247,269.600 282.443 C 269.600 282.640,270.140 282.800,270.800 282.800 C 271.460 282.800,272.000 282.642,272.000 282.449 C 272.000 282.255,272.534 281.876,273.187 281.606 C 274.545 281.043,274.637 280.810,275.009 277.000 C 275.160 275.460,275.450 274.096,275.653 273.969 C 276.642 273.352,275.533 269.200,274.379 269.200 C 273.299 269.200,273.261 269.274,273.020 271.900 M278.800 274.120 C 278.800 277.081,278.630 279.210,278.372 279.468 C 278.116 279.724,278.054 280.480,278.217 281.348 L 278.489 282.800 282.802 282.800 C 286.365 282.800,287.157 282.690,287.357 282.167 C 287.969 280.572,287.700 280.400,284.600 280.400 L 281.600 280.400 281.600 278.800 L 281.600 277.200 284.200 277.200 L 286.800 277.200 286.800 275.955 L 286.800 274.710 284.000 274.868 L 281.200 275.026 281.200 273.213 L 281.199 271.400 284.500 271.400 L 287.800 271.400 287.927 270.300 L 288.053 269.200 283.427 269.200 L 278.800 269.200 278.800 274.120 M296.400 269.583 C 296.070 269.767,295.037 270.233,294.105 270.618 C 289.407 272.556,289.623 280.314,294.411 281.603 C 295.285 281.838,296.000 282.204,296.000 282.415 C 296.000 282.627,296.630 282.800,297.400 282.800 C 298.170 282.800,298.800 282.628,298.800 282.418 C 298.800 282.208,299.441 281.916,300.224 281.769 C 301.249 281.577,301.585 281.338,301.424 280.918 C 301.301 280.597,301.200 280.253,301.200 280.153 C 301.200 280.053,300.885 280.141,300.499 280.347 C 299.335 280.970,295.600 280.850,295.600 280.190 C 295.600 279.859,295.358 279.718,295.016 279.849 C 294.241 280.146,292.803 277.775,292.803 276.200 C 292.803 273.102,295.333 271.027,298.803 271.278 C 301.547 271.476,302.023 270.869,299.939 269.829 C 298.564 269.144,297.337 269.058,296.400 269.583 M303.200 270.400 C 303.200 271.566,303.254 271.600,305.113 271.600 L 307.026 271.600 307.012 277.200 L 306.999 282.800 308.044 282.800 L 309.088 282.800 309.308 278.300 C 309.589 272.554,310.012 271.607,312.300 271.603 C 313.922 271.600,314.000 271.545,314.000 270.400 L 314.000 269.200 308.600 269.200 L 303.200 269.200 303.200 270.400 M262.587 272.613 C 264.759 274.785,264.435 277.860,261.800 280.072 C 260.188 281.425,255.200 280.580,255.200 278.954 C 255.200 278.649,255.043 278.400,254.850 278.400 C 254.264 278.400,254.015 276.180,254.431 274.672 C 255.426 271.071,259.911 269.938,262.587 272.613 " stroke="none" fill="#646464" fill-rule="evenodd"></path><path id="path4" d="M91.067 233.867 C 90.648 234.285,90.755 236.000,91.200 236.000 C 91.420 236.000,91.600 235.460,91.600 234.800 C 91.600 233.557,91.519 233.415,91.067 233.867 M161.012 234.117 C 160.841 234.512,160.813 234.947,160.951 235.084 C 161.357 235.490,161.684 234.920,161.497 234.131 C 161.332 233.433,161.310 233.432,161.012 234.117 M97.206 238.500 C 97.220 239.642,97.988 240.226,97.994 239.100 C 97.997 238.495,97.820 238.000,97.600 238.000 C 97.380 238.000,97.203 238.225,97.206 238.500 M158.880 240.480 C 158.316 241.044,158.253 241.600,158.753 241.600 C 158.948 241.600,159.201 241.240,159.316 240.800 C 159.560 239.866,159.522 239.838,158.880 240.480 M250.273 244.553 C 250.123 244.945,250.011 245.566,250.025 245.933 C 250.042 246.375,250.181 246.274,250.437 245.634 C 250.649 245.103,250.761 244.482,250.685 244.254 C 250.609 244.027,250.424 244.161,250.273 244.553 M298.400 245.557 C 298.400 245.754,298.685 246.024,299.033 246.157 C 300.011 246.533,300.108 246.451,299.457 245.800 C 298.777 245.120,298.400 245.033,298.400 245.557 M274.600 246.800 C 274.450 247.273,274.417 247.750,274.527 247.860 C 274.637 247.970,274.850 247.673,275.000 247.200 C 275.150 246.727,275.183 246.250,275.073 246.140 C 274.963 246.030,274.750 246.327,274.600 246.800 M292.828 249.300 C 292.907 250.694,293.544 251.380,293.572 250.100 C 293.587 249.385,293.420 248.800,293.200 248.800 C 292.980 248.800,292.813 249.025,292.828 249.300 M96.400 251.224 C 96.400 251.677,96.580 251.936,96.800 251.800 C 97.020 251.664,97.200 251.293,97.200 250.976 C 97.200 250.659,97.020 250.400,96.800 250.400 C 96.580 250.400,96.400 250.771,96.400 251.224 M244.000 253.800 C 244.000 254.130,244.180 254.400,244.400 254.400 C 244.620 254.400,244.800 254.130,244.800 253.800 C 244.800 253.470,244.620 253.200,244.400 253.200 C 244.180 253.200,244.000 253.470,244.000 253.800 M159.600 258.600 C 159.600 259.150,159.780 259.600,160.000 259.600 C 160.220 259.600,160.400 259.150,160.400 258.600 C 160.400 258.050,160.220 257.600,160.000 257.600 C 159.780 257.600,159.600 258.050,159.600 258.600 M89.600 259.000 C 89.600 259.330,89.780 259.600,90.000 259.600 C 90.220 259.600,90.400 259.330,90.400 259.000 C 90.400 258.670,90.220 258.400,90.000 258.400 C 89.780 258.400,89.600 258.670,89.600 259.000 M278.250 275.650 C 278.109 276.353,278.069 277.002,278.159 277.092 C 278.250 277.183,278.448 276.691,278.600 276.000 C 278.752 275.309,278.793 274.659,278.691 274.558 C 278.589 274.456,278.391 274.947,278.250 275.650 M287.206 275.276 C 287.218 276.281,287.987 277.108,287.994 276.124 C 287.997 275.642,287.820 275.136,287.600 275.000 C 287.380 274.864,287.203 274.988,287.206 275.276 M239.400 276.400 C 239.250 276.873,239.217 277.350,239.327 277.460 C 239.437 277.570,239.650 277.273,239.800 276.800 C 239.950 276.327,239.983 275.850,239.873 275.740 C 239.763 275.630,239.550 275.927,239.400 276.400 M227.200 276.600 C 227.200 276.930,227.380 277.200,227.600 277.200 C 227.820 277.200,228.000 276.930,228.000 276.600 C 228.000 276.270,227.820 276.000,227.600 276.000 C 227.380 276.000,227.200 276.270,227.200 276.600 M309.600 276.776 C 309.600 277.203,309.780 277.664,310.000 277.800 C 310.227 277.940,310.400 277.604,310.400 277.024 C 310.400 276.461,310.220 276.000,310.000 276.000 C 309.780 276.000,309.600 276.349,309.600 276.776 M275.200 277.800 C 275.200 278.130,275.380 278.400,275.600 278.400 C 275.820 278.400,276.000 278.130,276.000 277.800 C 276.000 277.470,275.820 277.200,275.600 277.200 C 275.380 277.200,275.200 277.470,275.200 277.800 M230.276 278.810 C 230.130 279.355,230.030 280.520,230.052 281.400 C 230.091 282.908,230.114 282.874,230.455 280.823 C 230.839 278.507,230.718 277.155,230.276 278.810 M274.708 280.383 C 274.431 281.367,274.597 281.937,275.032 281.501 C 275.160 281.373,275.201 280.848,275.124 280.334 L 274.984 279.400 274.708 280.383 M306.000 282.200 C 306.000 282.530,306.180 282.800,306.400 282.800 C 306.620 282.800,306.800 282.530,306.800 282.200 C 306.800 281.870,306.620 281.600,306.400 281.600 C 306.180 281.600,306.000 281.870,306.000 282.200 " stroke="none" fill="#848484" fill-rule="evenodd"></path><path id="path5" d="M91.600 234.800 C 91.600 235.460,91.420 236.000,91.200 236.000 C 90.973 236.000,90.800 237.160,90.800 238.680 C 90.800 240.531,90.928 241.232,91.215 240.945 C 91.672 240.488,92.276 233.600,91.859 233.600 C 91.717 233.600,91.600 234.140,91.600 234.800 M140.400 235.200 C 140.400 236.080,140.580 236.800,140.800 236.800 C 141.020 236.800,141.200 236.080,141.200 235.200 C 141.200 234.320,141.020 233.600,140.800 233.600 C 140.580 233.600,140.400 234.320,140.400 235.200 M160.520 236.400 C 160.520 237.610,160.595 238.105,160.687 237.500 C 160.778 236.895,160.778 235.905,160.687 235.300 C 160.595 234.695,160.520 235.190,160.520 236.400 M309.200 235.200 C 309.200 235.420,309.571 235.600,310.024 235.600 C 310.477 235.600,310.736 235.420,310.600 235.200 C 310.464 234.980,310.093 234.800,309.776 234.800 C 309.459 234.800,309.200 234.980,309.200 235.200 M244.828 238.900 C 244.847 241.339,244.973 242.327,245.200 241.800 C 245.688 240.664,245.688 235.200,245.200 235.200 C 244.960 235.200,244.811 236.681,244.828 238.900 M259.200 235.800 C 259.474 236.130,259.850 236.400,260.036 236.400 C 260.223 236.400,260.271 236.130,260.145 235.800 C 260.018 235.470,259.642 235.200,259.308 235.200 C 258.815 235.200,258.795 235.312,259.200 235.800 M269.206 236.100 C 269.211 236.828,269.286 236.885,269.600 236.400 C 270.101 235.624,270.101 235.200,269.600 235.200 C 269.380 235.200,269.203 235.605,269.206 236.100 M274.914 237.000 C 274.917 238.100,274.995 238.503,275.087 237.895 C 275.179 237.286,275.177 236.386,275.082 235.895 C 274.987 235.403,274.911 235.900,274.914 237.000 M287.467 235.467 C 287.320 235.613,287.200 236.729,287.200 237.947 C 287.200 240.723,287.873 240.218,288.063 237.300 C 288.194 235.295,288.057 234.876,287.467 235.467 M312.400 235.555 C 311.902 235.758,311.953 235.964,312.700 236.763 C 313.515 237.635,313.599 237.654,313.594 236.963 C 313.585 235.858,313.089 235.273,312.400 235.555 M254.105 235.887 C 254.714 235.979,255.614 235.977,256.105 235.882 C 256.597 235.787,256.100 235.711,255.000 235.714 C 253.900 235.717,253.497 235.795,254.105 235.887 M97.043 236.633 C 96.909 236.981,96.825 237.836,96.854 238.533 C 96.895 239.474,96.954 239.568,97.082 238.900 C 97.178 238.405,97.423 238.000,97.628 238.000 C 97.833 238.000,98.000 237.550,98.000 237.000 C 98.000 235.883,97.416 235.659,97.043 236.633 M293.200 237.376 C 293.200 237.939,293.380 238.400,293.600 238.400 C 293.820 238.400,294.000 238.051,294.000 237.624 C 294.000 237.197,293.820 236.736,293.600 236.600 C 293.373 236.460,293.200 236.796,293.200 237.376 M312.800 239.480 C 312.800 240.009,312.693 240.053,312.320 239.680 C 312.056 239.416,311.593 239.200,311.291 239.200 C 310.850 239.200,310.860 239.317,311.343 239.800 C 312.200 240.657,313.200 240.550,313.200 239.600 C 313.200 239.160,313.110 238.800,313.000 238.800 C 312.890 238.800,312.800 239.106,312.800 239.480 M158.951 240.100 C 157.276 242.011,157.024 242.442,157.743 242.166 C 158.105 242.028,158.400 241.720,158.400 241.483 C 158.400 241.246,158.791 240.635,159.270 240.126 C 159.748 239.617,160.049 239.200,159.939 239.200 C 159.829 239.200,159.385 239.605,158.951 240.100 M257.603 240.286 C 257.605 240.459,258.055 240.808,258.604 241.063 C 259.152 241.317,259.501 241.363,259.378 241.165 C 259.052 240.637,257.599 239.918,257.603 240.286 M150.562 240.862 C 150.385 241.148,150.452 241.215,150.738 241.038 C 151.424 240.615,151.298 241.221,150.503 242.169 C 149.997 242.772,150.107 242.734,150.903 242.030 C 151.506 241.497,152.000 240.912,152.000 240.730 C 152.000 240.232,150.888 240.334,150.562 240.862 M298.093 241.600 C 298.093 242.370,298.175 242.685,298.276 242.300 C 298.376 241.915,298.376 241.285,298.276 240.900 C 298.175 240.515,298.093 240.830,298.093 241.600 M292.901 242.200 C 292.905 243.080,292.987 243.393,293.083 242.895 C 293.179 242.398,293.175 241.678,293.075 241.295 C 292.975 240.913,292.896 241.320,292.901 242.200 M250.300 241.428 C 250.135 241.596,250.005 242.468,250.012 243.367 C 250.022 244.683,250.104 244.863,250.437 244.291 C 250.896 243.503,250.773 240.947,250.300 241.428 M303.632 243.238 C 303.614 243.589,304.005 244.219,304.500 244.638 C 305.392 245.394,305.394 245.393,304.752 244.600 C 304.396 244.160,304.005 243.530,303.884 243.200 C 303.697 242.691,303.658 242.696,303.632 243.238 M259.467 243.867 C 259.320 244.013,259.200 244.404,259.200 244.735 C 259.200 245.066,258.885 245.708,258.500 246.162 C 257.827 246.955,257.828 246.964,258.542 246.410 C 258.950 246.092,259.450 245.396,259.653 244.861 C 260.031 243.866,259.942 243.391,259.467 243.867 M269.246 245.500 C 269.221 246.435,269.020 247.200,268.800 247.200 C 268.580 247.200,268.400 247.661,268.400 248.224 C 268.400 248.787,268.570 249.142,268.777 249.014 C 269.244 248.726,269.745 245.561,269.485 244.547 C 269.379 244.136,269.272 244.565,269.246 245.500 M274.700 244.229 C 274.535 244.396,274.405 245.088,274.412 245.767 C 274.422 246.811,274.488 246.891,274.838 246.288 C 275.296 245.503,275.178 243.744,274.700 244.229 M147.332 245.338 C 146.634 245.812,145.976 246.515,145.869 246.900 C 145.574 247.964,146.063 247.692,147.546 245.966 C 148.287 245.105,148.827 244.417,148.746 244.438 C 148.666 244.459,148.029 244.864,147.332 245.338 M91.328 247.200 C 91.328 248.630,91.401 249.215,91.489 248.500 C 91.578 247.785,91.578 246.615,91.489 245.900 C 91.401 245.185,91.328 245.770,91.328 247.200 M263.445 246.188 C 262.938 246.961,262.919 247.129,263.359 246.960 C 263.668 246.842,264.012 246.397,264.123 245.972 C 264.392 244.945,264.224 244.999,263.445 246.188 M153.158 246.670 L 152.200 247.715 153.400 246.979 C 154.060 246.574,154.657 246.206,154.727 246.161 C 154.796 246.117,154.687 245.978,154.485 245.852 C 154.282 245.727,153.685 246.095,153.158 246.670 M292.877 247.326 C 292.615 247.945,292.427 249.115,292.460 249.926 C 292.515 251.285,292.534 251.306,292.696 250.201 C 292.793 249.542,293.050 248.892,293.268 248.758 C 293.486 248.623,293.594 247.993,293.509 247.357 L 293.354 246.200 292.877 247.326 M287.053 248.541 C 286.886 249.388,286.841 250.175,286.955 250.288 C 287.258 250.591,287.697 248.585,287.514 247.732 C 287.420 247.290,287.237 247.611,287.053 248.541 M301.403 248.149 C 301.791 248.741,302.204 249.129,302.322 249.012 C 302.439 248.894,302.907 249.114,303.361 249.499 C 304.151 250.170,304.162 250.169,303.629 249.481 C 303.322 249.086,302.537 248.383,301.885 247.918 L 300.699 247.073 301.403 248.149 M96.400 249.000 C 96.400 249.770,96.580 250.400,96.800 250.400 C 97.020 250.400,97.200 249.770,97.200 249.000 C 97.200 248.230,97.020 247.600,96.800 247.600 C 96.580 247.600,96.400 248.230,96.400 249.000 M150.151 250.100 C 148.596 251.874,148.279 252.400,148.764 252.400 C 149.017 252.400,149.336 252.085,149.472 251.700 C 149.608 251.315,150.084 250.595,150.529 250.100 C 150.975 249.605,151.249 249.200,151.139 249.200 C 151.029 249.200,150.585 249.605,150.151 250.100 M141.544 251.587 C 141.025 252.019,140.763 252.379,140.962 252.387 C 141.161 252.394,140.981 252.802,140.562 253.293 C 139.901 254.068,139.895 254.112,140.519 253.629 C 141.278 253.039,142.983 250.800,142.672 250.800 C 142.571 250.800,142.064 251.154,141.544 251.587 M244.854 252.500 C 244.825 253.545,244.620 254.400,244.400 254.400 C 244.180 254.400,244.000 254.861,244.000 255.424 C 244.000 255.987,244.170 256.342,244.377 256.214 C 244.856 255.918,245.330 252.830,245.090 251.563 C 244.991 251.033,244.884 251.455,244.854 252.500 M90.400 252.200 C 90.400 252.750,90.580 253.200,90.800 253.200 C 91.020 253.200,91.200 252.750,91.200 252.200 C 91.200 251.650,91.020 251.200,90.800 251.200 C 90.580 251.200,90.400 251.650,90.400 252.200 M96.032 253.076 C 96.014 253.998,96.142 254.841,96.316 254.948 C 96.490 255.056,96.567 254.482,96.487 253.672 C 96.269 251.458,96.067 251.195,96.032 253.076 M111.028 252.445 C 111.179 252.689,111.054 253.047,110.751 253.239 C 110.374 253.478,110.353 253.590,110.686 253.594 C 110.953 253.597,111.365 253.240,111.600 252.800 C 111.945 252.156,111.904 252.000,111.390 252.000 C 111.024 252.000,110.870 252.189,111.028 252.445 M134.686 253.206 C 134.995 254.390,135.517 254.545,135.296 253.388 C 135.192 252.845,134.965 252.400,134.791 252.400 C 134.617 252.400,134.570 252.763,134.686 253.206 M116.000 254.400 C 115.710 254.942,115.705 255.200,115.986 255.200 C 116.214 255.200,116.400 254.945,116.400 254.633 C 116.400 254.322,116.625 253.976,116.900 253.865 C 117.277 253.713,117.280 253.655,116.914 253.632 C 116.647 253.614,116.235 253.960,116.000 254.400 M307.756 254.922 C 307.714 256.112,307.740 256.137,308.123 255.287 C 308.372 254.733,308.390 254.230,308.167 254.009 C 307.945 253.787,307.782 254.148,307.756 254.922 M313.200 255.000 C 313.200 255.550,313.380 256.000,313.600 256.000 C 313.820 256.000,314.000 255.550,314.000 255.000 C 314.000 254.450,313.820 254.000,313.600 254.000 C 313.380 254.000,313.200 254.450,313.200 255.000 M159.413 257.034 C 159.260 258.262,159.239 259.372,159.367 259.500 C 159.495 259.628,159.600 259.253,159.600 258.667 C 159.600 258.080,159.780 257.600,160.000 257.600 C 160.220 257.600,160.400 256.970,160.400 256.200 C 160.400 253.994,159.721 254.567,159.413 257.034 M291.843 255.433 C 291.467 256.411,291.549 256.508,292.200 255.857 C 292.880 255.177,292.967 254.800,292.443 254.800 C 292.246 254.800,291.976 255.085,291.843 255.433 M108.000 256.400 C 108.000 257.819,108.517 257.940,109.371 256.720 C 109.849 256.038,109.876 255.769,109.494 255.526 C 108.514 254.904,108.000 255.205,108.000 256.400 M129.881 255.733 C 129.754 256.064,129.909 256.433,130.225 256.554 C 130.870 256.802,130.955 256.464,130.450 255.666 C 130.174 255.232,130.068 255.245,129.881 255.733 M139.200 257.000 C 139.200 257.990,139.020 258.800,138.800 258.800 C 138.580 258.800,138.400 258.980,138.400 259.200 C 138.400 259.420,138.670 259.600,139.000 259.600 C 139.461 259.600,139.600 259.089,139.600 257.400 C 139.600 256.190,139.510 255.200,139.400 255.200 C 139.290 255.200,139.200 256.010,139.200 257.000 M284.881 256.018 C 284.613 256.448,284.135 256.800,283.820 256.800 C 283.505 256.800,283.146 256.963,283.023 257.163 C 282.900 257.362,283.147 257.434,283.574 257.323 C 284.404 257.106,285.846 255.713,285.549 255.416 C 285.450 255.317,285.150 255.588,284.881 256.018 M109.200 256.176 C 109.200 256.493,109.020 256.864,108.800 257.000 C 108.580 257.136,108.400 256.877,108.400 256.424 C 108.400 255.971,108.580 255.600,108.800 255.600 C 109.020 255.600,109.200 255.859,109.200 256.176 M268.790 255.863 C 269.016 255.975,269.200 256.412,269.200 256.833 C 269.200 257.255,269.374 257.600,269.587 257.600 C 270.131 257.600,269.440 255.864,268.852 255.751 C 268.592 255.701,268.565 255.751,268.790 255.863 M256.390 257.063 C 256.616 257.175,256.800 257.511,256.800 257.810 C 256.800 258.108,256.978 258.463,257.195 258.597 C 257.445 258.751,257.468 258.512,257.256 257.941 C 257.073 257.446,256.711 257.000,256.452 256.951 C 256.192 256.901,256.165 256.952,256.390 257.063 M299.800 257.200 C 300.901 257.673,301.292 257.673,301.000 257.200 C 300.864 256.980,300.358 256.813,299.876 256.828 C 299.031 256.855,299.029 256.869,299.800 257.200 M269.815 258.376 C 269.558 258.791,269.824 259.001,271.342 259.578 C 272.699 260.094,272.675 259.954,271.221 258.879 C 270.573 258.400,269.940 258.173,269.815 258.376 M296.828 258.876 C 296.882 260.648,297.540 261.575,297.572 259.924 C 297.587 259.112,297.420 258.336,297.200 258.200 C 296.975 258.061,296.812 258.357,296.828 258.876 M299.800 261.600 C 299.936 261.820,300.442 261.997,300.924 261.994 C 301.636 261.989,301.688 261.915,301.200 261.600 C 300.412 261.091,299.485 261.091,299.800 261.600 M228.146 273.000 C 228.147 275.200,228.214 276.049,228.295 274.887 C 228.376 273.724,228.376 271.924,228.293 270.887 C 228.211 269.849,228.145 270.800,228.146 273.000 M272.406 272.100 C 272.410 274.120,272.530 274.818,272.800 274.400 C 273.313 273.606,273.313 269.200,272.800 269.200 C 272.570 269.200,272.403 270.429,272.406 272.100 M248.958 269.906 C 248.655 270.108,248.732 270.424,249.206 270.914 C 249.864 271.597,249.886 271.583,249.701 270.614 C 249.594 270.057,249.483 269.603,249.453 269.606 C 249.424 269.609,249.201 269.744,248.958 269.906 M301.087 270.810 C 301.282 271.556,301.200 271.686,300.664 271.480 C 300.299 271.340,300.000 271.399,300.000 271.613 C 300.000 271.826,300.276 272.000,300.613 272.000 C 301.397 272.000,301.838 270.878,301.275 270.315 C 300.968 270.008,300.914 270.149,301.087 270.810 M263.233 270.504 C 263.325 270.562,263.830 270.967,264.357 271.404 L 265.313 272.200 264.760 271.300 C 264.456 270.805,263.951 270.400,263.637 270.400 C 263.323 270.400,263.142 270.447,263.233 270.504 M252.813 271.347 C 252.586 271.574,252.400 272.069,252.400 272.447 C 252.400 272.824,252.175 273.224,251.900 273.335 C 251.523 273.487,251.520 273.545,251.886 273.568 C 252.153 273.586,252.588 273.195,252.851 272.700 C 253.115 272.205,253.595 271.605,253.918 271.367 C 254.427 270.991,254.420 270.933,253.866 270.933 C 253.514 270.933,253.041 271.119,252.813 271.347 M291.463 271.530 C 291.098 271.934,290.928 272.395,291.088 272.554 C 291.247 272.713,291.112 273.011,290.788 273.216 C 290.407 273.457,290.372 273.590,290.690 273.594 C 291.182 273.600,292.602 271.269,292.294 270.960 C 292.203 270.869,291.829 271.126,291.463 271.530 M309.855 273.134 C 309.665 273.428,309.465 275.498,309.411 277.734 C 309.356 279.970,309.385 280.545,309.475 279.012 C 309.565 277.478,309.822 276.110,310.047 275.971 C 310.272 275.832,310.398 275.017,310.328 274.159 C 310.242 273.108,310.088 272.774,309.855 273.134 M246.514 274.280 C 246.027 274.786,245.774 275.200,245.952 275.200 C 246.342 275.200,247.798 273.645,247.564 273.477 C 247.474 273.413,247.001 273.774,246.514 274.280 M275.011 276.631 C 274.856 278.079,274.835 279.369,274.965 279.498 C 275.094 279.627,275.200 279.163,275.200 278.467 C 275.200 277.770,275.380 277.200,275.600 277.200 C 275.820 277.200,276.000 276.480,276.000 275.600 C 276.000 273.042,275.320 273.752,275.011 276.631 M230.267 274.667 C 230.120 274.813,230.018 275.938,230.041 277.167 C 230.080 279.303,230.100 279.343,230.499 278.100 C 230.728 277.385,231.070 276.800,231.258 276.800 C 231.446 276.800,231.575 276.305,231.546 275.700 C 231.499 274.757,231.466 274.728,231.318 275.500 C 231.222 275.995,230.956 276.400,230.726 276.400 C 230.495 276.400,230.392 275.952,230.498 275.400 C 230.703 274.328,230.680 274.254,230.267 274.667 M242.800 275.200 C 242.800 275.420,242.980 275.600,243.200 275.600 C 243.420 275.600,243.600 275.870,243.600 276.200 C 243.600 276.530,243.776 276.800,243.991 276.800 C 244.230 276.800,244.204 276.408,243.927 275.800 C 243.472 274.801,242.800 274.444,242.800 275.200 M251.600 275.367 C 251.600 275.678,251.377 276.008,251.104 276.099 C 250.747 276.218,250.803 276.460,251.304 276.961 C 251.965 277.623,252.000 277.586,252.000 276.229 C 252.000 275.443,251.910 274.800,251.800 274.800 C 251.690 274.800,251.600 275.055,251.600 275.367 M290.400 275.367 C 290.400 275.678,290.175 276.025,289.900 276.136 C 289.544 276.281,289.527 276.434,289.840 276.670 C 290.082 276.851,290.383 277.270,290.508 277.600 C 290.634 277.930,290.751 277.435,290.768 276.500 C 290.786 275.565,290.710 274.800,290.600 274.800 C 290.490 274.800,290.400 275.055,290.400 275.367 M292.901 276.200 C 292.905 277.080,292.987 277.393,293.083 276.895 C 293.179 276.398,293.175 275.678,293.075 275.295 C 292.975 274.913,292.896 275.320,292.901 276.200 M278.305 276.800 C 277.847 278.357,277.918 279.842,278.427 279.333 C 278.662 279.098,278.797 278.207,278.727 277.353 C 278.614 275.973,278.567 275.911,278.305 276.800 M239.500 277.333 C 239.024 278.494,239.118 280.242,239.629 279.731 C 239.865 279.495,240.000 278.694,239.929 277.951 C 239.829 276.904,239.732 276.765,239.500 277.333 M242.267 277.067 C 241.838 277.495,241.960 282.000,242.400 282.000 C 242.626 282.000,242.800 280.867,242.800 279.400 C 242.800 276.782,242.754 276.580,242.267 277.067 M306.924 279.000 C 306.926 280.320,307.001 280.812,307.090 280.093 C 307.179 279.374,307.177 278.294,307.086 277.693 C 306.995 277.092,306.922 277.680,306.924 279.000 M227.200 278.624 C 227.200 279.471,227.362 279.947,227.600 279.800 C 227.820 279.664,228.000 279.023,228.000 278.376 C 228.000 277.729,227.820 277.200,227.600 277.200 C 227.380 277.200,227.200 277.841,227.200 278.624 M254.629 278.306 C 254.865 278.468,255.208 278.960,255.391 279.400 C 255.708 280.163,255.732 280.165,255.901 279.448 C 255.999 279.034,255.836 278.542,255.539 278.354 C 254.874 277.933,254.018 277.887,254.629 278.306 M293.685 278.878 C 294.340 279.864,295.200 280.293,295.200 279.633 C 295.200 279.395,294.930 279.200,294.600 279.200 C 294.270 279.200,294.000 278.930,294.000 278.600 C 294.000 278.270,293.798 278.000,293.551 278.000 C 293.260 278.000,293.307 278.309,293.685 278.878 M291.463 280.000 C 292.051 280.660,292.598 281.200,292.678 281.200 C 292.758 281.200,292.425 280.660,291.937 280.000 C 291.449 279.340,290.902 278.800,290.722 278.800 C 290.541 278.800,290.875 279.340,291.463 280.000 M264.400 280.293 L 263.400 281.301 264.713 280.633 C 265.435 280.266,265.920 279.794,265.789 279.583 C 265.504 279.122,265.620 279.063,264.400 280.293 M267.272 280.869 C 267.342 281.346,267.630 281.783,267.910 281.839 C 268.190 281.894,268.236 281.849,268.010 281.737 C 267.326 281.398,267.524 280.285,268.221 280.553 C 268.577 280.689,268.737 280.622,268.597 280.395 C 268.119 279.621,267.140 279.971,267.272 280.869 M261.700 281.648 C 260.502 281.993,259.872 282.800,260.800 282.800 C 261.020 282.800,261.200 282.620,261.200 282.400 C 261.200 282.180,261.650 282.000,262.200 282.000 C 262.750 282.000,263.200 281.820,263.200 281.600 C 263.200 281.380,263.155 281.216,263.100 281.236 C 263.045 281.256,262.415 281.441,261.700 281.648 M294.990 282.248 C 295.347 282.604,295.759 282.774,295.907 282.626 C 296.056 282.478,295.912 282.189,295.588 281.984 C 294.643 281.387,294.287 281.544,294.990 282.248 " stroke="none" fill="#7c7c7c" fill-rule="evenodd"></path></g></svg>